<?xml version="1.0" encoding="UTF-8"?>
<svg id="a" data-name="Layer 1" xmlns="http://www.w3.org/2000/svg" viewBox="0 0 1000 1000">
  <path
    d="M992,440.04c0,128.59-102.7,232.84-229.38,232.84-112.88,0-206.7-82.76-225.82-191.75h-74.6c-19.12,108.99-112.94,191.75-225.82,191.75-126.69,0-229.38-104.24-229.38-232.84,0-109.72,74.77-201.71,175.41-226.35v71.36c-62.89,22.55-107.95,83.44-107.95,155,0,90.78,72.49,164.35,161.92,164.35s161.92-73.58,161.92-164.35c0-71.56-45.05-132.44-107.95-155v-71.36c87.78,21.49,155.88,94.21,171.84,185.26h74.6c15.97-91.05,84.06-163.78,171.84-185.26v71.36c-62.89,22.55-107.95,83.44-107.95,155,0,90.78,72.49,164.35,161.92,164.35s161.92-73.58,161.92-164.35c0-71.56-45.05-132.44-107.95-155v-71.36c100.64,24.64,175.41,116.63,175.41,226.35Z"
    style="fill: #00aeef; stroke-width: 0px;" />
  <path
    d="M290.36,440.04c0,30.25-24.17,54.78-53.97,54.78s-53.97-24.53-53.97-54.78c0-5.62.84-11.03,2.38-16.13,3.39,1.57,7.15,2.43,11.11,2.43,14.9,0,26.99-12.27,26.99-27.39,0-4.02-.85-7.84-2.4-11.28,5.02-1.57,10.36-2.42,15.89-2.42,29.8,0,53.97,24.53,53.97,54.78Z"
    style="fill: #27aae1; stroke-width: 0px;" />
  <path
    d="M816.59,440.04c0,30.25-24.17,54.78-53.97,54.78s-53.97-24.53-53.97-54.78,24.17-54.78,53.97-54.78c5.53,0,10.87.85,15.89,2.42-1.54,3.44-2.4,7.26-2.4,11.28,0,15.13,12.08,27.39,26.99,27.39,3.96,0,7.72-.87,11.11-2.43,1.54,5.1,2.38,10.52,2.38,16.13Z"
    style="fill: #27aae1; stroke-width: 0px;" />
  <rect x="195.9" y="138.72" width="80.96" height="191.75" style="fill: #414042; stroke-width: 0px;" />
  <rect x="722.14" y="138.72" width="80.96" height="191.75" style="fill: #414042; stroke-width: 0px;" />
  <g>
    <path d="M40.67,773.01H7.09v-20.09h91.45v20.09h-33.58v86.44h-24.29v-86.44h0Z"
      style="fill: #414042; stroke-width: 0px;" />
    <path d="M192.85,839.67v19.78h-81.26v-106.53h79.31v19.78h-55.17v23.13h48.73v19.17h-48.73v24.65h57.12,0Z"
      style="fill: #414042; stroke-width: 0px;" />
    <path
      d="M205.27,806.19c0-32.11,24.29-55.09,56.97-55.09,18.14,0,33.28,6.7,43.18,18.87l-15.59,14.61c-7.05-8.22-15.89-12.48-26.39-12.48-19.64,0-33.58,14-33.58,34.09s13.94,34.09,33.58,34.09c10.49,0,19.34-4.26,26.39-12.63l15.59,14.61c-9.89,12.33-25.04,19.02-43.33,19.02-32.53,0-56.82-22.98-56.82-55.09Z"
      style="fill: #414042; stroke-width: 0px;" />
    <path d="M418.03,752.92v106.53h-24.29v-43.68h-47.68v43.68h-24.29v-106.53h24.29v42h47.68v-42h24.29Z"
      style="fill: #414042; stroke-width: 0px;" />
    <path
      d="M556.25,804.51h22.19v43.22c-11.54,8.83-27.44,13.54-42.43,13.54-32.98,0-57.27-22.98-57.27-55.09s24.29-55.09,57.72-55.09c18.44,0,33.73,6.39,43.93,18.41l-15.59,14.61c-7.65-8.22-16.49-12.02-27.14-12.02-20.39,0-34.33,13.85-34.33,34.09s13.94,34.09,34.03,34.09c6.6,0,12.74-1.22,18.89-4.57v-31.2h0Z"
      style="fill: #414042; stroke-width: 0px;" />
    <path d="M682.18,839.67v19.78h-81.26v-106.53h79.31v19.78h-55.17v23.13h48.73v19.17h-48.73v24.65h57.12Z"
      style="fill: #414042; stroke-width: 0px;" />
    <path d="M782.78,839.67v19.78h-81.26v-106.53h79.31v19.78h-55.17v23.13h48.73v19.17h-48.73v24.65h57.12Z"
      style="fill: #414042; stroke-width: 0px;" />
    <path
      d="M840.35,817.6l-14.09,14.91v26.94h-24.14v-106.53h24.14v49.76l46.48-49.76h26.99l-43.48,47.48,46.03,59.05h-28.34l-33.58-41.85h0Z"
      style="fill: #414042; stroke-width: 0px;" />
    <path
      d="M902.57,848.95l8.25-18.57c8.85,6.54,22.04,11.11,34.63,11.11,14.39,0,20.24-4.87,20.24-11.41,0-19.94-61.02-6.24-61.02-45.81,0-18.11,14.39-33.18,44.23-33.18,13.19,0,26.69,3.2,36.43,9.44l-7.5,18.72c-9.75-5.63-19.79-8.37-29.09-8.37-14.39,0-19.94,5.48-19.94,12.17,0,19.63,61.02,6.09,61.02,45.2,0,17.81-14.54,33.02-44.53,33.02-16.64,0-33.43-5.02-42.73-12.33h0Z"
      style="fill: #414042; stroke-width: 0px;" />
  </g>
</svg>