<?xml version="1.0" encoding="UTF-8"?>
<svg id="a" xmlns="http://www.w3.org/2000/svg" xmlns:xlink="http://www.w3.org/1999/xlink" viewBox="0 0 4200 1500">
  <defs>
    <clipPath id="b">
      <rect x="210.9" y="455.1" width="824.8" height="378.3" style="fill: none; stroke-width: 0px;" />
    </clipPath>
    <clipPath id="c">
      <rect x="489" y="523.1" width="346.3" height="373.6" style="fill: none; stroke-width: 0px;" />
    </clipPath>
    <clipPath id="d">
      <rect x="808.7" y="651.6" width="115.5" height="164.5" style="fill: none; stroke-width: 0px;" />
    </clipPath>
    <clipPath id="e">
      <rect x="805.9" y="650.8" width="120.8" height="168" style="fill: none; stroke-width: 0px;" />
    </clipPath>
    <clipPath id="f">
      <rect x="456.7" y="1034.3" width="48.1" height="25.9" style="fill: none; stroke-width: 0px;" />
    </clipPath>
    <clipPath id="g">
      <rect x="451" y="1029.8" width="55.4" height="34.5" style="fill: none; stroke-width: 0px;" />
    </clipPath>
    <clipPath id="h">
      <rect x="292.1" y="803" width="40.1" height="48" style="fill: none; stroke-width: 0px;" />
    </clipPath>
    <clipPath id="i">
      <rect x="741.2" y="1071.9" width="41.8" height="18.4" style="fill: none; stroke-width: 0px;" />
    </clipPath>
    <clipPath id="j">
      <rect x="736.1" y="1067.7" width="49" height="26.7" style="fill: none; stroke-width: 0px;" />
    </clipPath>
    <clipPath id="k">
      <rect x="261.9" y="799.6" width="33.5" height="46.4" style="fill: none; stroke-width: 0px;" />
    </clipPath>
    <clipPath id="l">
      <rect x="220.8" y="625.3" width="799.7" height="536.2" style="fill: none; stroke-width: 0px;" />
    </clipPath>
  </defs>
  <g>
    <path
      d="M837.5,850.5l5,18.3c0,5.2,0,15.1,3,19.9,7.6-3.3,6.4-9.4,12.8-31.9,5.3-1.5,4,.3,11.6-2.3l-7.8,6.6,5.4,29.3c7-5.5,5.7-33.4,12.1-50.8,3.2-8.9,1.9-3.2,11.2-8.6-13.6.5-43.9,13.5-53.4,19.5"
      style="fill: #a49e9d; fill-rule: evenodd; stroke-width: 0px;" />
    <path
      d="M871.1,858.9l-4.4,3.8,2.2,12c.5-2.9.9-6,1.3-9,.3-2.2.6-4.5.9-6.8M838.4,869.4l-4.9-17.7-.8-3,2.6-1.6c7-4.4,24.5-12.4,39.2-16.8,3.1-.9,5.8-1.7,8.4-2.2,2.6-.6,5.2-1,7.3-1.1h.5l2.3,7.7c-4.2,2.5-6.6,3-8.2,3.2h0s-.5,1-1.3,3.2c-2.6,7.3-4,16.9-5.2,25.8-1.6,12-3.1,22.7-8.1,26.8h-.1c0,.1-5.4,4.5-5.4,4.5l-1.3-6.9-4.1-22.1-1,4c-2.9,11.9-3.9,16.3-11.3,19.3l-3.2,1.5-1.9-3.1c-3-5-3.4-13.7-3.4-19.6v-1.8h.1l-.2-.1ZM842.4,852.5l4.2,15.2v1c.1,0,.1,2.5.1,2.5,0,3,.1,6.9.7,10.1,1-2.2,1.8-5.3,3-10.1.9-4,2.2-9,3.9-15.6l.7-2.3,2.3-.6c2.6-.8,4-.8,5.4-.9,1,0,2.3,0,6-1.4l3,5.3c.9-6.1,2.2-12.1,4.1-17.3-12.3,3.8-25.9,9.8-33.3,14"
      style="fill: #a49e9d; stroke-width: 0px;" />
    <path
      d="M887.3,850.2c-1.1,9.7-2.1,7.3.1,15,4.2,15,1.6,18.1,9.6,32.6,2.9,5.2,4.5,9.6,8.1,9.8,3.2-14.3,3.9-26.1,7.6-40-6-3.2-6.2-.3-11.3-1.3,2.5-1.8,6.5-3.8,9.5-5.7.3-.2.9-.6,1.3-.9l2.4-1.9c11.3-9.4,11.3-4.6,25-13.4.3-.2.9-.6,1.4-1l-42.1,11.7c4.1-9.2,16-9.4,25-15.5-13.7-.9-24,8.5-36.4,10.5"
      style="fill: #a49e9d; fill-rule: evenodd; stroke-width: 0px;" />
    <path
      d="M882.4,855.1c.1-1.1.5-2.7.8-5.4l.3-3.1,3.1-.6c4.6-.7,9-2.6,13.5-4.7,7.3-3.2,14.9-6.5,24-5.8l2.1,7.6-.5.3,14.2-3.9,3.8,7.1c-.7.6-1.4,1-1.8,1.3h0c-6.8,4.4-10.4,5.6-13.6,6.6-3,1-5.5,1.9-11,6.4l-2.4,1.9-.2.2-.7.5.7.3,2.9,1.6-.8,3.1c-2.1,7.7-3.2,14.7-4.2,21.9-.9,5.8-1.8,11.9-3.2,18l-.8,3.4-3.5-.2c-5.4-.3-7.4-4.2-10.2-9.4h0l-1.1-2.2-.2-.5c-5.5-10-6.3-14.8-7.3-21.3-.6-3.2-1.3-7-2.6-12.1-1.7-6.4-1.7-6.6-1-11.1M891.1,853.6l-.5,2.9c-.5,2.6-.5,2.9.9,7.6,1.6,5.6,2.3,9.6,2.9,13.1.9,5.7,1.6,10,6.5,18.7l.2.5h0c0,.1,1.1,2.3,1.1,2.3l.5.9c.6-3.5,1.1-6.9,1.7-10.1.9-6.3,1.9-12.5,3.5-19-.5,0-.8,0-1.3.1-1.5.2-3.1.6-5.8.1l-1.6-7.3h-.1c1.5-1.1,3.3-2.2,5.2-3.2h0c1.5-.8,3-1.7,4.2-2.6h0l.3-.2h0l.6-.5.2-.2-9.8,2.7-8.5,2.4,3.7-8.1c.2-.5.3-.9.7-1.4-1.5.6-3.1,1.1-4.7,1.5"
      style="fill: #a7a8ab; stroke-width: 0px;" />
    <path
      d="M947.4,880.1c5.4-1.4,6-2.2,11.6-4.6-5.4,9.4-18.3,10-7.1,31,4.8,9.2-.1,1.6,4.8,6.2,2.5-9.6,2.2-54.6,22.1-42.8l-4.1,3.8c-.5.2-1,.6-1.5.9-4.6,2.9-2.3.2-7.7,4.1l3,24.6c2.6,7.6-1.4,3.1,5.4,6.6,3.5-7.7.5-6.6,5.2-25,2.3-9,5.4-19,7-25.2-10.1,1.6-13.7,2.9-23,6.6-11.3,4.5-16.4,1.8-15.6,13.6"
      style="fill: #a49e9d; fill-rule: evenodd; stroke-width: 0px;" />
    <path
      d="M976.7,877.2l-1,.7h0l-.3.2c-2.5,1.6-3.5,1.8-4.5,2.1-.1,0-.3.1-.9.3l2.2,17.9c.3-3.1,1-7.4,2.9-14.5h0c.5-2.2,1-4.4,1.7-6.6M978.9,865.3l1,.5.2-.8-1.3.3h.1ZM948.2,908.5c-6.5-12.4-6-18.8-2.9-23.6l-1.7.5-.3-4.9c-.8-12.3,2.9-13.2,11.1-15.5,1.9-.6,4.4-1.1,7-2.3,4.8-1.8,8.1-3.2,11.6-4.2,3.5-1.1,7.1-1.8,12.4-2.6l6.2-.9-1.6,6.1c-.8,3.1-1.7,6.3-2.7,9.8-1.4,4.7-2.9,10.1-4.2,15.2h0c-2.3,9-2.6,13.2-2.9,16-.3,3.3-.5,5.3-2.5,9.7l-1.8,3.9-3.9-2.1c-1.8-.9-2.5-1.1-3-1.3-1-.3-1.6-.5-2.5-1.5-1-1.3-.9-1.7-1-2.9h0c0-.3,0-1-.8-3.3v-.8c-.1,0-1.3-8.8-1.3-8.8-.5,3-.7,5.8-1,8.4-.5,4.1-.9,7.4-1.5,9.7h0c0,.1-.1.6-.1.6l-.6,1.9c8,22.9,7.3,31.8,3.8,30.9.2,1.8,0,1.7-1-.5-4-2.6-10.3-15.3-12.7-33.7-.1-.5-.6-1.5-1.8-4M956.7,884.7h0c-3.8,3.7-7.1,6.9-2.5,17.1.5-5.2,1.1-11.3,2.5-17.1M958.1,872.4l1.7,1.9c.5-1,.9-1.9,1.4-2.9-1,.3-2.2.7-3.1.9"
      style="fill: #a49e9d; stroke-width: 0px;" />
    <path
      d="M923,878.4l14.7-5.7c-4.4,12.8-10.2.1-14.2,17.1,3.9,2.5-.2,1,5.3,2.2,2.5.5-.3-1.1,4.1,0-4.5,6.8-13.1,8.5-1.5,19.2,4.6-5.7,6-14,6.9-21.2,1.3-10.8,2.3-12.7,5.5-23.2l24-9c4.1-2.1,3.2-.8,4.4-4.1-13.5,4.9-20.7,5.6-41.1,14.1-7.2,3-8.1,2.2-8,10.8"
      style="fill: #a49e9d; fill-rule: evenodd; stroke-width: 0px;" />
    <path
      d="M923,878.4l14.7-5.7c-4.4,12.8-10.2.1-14.2,17.1,3.9,2.5-.2,1,5.3,2.2,2.5.5-.3-1.1,4.1,0-4.5,6.8-13.1,8.5-1.5,19.2,4.6-5.7,6-14,6.9-21.2,1.3-10.8,2.3-12.7,5.5-23.2l24-9c4.1-2.1,3.2-.8,4.4-4.1-13.5,4.9-20.7,5.6-41.1,14.1-7.2,3-8.1,2.2-8,10.8h0l-.1-.2Z"
      style="fill: none; stroke: #a7a8ab; stroke-miterlimit: 2.6; stroke-width: 7.9px;" />
    <path
      d="M565.8,169.3l-31.6,4.6-11.1-38.8c-40.2,2.2-79.3,20.6-115.2,29.1l9,40.3-29.3,12.4-20.7-34.1c-22.4,6.8-87.7,45.1-102.1,58.8l19,38.1c-12.9,6.1-15.3,10.2-26,16.3-13.5-7.4-18.3-18.4-30.2-26.1-14.5,14.1-28.6,22-44.1,38.6-14.7,15.6-28.1,27.2-38.5,44,8,12.6,18,15.7,26.2,30.1-6,9.7-10.9,15.1-16,24.7-16.8-4.7-22.3-13.4-38.5-18-13.6,14.3-54.5,81.7-58.5,104.6l32.7,16-10.1,30.8-42.1-9.5c-8.6,38.2-24.2,72.5-29.2,115.6l39.2,10.9-4.2,31.4-41.3,1.5c-2.9,38.2-5.7,80.1.5,116.2,12.7,5.6,22.8,2.1,40.5,3.8l4.5,31.1-38.7,10.9c2.4,41.7,21.3,78.8,28.6,114.5l40.8-8.4,12.6,29.7c-8.4,4.7-27.2,15.3-33.7,21.5,7.2,24.2,44.7,85.4,58.4,100.8l37.9-19.1c5.8,11.7,10.5,16,16.6,25.8-8.4,14.1-18.2,17.4-26,30.2,20,32.7,55.3,56.8,82.1,83l29.8-27.8c10.2,6.9,15.3,10.6,24.6,18.7l-17.6,36.4c14.8,13.7,80.3,52.3,101.8,58.6,2.6-2.6,2.1-1.7,5.2-5.8,1.6-2.2,4.2-6.2,5.5-8.2,5.2-8.6,5.8-10.2,8.7-18.9l31.4,10.6-9,41.8c39.6,9.2,72,23.7,115.9,29.1l10.9-39.2,31.5,4.2c.7,7.2.3,11.8.6,18.7.6,26,.9,13.6,1.5,16.3l1.7,5.8c31.3,5.2,82.8,5.3,114-.1l3.2-18.7c.3-7.7-.2-13.7.6-21.8l31.3-4.5,10.9,38.9c42-3.1,79.2-21.3,115.5-29l-9.6-42,32.2-11.2c4.2,12.4,10.9,24.8,19.6,34,23-7.3,86.7-44.8,100.8-58.4-3.8-15.7-13.4-19.7-16.4-36.9,8.9-7.7,14.2-12.1,23.4-17.4,11.3,6.1,20.3,16.1,27.7,26.1,22.4-9,70.8-65.3,85.3-82.5-8.6-12.8-18.8-16.4-26.1-30.2,4.7-7.8,10.9-15.3,17.5-23.1,14.2,1.8,21.2,11.8,37,16.4,13.6-14.9,51.4-77.3,58.4-100.6-.7-.6-1.6-2.4-1.9-1.8l-31.7-19.5,11.4-29.3,41.8,8.8c7.3-37.4,25.5-72.9,29.1-115.6l-39-10.5,4.1-31.7c27.9-1.7,28.4,1.9,40.9-3.5,5.7-36.3,3.1-77.7.5-115.5l-41-1.7-4.6-31.5,39.3-11.3c-5.6-43.4-21.2-77.6-29.2-114.7l-40.8,9.2-12.4-27.8,34.2-22.1c-6.8-22.4-46.6-89.2-59.2-101.7-15.7,3.7-21.4,13.4-38.6,17.2-4.7-8-10.2-15.5-15.9-24.3l25.8-28.4c-12-28.1-59.3-63.3-82.2-84.3l-29.2,27.1-24.7-18.2c2.3-14.4,13.2-23.1,16.6-37.2-13.4-13.1-79.7-52.2-100.6-58.2-8.2,8.4-15.5,20.8-19.2,33.1l-32.3-10.8,9.8-41.7c-37.1-9.6-75.6-26.3-116.3-29.3l-10.2,38.9-32.1-4.1c-2.5-35.6,2.4-16.8-2.6-37.7-.2-.8-.5-1.9-.9-2.9-36.4-6.2-78-2.6-115.9-.6l-1.7,41.1h0l-.6-.1Z"
      style="fill: #353434; fill-rule: evenodd; stroke-width: 0px;" />
    <path
      d="M574.2,347.6c-103.8,14-198.4,65.7-261.2,143.5-60.9,75.4-108.1,182.2-90.2,312.7,28.3,206.1,215.9,379.2,457.5,348.5,202.9-25.8,383.1-218,349.3-456.8-21.8-155-125.3-278.7-273.1-330-56-19.3-120.4-26.2-182.4-17.9"
      style="fill: #fff; fill-rule: evenodd; stroke-width: 0px;" />
    <path
      d="M580.1,181.3l-57.6,8.2-9.2-38.7c-21.6,2.6-70.8,14.8-87.7,23.7l8.5,40.1-51.6,19.5c-8.8-9.8-14.7-21.8-19.3-33.3-19.8,4.6-65.7,34.2-81.1,44.4l19.6,36.6c-13.1,8.7-34.3,28.4-47.3,33.1l-26.1-26.9c-11.1,6.4-59.4,54.2-64.3,64.2l26.1,27.1c-6.9,14.4-23.6,31.5-33,45.9l-36.5-19.3c-11.3,17.9-38.8,58.2-45,81.2l34,18-21,52-40.6-8.6c-7.8,26.8-19.3,59.8-22.3,88.7l38.6,10.1-7,56.8,150.9,1.6c14.3-204.3,200.6-374.7,416.6-375.5,219-.8,403.5,169.9,420,375.1l148.3-1.5c3.4-19.1-3-38.2-4.1-57.4l38.2-9.3c-2.3-21.4-14.5-70.1-23.7-87.2l-40.2,8.2-19.9-51.3,33.4-20.8c-7.9-27.9-31.5-56.2-43.9-79.3l-37.1,19.2c-10.5-15.7-25.8-30.8-33.1-46.7l26.3-26.3c-6.1-11.2-53.2-58.7-64-64l-26.9,25.8c-10.2-3.4-36.8-25.3-46-33l18.8-36.1c-15.9-11.1-59.5-38.7-80.7-45l-18.8,34.2-51.6-21,8.6-38.9c-19-9.6-66.7-21.4-89.1-24l-9.4,38.1-54.6-6.5c-4.7-11-2.2-26.6-3.1-40.9l-91.1-1.1-.9,40.9h0l-.1-.1Z"
      style="fill: #fff; fill-rule: evenodd; stroke-width: 0px;" />
    <g style="opacity: .2;">
      <g style="clip-path: url(#b);">
        <path
          d="M1009.3,758c1.3,1.1,2.5,2.3,3.8,3.3-1.1-1-2.4-2.1-3.8-3.3M950.3,699c5.5,4.5,13.4,12.8,22.7,22.4l7.2-3.2c.3.7,1.4,1.8,2.9,3.3,1.6,1.6,3.8,3.7,6.2,5.8,10.6,9.5,27.2,22.2,37.4,28.1,1.4-11.3,1.4-12.8-8.8-17.5h-.3c0-.1-67.2-38.9-67.2-38.9h-.1ZM978.2,743.8c2.4,2.5,5,5,7.7,7.7-1.3-1.4-2.5-2.7-3.9-4.1-1.3-1.3-2.5-2.4-3.8-3.5M808.4,659.1c-1.8,12-3.3,15.2-4.1,16.7,0,.5.2,1.5.5,3.4l.9,5.7c.5.1.9.3,1.3.6h.6c0,.1.2.2.2.2-1.1-3.2-2.1-6.5-3.1-9.7l7.4-3.5c1.1,1.7,2.2,3.3,3.2,4.9-3-6.9-5.3-13.2-6.9-18.3M819.2,620.2v.5c-.6,3.5-1.6,6.9-2.7,10.3s-1,3.4-1.7,5.7c-1.3,5-2.4,7.2-3.3,9.2-.8,1.5-1.3,2.7-1.8,5.6l5.5-1.3h0c1,3,2.6,6.9,4.7,11.4,2.1,4.5,4.7,9.6,7.6,15.2,14.8,28.5,37.8,66.5,50.7,79.3,1.7,1.7,3,2.7,4.1,3.7,1.6,1.3,3,2.6,5.2,4.8l25.1,27.6.7.8c6.3,6.8,11.7,12.6,14.4,20.3.7.5,1.4,1.3,1.7,2.7.1.2.1-.3.3-.2h0l.3.2h.2c1.1,1,1.7,1.9,2.1,2.7.1-.6.2-.9.2-.9h.1c3.4.9,7.4,1.7,11.7,2.3,8.6,1,18.5,1.6,27.7,2.1,5.3.2,10.4.5,14.7.8h.3c1,.1,3.3.3,5.8.6,7.4.7,17.1,1.6,22.2.9,7.2-.9,7.2-5,7.3-12.1v-2.5c-4.1-2.5-8.5-5.6-12.9-8.9-5.4-3.8-10.9-8-16.4-12.6-28.9-23.6-59.6-55.8-68.7-80.8l5.5-2.5c-1.6-2.5-3.4-5.4-5.6-9l6.1-5.4c4.1,3.1,7.8,6.5,11.3,10.1l3.7-5.2-4.2-2.4h0c-8.8-5.3-16.4-8.1-23.5-10.9-10.2-3.9-19.6-7.4-31.1-16.9-2.9-2.5-5.2-4.7-7.2-6.8-4-3.9-7.2-7-14.1-10.1-14.4-6.5-22.7-12.6-30.5-18.4-5-3.2-9.6-6.5-15.5-9.8M629.7,578.5c-4.7,10.4-7.3,16.7-3.7,28.5l.8-1.6c2.3-4.9,4.7-11.2,6.3-16.7l-5-1.5c.5-3,1-6,1.6-8.7M620.2,547c.3,1,.8,2.3,1.3,3.5.8-2.1,1.4-3.8,2.1-5.3-.9.5-1.9,1.1-3.3,1.7M613.8,555.5c1.4,2.7,2.5,5.4,3.2,7.8.5-1.7,1-3.4,1.7-5.2l-2.7-1.4c-.8-.5-1.5-.9-2.2-1.3M616.7,580.7c.5,1.3,1,2.6,1.4,4,.5-1.1.9-2.3,1.4-3.5l-2.7-.5h-.1ZM613.5,591.4c.8,1.5,1.7,3,2.4,4.5.1-2.3.3-4.5.9-6.6l-3.3,2.2h0v-.1ZM629.1,650.5c3.2,5.5,6.4,11.4,8.7,16.9-.1-2.5,0-5.4.8-8.5l.3-.9,39.7-81.7c2.9-6.3,3.7-10.4,3.3-12.7,0-.6-.1-.9-.3-.9-.3-.2-1.1-.2-1.9-.2-3.2.3-7.1,2.3-9.6,4.4l-7.7,6.1,1-9.7,1.3-11.9-7.6-1.9-6.5,11.7-6.2-2.2c-1,2.5-2.1,5.2-3,7.8h0c-.2.8-.6,1.6-.7,2.3l1.7,3.3c2.6,5.5-2.5,24.7-8,36.5h0c-1,2.3-2.2,4.4-3.1,6.1-1.3,1.9-2.4,3.4-3.5,4.2h-.1c0,.1-4.1,3.2-4.1,3.2l-2.1-4.8-.2-.5-2.5.8c6,10.1,11.2,20.4,14.2,30.8h0l-3.9,1.9h0v-.1ZM530.2,584.9h0M617.8,801.1l.7.3h-.1c-.2-.2-.5-.3-.6-.3M492.1,551.3c4.5-2.5,6.4-2.7,8-2.9h0c1-.1,1.9-.2,6.2-3.2,12.6-8.9,15.7-8.9,19-8.9s3,0,8.9-3.4c1.3-.7,2.1-1.3,2.7-1.8,1.7-1.3,3-2.2,7.1-3.8l7.3-2.9-1.7,7.7c-1.4,6.2-4.4,8.6-9.7,12.8-3.8,3-8.9,7-15.7,14.5-4.5,4.8-8.8,7.9-13.2,10.9-4.8,3.3-9.6,6.6-13.5,12.4-3.3,4.7-5.2,8-6.8,10.4-4.1,6.9-5.2,8.6-17.7,17.5-3.1,2.2-5,4.4-7.2,6.6-1.4,1.6-2.9,3.2-4.6,4.8-6,5.6-8.5,6.1-11.7,6.8-1.6.3-3.3.7-6.8,2.6-2.2,1.3-4,3.5-6,5.7-1.8,2.1-3.5,4.1-5.8,6-3.2,2.5-5.5,3.4-7.7,4.4h0c-2.2.8-4,1.6-6.5,5.8-5,8.6-5.4,19.7-5.5,31.1,0,2.3-.1,4.5-.1,6.6-.1,5.5.9,9.5,1.7,12.6,1.9,7.6,3,11.7-5.8,17.1v.2l-2.5,12.8v.8c1.4.7,2.9,1.8,4.5,3.4l3.3,3.2-2.9,2.3c1.7-.2,3.3-.3,4.7-.1l6.4.6-1.8,3.2,3.7-1.8,2.6-1.4.2.2c-3.5-5-7.8-11.2-11.2-18.9l7-4.2,27,33.7c1.3-.1,2.2-.1,3.1-.3,5.5-.7,6.3-.7,14.3,1.9l6.2,2.1h0c1,.1,3.2.3,5.3.5,1.8.1,3.8.2,5.4.5l4.8.6-1.3,4.4c9.7-1.6,13.2.5,17.4,3h0c2.9,1.7,6.3,3.9,15.1,4.1l2.4,6.6h21.8l-2.7,5.8c-.3.8-.6,1.4-.7,1.8,3.9,0,7.6.2,14.8,2.4-1.7-1.7-3.8-4.2-6.2-7.3-4.2-5.2-9.4-12.1-15.3-20.3-30.7-41.8-80.6-114.8-83.1-123.5l6.2-4.6h0c1.3.8,2.5,1.8,3.8,3h0c1.1,1.1,2.4,2.5,3.7,3.9,3.9,4.5,7.9,10.3,11.3,15.5-.5-1.1-.8-2.2-.9-2.9l6.8-3.9,6.9,5.8v.2c.1,0,6-4.1,6-4.1h0c1.3.7,2.9,2.4,4.9,4.9,1.4,1.6,3,3.7,4.7,6-6.5-10.5-13.9-23-16-30.7l6.3-4.5c.6.3,1,.7,1.6,1-2.3-4.4-4.2-8.4-5.5-11.7l6.9-4.4h0c3.8,3.8,31.5,43.9,52.6,74.3,9.2,13.3,17.1,24.7,21.4,30.8h0c2.4,3.4,8.6,12.7,16.5,24.3,9.5,14.2,21.5,31.9,31.9,46.9-4.1-7.4-7.8-13.6-10-15.7l4.8-6.6h0c4.2,2.4,7.7,7.1,11.4,12.3v.2c-11-19.3-31.6-47.7-49-71.6-10.8-14.7-20.3-27.7-25.6-36.2h0c-1.5-2.3-4.1-6.3-7.3-11.1h0c-13.9-21.2-37.7-57.5-42.4-69.3l6.9-4.2h0c3.8,4.4,7.1,9,10.3,14-4-7.4-7.3-14.2-8.8-18.2l7-4.1h0c3.8,4.6,9.8,12.9,16.7,22.9-2.6-4.9-4.9-9.3-6.3-12.6l6.9-4.2h0c8.2,9.3,15.8,21.2,23,32.6l4.2,6.8h0c1.5,2.3,3.9,6.1,7.1,10.9,3,4.7,6.2,9.4,9.2,14,16,24,37.2,54.8,48.9,69-2.7-4.2-5-7.8-6-12l7.8-2.5h0c0,.1.3.5.8,1,.5.7,1,1.4,1.7,2.2-8.8-15-21.6-32.5-34.3-49.8-11.8-16-23.5-31.9-31.6-45.6h0c-1.1-1.8-2.7-4.4-4.5-7.3-7.1-11.6-17.5-28.6-20.4-35.6l6.8-4.6h0c.9.9,2.1,2.2,3.2,3.7-3.5-6.4-6.8-12.6-9.4-18.7l6.3-5h.1c6.6,5.3,21.1,27.9,37.2,53.4,11,17.3,22.8,36,33.3,50.8l-1.3-1.9c-2.2-3.7-4.2-7-5.7-9.5l5.8-4.8c-5.5-10.1-12.3-20.2-18.5-29.5-9.5-14-18.2-27-21.6-38.4l6.6-4.2h.1c.5.6.9,1.1,1.6,1.8-6.6-10.9-12.5-21-15-28.3l6.4-4.2v-.2h.2c1.7,1.4,3.3,3.1,5,5l-.5-1.3,6.9-3.7.3-.2c.8.9,1.6,1.9,2.3,3-.3-.7-.7-1.3-.9-1.7l6.8-4.6c2.9,3.2,5.2,6.4,7.4,9.6l.8,1.1,6.6-4.7,8.6,8.8c.2-2.5.7-4.9,7.1-6.9l2.5-.8,1.8,1.8c.6.6.9.9,1.3,1.1.3-1,.8-1.7,1-2.1l1.9-2.6,3.1,1.3c5.3,2.3,6.5,7.2,5.8,13.2l2.9-4.2,3.5,4.4c.3.5.6.7.7.9l.8-1.4,1.6-2.9,3.1.8,14.1,3.8,3.4.9-.3,3.5-.7,7.3c2.2-.8,4.4-1.5,6.3-1.7,2.6-.3,5.2,0,7.1,1.3,2.3,1.4,3.9,3.5,4.5,6.9.6,3.8-.5,9.4-4.1,17.4h-.1c0,.1-39.6,81.5-39.6,81.5-1.4,6.6.7,11.6,2.7,16.3,1.1,2.5,2.2,4.9,2.9,7.8,1-1.5,2.1-3.2,3.1-4.9,1.5-2.3,2.9-4.8,4.4-7.4l-5.7-1.6v-.6c.3-1.9,8.1-25,17.4-47.9,9.5-23.5,20.8-47.3,28.3-50.6.6-.2,1.1-.5,1.7-.6h1.7c0,.1.3.2.3.2h.1c.7.2,2.3.8,4.6,1.6l4,1.5c-15-12.5-28.2-30.9-41.2-49.5-21.2-29.9-42.5-60.1-70.5-62.1-25.3,2.4-52.7,30.9-80,59.3-8.7,9.7-18.1,19.6-27.6,28.4M368.6,650.4c10.6-8.7,22.6-19,34.8-29.7,15.5-13.4,31.6-27.4,47.2-40-1.5.6-3,1.1-4.6,1.6-13.4,10.2-31.6,26.8-49.1,42.7-10,9-19.7,17.9-28.3,25.3M236.9,788.1h.3-.3ZM234.7,792.2c-.1-.1-.5-.2-1.9-.1-.3,0-.7.1-1,.1-.3,1.1-.7,3-1.4,6v.3c-.7,2.5-.7,3.8-.7,4.5h0c.1,3.7,0,3.8-5.5,8.1l-4,3.1-2.3-4.5c-3.8-7.3-6.4-29-7.1-45.1-.1-3.2-.1-6.1-.1-8.7s.1-5,.3-6.9h0c0-.1.2-2.1.2-2.1l1.6-1,99.7-62.6c8.5-6.2,16.3-12,23.8-17.6,7.6-5.7,14.8-11.4,21.9-17.5,9.4-7.9,21-18.4,32.7-29.1,17.9-16.3,36.4-33.2,50.3-43.5h0l1.3-.7c22.9-7.1,47.3-32.4,71.7-57.7,28.5-29.7,57-59.2,85.4-61.9h.9c32.2,2.2,54.6,34,77.1,65.6,16.5,23.2,32.9,46.4,52.1,56.2l58.2,22.7c28.9,7.4,39.5,15.5,51.2,24,7.4,5.5,15.3,11.3,28.9,17.5,8.1,3.7,11.9,7.3,16.5,11.7,1.9,1.8,4.1,3.9,6.9,6.3,10.4,8.7,19.2,12,28.7,15.6,7.3,2.9,15.1,5.8,24.6,11.4l76.5,44.2c15.7,7.3,15.5,9.4,13.3,26.6-.2,1.8-.5,3.8-.6,5.2l-.7,5.4-4.8-1.9,1,.9c1.3,1.1,1.9,1.8,2.6,2.7h0c1.3,1.8,1.5,3.2,1.9,6.8v.9c.1,0,1.1,6.6,1.1,6.6l-5.8-1.9c1.1,1.6,2.1,3.4,2.6,5.6l1.6,6.1-5.3-.8c1.5,2.4,2.3,5.5,2.5,9.8l.6,8.7-1-.8v2.3c0,11.7,0,18.4-14.4,20.4-6.1.8-16.1-.1-24-.9-1.7-.1-3.5-.3-5.7-.5h-.2c-4.6-.3-9.4-.6-14.3-.9-9.4-.5-19.3-.9-28.4-2.2-4.7-.6-9-1.4-12.8-2.4-5.3-1.4-7-2.5-7.1-4.6-.7-.6-1.3-1.4-1.7-2.3l-1.4-2.1c-2.2-6.5-7.1-12-13.1-18.4l-.7-.8h0l-20.7-22.8c.5,1.6.8,3.4,1,5.5l1,8-7.1-3.9c-1.3-.7-2.5-1.5-3.8-2.5l2.2,4.8h-5.6c0,.1-1.4,3-1.4,3l-1.6-2.9c-4.4-.2-5.3-1.6-8.2-6.1-1.4-2.2-3.7-5.5-8-10.5h0l-2.2-2.5c-7.2-8.4-18.4-25.1-27.1-38.9-1.6-2.4-3.2-5-4.7-7.7-1.4-2.2-2.6-4.5-3.9-6.5l-12.7-20.3c-.8-.9-1.3-1.7-1.7-2.4-.5-.2-1-.5-1.6-.8l-1.9-.9-.3-2.2c-.6-4.1-.9-6.4-1.3-8-.6-3.3-.7-4.7-.7-5.7.1-1.3.5-1.8.9-2.7h0c.6-1,1.9-3.5,4.1-19.6.7-5.8,1.6-7.7,2.9-10.2h0c.8-1.6,1.7-3.4,2.9-7.7.5-1.8,1.1-3.9,1.8-6.1h0c.7-2.2,1.3-4.2,1.7-6.2-1.5-.6-2.7-1.1-4-1.8-7.2-3.1-14.4-6.3-20.5-7.9h0c-1.6-.5-3.3-.8-5.2-1.3-4.1-.9-8.6-1.9-11.7-3.2h0c-3.7-1.5-5.5-3-7.7-4.6-1.4-1-2.6-2.2-4.6-3.2-2.6-1.5-27.2-10.5-42.9-16.1-2.9-1-5.6-1.9-8.1-2.9l-3.1-1c-5.2,3.8-14.8,24.7-23.2,45.7l-1.6,4c.3-.3.5-.6.7-.8h0c.2-.3.6-.5.9-.9h0l1.1-1,6.9,3.9c-2.5,11.1-15.1,37.4-25,53.7h0c-1.9,3.2-3.8,6.2-5.5,8.4-1.8,2.4-3.5,4.4-5,5.5h-.1l-4,3.2-2.2-4.6c-2.6-5.4-2.2-7-1.3-8.6-.5-2.6-1.6-5.2-2.6-7.9-.8-1.7-1.5-3.4-2.2-5.3l-4.7,3.2c6.3,9.8,10.8,17.7,12.1,23.2h0c0,.1-6.4,4-6.4,4,3.2,6.1,5.7,11.6,7.3,16.6h0l2.7,9-8.5-4h-.3c1.4,3.1,2.7,6.6,4,10.8l-6.1,4.8c-1.7-1-3.1-1.9-4.5-3.2,6.3,9.5,11.4,17.7,14.2,23.5h0l-6,5.3c-1-.6-2.1-1.4-3.1-2.3,2.6,4.9,5.2,10,7.2,15.7l-6.2,4.8c-.8-.6-2.6-2.5-5.2-5.5,2.5,5.4,4.2,9.7,4.6,13.1v.2l.8,7.7-6.9-3.5-1.7-1c1.7,3.5,3.3,7,4.8,10.2,1.3,2.9,2.5,5.6,3.3,7.9.9,2.4,1.6,4.4,1.8,5.6v.2l1.6,9-7.8-4.8c-1.6-.9-8-9.6-16.6-21.8-.1.7-.5,1.6-1.3,2.7-.6,1.3-1.1,1.4-2.3,1.7-.2.1-.9.3-2.9,1.4l-4.8,2.7-1.3-5.4c-1.6-6.5-17.9-29.5-25.5-40.5h0l-2.9-4.1h0l-37.4-53.2c-.3,2.3-1.6,4.6-3.9,7.3,5.5,7,6.5,10.3-.2,17.7l-.7.8c1.3,1.8,2.5,3.5,4.2,6,.9,1.4,1.6,2.3,2.2,3.1,2.9,3.9,4.8,6.6,6.3,12.7l1.4,6-6.1-.9h-.9c3.9,5,7.2,9.5,10,12.9,3.7,4.7,6.2,7.6,6.8,7.9h0l3.2,1.8-1.4,3.4c-.3.8-.5.9-.5.9.5,1.4.7,2.3-.5,4h0c-.8,1.4-1.7,1.7-4,2.5l-1.3.5h-2.7c-8.9-2.9-12.1-2.7-16.6-2.6-2.2.1-4.6.1-7.7,0-2.6.8-4.2-.3-5-1.4-.7-.7-.9-1.5-1-2.1h0c0-.1-.7-4.2-.7-4.2h-12.1l-2.6-7.2.7-.6c-4.5-1-7.1-2.6-9.5-4.1-3.3-2.2-6.1-3.7-18.4-.3l-2.6.7-1.7-2.3c-.3-.3-.6-.6-.6-.7-1.3-1.4-1.8-2.1-.9-4.5h0c0-.1.1-.2.1-.2-1.6-.1-3.2-.3-4.2-.5h-.9c0-.1-6.5-2.3-6.5-2.3-6.3-2.1-6.8-2.1-10.6-1.6-1.4.1-3.2.3-5.5.6l-2.2.2-1.4-1.7-3.1-3.8c-1.1,3.7-5.4,6.2-14.2,8.1-9.7,2.1-12.8,3.7-16.3,5.5-2.5,1.3-5.4,2.9-10.4,4.6l-7.7,2.5,2.3-7.7c.2-.8.6-1.6.9-2.4l-7.1,3.5-8.4,4.2,2.5-9,.9-3.2c0-.5.1-.9.2-1.4-2.7,1.3-5.3,2.5-7.3,3.2h-.2c0,.1-4.5-6.6-4.5-6.6,4.8-4.9,8.7-8.4,12-10.9l-3.8-6.2c2.9-3.2,5.4-5.4,8.4-7.3,2.5-1.6,5.4-3.1,9.2-4.7l.3-1.9c-2.6,1.6-5.3,3.3-7.9,5.2-7,4.6-14.1,9.3-21.5,12.3h-.1c0,.1-3.1-7.6-3.1-7.6,1.4-.6,3-2.1,5-3.9,4.6-4.2,11.1-10.3,25.1-16.3,12.3-5.3,11.8-7.2,10.5-12.1-.9-3.7-2.2-8.2-1.9-14.9.1-2.3.1-4.4.1-6.5.2-12.6.5-24.7,6.6-35.1,4-6.8,6.9-7.9,10.6-9.4,1.6-.6,3.4-1.3,5.6-3,1.6-1.3,3.2-3.1,4.7-4.8,2.3-2.7,4.7-5.5,8-7.4,4.5-2.6,7.1-3.2,9.3-3.7,1.9-.3,3.3-.7,7.7-4.7,1.6-1.6,3-3,4.2-4.4,2.4-2.6,4.6-5.2,8.5-7.9,11.2-8,12-9.4,15.5-15.1,1.5-2.5,3.5-6,7-10.9,4.8-7,10.2-10.6,15.7-14.4,3.9-2.7,7.9-5.5,11.7-9.6,3.4-3.9,6.5-6.9,9.2-9.3-.7.1-1.4.1-2.1,0-1.9,0-3.7,0-14.2,7.4-6.1,4.2-8,4.5-10.2,4.7-.9.1-1.9.1-5.2,2.1-15.8,9.2-34.3,23.6-53.4,39.4l5,4.6c-1.8,4.7-28.2,27.5-46.1,42.8l4.8,4.5c-2.1,4.6-9.3,11.7-17.4,18.9l1.7-1.1c.9-.6,1.4-.9,2.1-1.3.9-.6,1.8-.8,4-1.6l1.4-.6,5.2,5.7c-7.9,15.6-112.1,85.1-150.9,111.1-4.6,3.1-8.1,5.5-10.9,7.2v.2c-.1,2.3-.1,3.2-2.6,4.4-2.4.9-3.1.5-4.5-.5M231.9,783.9c.6,0,1,0,1.6-.1v-.3l1.6-1h0c1.8-1.3,6.5-4.4,12.5-8.4,7-4.7,16.1-10.8,26.4-17.7-6.4,3.8-12.1,7.1-17.2,9.5l-4.5-6.2-.3-.3h.1c4.9-5.2,15.1-11.9,24.6-18.1l4.4-2.9-1.5.8-4.2-7.1,28.3-21.4-4-7.1,10.6-7.2h0l1.3-.9c6.4-4.8,14.5-11.1,22.3-17.2-5.2,3.9-10.5,7.8-16.3,11.9h-.2c0,.1-98.1,61.7-98.1,61.7-.1,1.3-.1,2.6-.1,4.2,0,2.4,0,5.3.1,8.4.3,10.1,1.6,22.2,3.2,31.1,1.3-5.4,1.8-7.7,2.7-9,1.7-2.6,3.1-2.6,5.4-2.5h1.3v-.2Z"
          style="fill: #a49e9d; stroke-width: 0px;" />
      </g>
    </g>
    <g style="opacity: .2;">
      <g style="clip-path: url(#c);">
        <path
          d="M657.5,853.9v-1.4c.1,0,0,0,0,0-.8.2-1.5.3-2.3,1.4h.6c0,.1,1.7,0,1.7,0h0ZM621.5,550.6c.7-2.1,1.5-3.8,2.1-5.3-.9.6-1.9,1.1-3.2,1.7.3,1,.7,2.2,1.1,3.5M617,563.3c.5-1.7,1-3.4,1.7-5.2l-2.7-1.4c-.7-.3-1.5-.7-2.2-1.1,1.4,2.6,2.4,5.3,3.2,7.7M618.2,584.7c.5-1.3.9-2.4,1.4-3.5l-2.9-.5c.6,1.3,1,2.6,1.5,4M615.9,595.8c.1-2.2.3-4.4.9-6.5l-3.2,2.2c.7,1.5,1.5,3,2.3,4.4M628.1,587.2c.5-3,.9-6,1.6-8.8-4.7,10.5-7.3,16.7-3.5,28.7,2.3-4.8,5-11.9,6.8-18.5l-4.8-1.4h-.1ZM637.8,667.6c-.1-2.6,0-5.4.8-8.5l.3-.9,39.8-81.9c2.9-6.3,3.7-10.4,3.4-12.7-.1-.6-.2-.9-.3-.9-.3-.2-1.1-.2-1.9-.1-3.2.3-7.1,2.3-9.6,4.5l-7.7,6.1,1-9.7,1.3-11.9-7.6-1.9-6.5,11.8-6.2-2.3c-1.1,2.5-2.1,5.2-3,7.8h0c-.2.7-.5,1.5-.7,2.3l1.6,3.3h0c.7,1.6.9,3.7.9,6-.1,1.9-.5,4.2-.9,6.8-2.5,12.4-10.2,30.7-14.8,34.2l-4.2,3.2-2.2-4.9-.2-.5-2.5.8c6.1,10.1,11.2,20.4,14.2,30.9l-3.5,1.7c3,5.4,6.2,11.2,8.5,16.9M812,786.8c1.9,3,4.5,6.5,7.2,9.5-2.3-2.9-4.7-6.2-7.2-9.5M778.6,778.3v1.7c.6.9,1.8,2.5,4.8,5.6-1.6-2.4-3.2-4.8-4.8-7.3M764,742.7l-.3.5c.2.9.3,1.4.5,1.7v-2.2h-.2ZM736.4,857.5l-1.6,1.4c.3.5.7.9.9,1.4l.3-1.6.3-1.1h0l.1-.1ZM738.3,847.2c-.3.1-.7.3-.9.6l.7,1.1.2-1.7h0ZM696.7,850.4c-2.2,1.1-4,1.6-5.6,1.9h0c-2.1.5-3.7.9-6.1,5.2l.3,1.6c.6,2.5,1.4,6.5,2.9,10.1.6,1.5,1.3,2.9,1.9,4,.7-1.4,1.3-3.1,1.9-5,1.7-5.3,3.3-11.7,4.6-17.7M685.6,843.4c-1.1,0-2.2-.1-3.2-.5,0,.5.1.9.2,1.4l3-.9ZM696.2,832.3c-1.4.9-2.7,1.6-4.2,2.2,1-.1,1.9-.3,3.2-.3l1-1.8h0v-.1ZM665.3,842.2l.3-2.5c.7-5.4,1.3-10.9,1.8-16.4l.5-5.3,5,1.7c4,1.4,5.2,3.1,6.1,4.7h.1c4.6-5.6,8.8-10.8,15.2-14.1l5.6,5.6-2.9,5.3c4.2-4,8.5-9.3,11.9-13.7h0c1.6-2.2,3.2-4.1,4.5-5.5l6.8,4.8-12.8,22.6h.7c1.7,0,3.5.1,5.4.1,3.5,0,7.1,0,10.5-.2.5,0,1.4-.1,2.3-.2h1.8c1.8-.2,3.5-.5,3.9-.5,4.5.1,6.4.3,7.8.9.2-4,.3-7.8.3-11.2-1.3,1.3-2.3,2.4-3.2,3.4-.5.9-.9,1.7-1.3,2.6l-7.8-2.9c.2-.8.7-1.8,1.4-2.9,1.5-2.6,3.1-5,4.6-7.2,1.4-2.1,2.7-4,3.9-6.2-.9,1.1-1.9,2.5-2.9,3.9-2.9,4.1-6.1,8.7-9.4,11.6l-6.4-5.2c2.3-4.1,4.8-7.8,7.2-11.7,2.6-4,5.2-8,7.7-12.5s4.6-7.7,6.2-10.1l.9-1.4c-.9,1.3-1.9,2.5-2.7,3.7-2.2,2.9-4.5,5.5-6.8,8l-7-3.9v-.2c.5-1.4,1.5-3.5,3-6.4,1.4-2.7,3.2-6,5.3-9.4,10.6-18.3,29-46.6,36-54.6h.1c0-.1,3.5-3.8,3.5-3.8l7,3.9h0c-.3,1.3-.9,2.6-1.5,4s-1.4,2.9-2.1,4.4c-2.6,4.9-6.3,10.6-9.6,14.8l3.5,1.4c6.3,2.4,9.4,8.4,11.9,15.3h5.2c1,.1,1.9.2,3,.3-.3-.6-.7-1-.9-1.6h0c-10.6-18.9-5.4-23.2,1.3-29,1.9-1.6,3.9-3.3,5.3-5.8,2.1-3.7,1.5-5.2.7-7.1-.9-2.1-1.8-4.4-1.9-8-.6-7.2,1.1-10.1,2.6-12.6.7-1.3,1.3-2.3,1.1-4.6-.7-4.4-.9-6.4-1.3-7.8-.5-3.3-.7-4.6-.6-5.7.1-1.4.3-1.8.9-2.7h0c.6-1,1.9-3.5,4.1-19.6.7-5.8,1.6-7.7,2.9-10.1h0c.8-1.6,1.7-3.4,2.9-7.7.5-1.7,1.1-3.9,1.8-6.1h0c.7-2.2,1.3-4.2,1.8-6.2l-4.1-1.7c-7.2-3.2-14.4-6.4-20.5-8h0c-1.6-.5-3.3-.8-5-1.3-4-.9-8.6-1.9-11.7-3.2-3.7-1.6-5.6-3.1-7.7-4.7-1.3-1-2.7-2.2-4.7-3.2h-.3c-.9-.6-2.7-1.3-5.2-2.2s-5.5-2.2-8.7-3.3c-14.7-5.5-35.4-13.1-40-14.5-5.2,3.5-14.8,24.7-23.4,45.8l-1.6,4c.3-.3.6-.7.7-.9l.9-.9h0l1.3-1,6.9,3.9h0c-.5,2.4-1.4,5.2-2.6,8.5-1.1,3.2-2.6,6.8-4.2,10.4-8.5,19.1-22.3,43.9-28.6,48.8l-4,3.1-2.2-4.6c-2.6-5.4-2.2-7-1.1-8.6-.5-2.5-1.6-5.2-2.7-7.8-.7-1.7-1.5-3.5-2.2-5.4l-4.8,3.1c6.4,10,10.9,18,12.3,23.4l-6.4,3.9c3.2,6.1,5.8,11.6,7.3,16.7l2.7,9.2-8.8-4.7h-.2c1.4,3.1,2.7,6.6,4,10.8l-6.1,4.8c-1.7-.9-3.1-1.9-4.4-3.1,6.2,9.5,11.4,17.7,14.1,23.5l-5.8,5.3h0c-.9-.6-2.1-1.4-3.1-2.3,2.6,4.8,5.2,10,7.2,15.7l-6.2,4.9h0c-1-.7-2.7-2.5-4.9-5.2,2.5,5.3,4.1,9.7,4.5,12.9l.7,7.4-6.6-3.3h0c-.6-.3-1.1-.7-1.7-.9,5.2,10.5,9.4,20.4,10,23.7l-6.3,4.1h0c-4.2-3-36.3-50.5-57.1-81.1l-.6-.7-6.4,3.5c-12.6-22.3-13.4-23.1-14.4-24-1.1-1-2.5-2.4-9.3-13.4-4.6-7.4-11.8-18-19.6-29.3-15.9-23.4-34.6-50.6-40.2-65.7h0c0-.1,6.8-4.6,6.8-4.6,3.8,3.7,31.5,43.9,52.7,74.4,9.2,13.2,16.9,24.5,21.3,30.8h0c2.7,3.8,8.8,12.8,16.6,24.4,9.5,14,21.4,31.5,31.6,46.5-.8-1.4-1.5-2.7-2.2-4-1.6-2.7-3-5.2-4.4-7.2-1.3-1.8-2.3-3.2-3-3.9h-.1c0-.1,4.9-6.8,4.9-6.8,4.2,2.4,7.8,7.1,11.4,12.3v.3c-10.9-19.3-31.6-47.7-49-71.6-10.6-14.5-20-27.5-25.4-35.8v-.2h-.1c-2.2-3.3-4.5-6.9-7.3-11.2-13.9-21.2-37.6-57.5-42.4-69.2h0c0-.1,7-4.4,7-4.4,3.7,4.4,7,9,10.3,13.9-.8-1.4-1.4-2.7-2.2-4.1-1.4-2.7-2.7-5.4-3.9-7.8s-2.2-4.6-2.7-6.2h0c0-.1,7-4.2,7-4.2,3.8,4.5,9.7,12.8,16.7,22.9l-1.3-2.3c-2.1-3.9-3.8-7.3-5-10.2h0l6.9-4.4c8.4,9.2,15.8,21.3,23.1,32.7l4.2,6.8h0c9.8,15.5,32.6,49.6,50.3,74.2,3.3,4.7,6.6,9,9.6,12.9,1.9,2.5,3.8,4.9,5.4,6.9-2.7-4.2-4.9-7.8-6-12l7.9-2.5c.2.5,1.3,1.8,2.6,3.5-8.8-15.1-21.8-32.9-34.6-50.1-11.7-16-23.4-31.8-31.6-45.6h0c-1-1.8-2.6-4.4-4.5-7.3-7.1-11.4-17.5-28.6-20.4-35.6h0l6.8-4.5c1,.9,2.1,2.2,3.3,3.7-3.5-6.3-6.6-12.5-9.4-18.3h-.1c0-.1,6.3-5,6.3-5,6.6,5.2,21.1,27.9,37.2,53.4,11,17.3,22.8,36,33.3,50.9l-1.3-1.9c-2.2-3.4-4.1-6.6-5.7-9.5h0l5.8-4.9c-5.5-10.2-12.3-20.2-18.5-29.5-9.4-14-18.1-26.9-21.6-38.2h0l6.8-4.2c.5.5,1,1,1.6,1.7-6.5-10.8-12.3-20.7-14.9-28.2v-.2c-.1,0,6.4-4.5,6.4-4.5,1.7,1.4,3.4,3.1,5.2,5.2l-.3-1.1h0l7.1-4c.8,1,1.6,2.1,2.4,3.1-.3-.6-.6-1.1-.9-1.6h0l6.9-4.6c2.9,3.2,5.2,6.4,7.4,9.5l.8,1.1,6.6-4.7,8.6,8.8c.2-2.6.7-4.9,7.1-7l2.4-.8,1.7,1.8c.6.6.9.9,1.3,1.1.3-.8.7-1.5.9-1.9h0l1.9-2.9,3.2,1.4c5.3,2.3,6.5,7.2,5.8,13.2l2.9-4.4,3.5,4.5c.3.5.6.7.7.8l.8-1.4,1.6-2.7,3.1.8,14.1,3.8,3.4.9-.3,3.5-.8,7.3c2.1-.9,4.4-1.6,6.3-1.7,2.6-.3,5.2,0,7.1,1.3,2.3,1.4,3.9,3.5,4.4,6.9.6,3.8-.5,9.4-4.1,17.4h-.1c0,.1-39.6,81.5-39.6,81.5-1.4,6.6.7,11.6,2.7,16.3,1,2.5,2.2,5,2.9,7.9,2.3-3.3,4.8-7.7,7.4-12.5l-5.7-1.6v-.6c.3-1.9,8.2-24.8,17.5-47.9,9.5-23.5,20.8-47.2,28.3-50.6.6-.2,1.1-.3,1.7-.6h1.3c1.1.1,26,9,42.7,15.2,3.4,1.3,6.4,2.4,8.8,3.3,2.5,1,4.4,1.7,5.5,2.3h.1c0,.1.6.5.6.5h.2c2.5,1.5,4.1,2.7,5.7,4,1.6,1.3,3.2,2.5,5.7,3.5,2.4,1,6.5,1.9,10.3,2.7,1.9.5,3.9.9,5.4,1.3h.1c6.6,1.7,14.2,5,21.6,8.4,2.6,1.1,5.3,2.3,7,3h.1l3,1.3-.5,3.2c-.6,3.5-1.6,6.8-2.7,10.3-.5,1.7-1,3.4-1.7,5.8-1.3,5-2.4,7.2-3.3,9.2-.9,1.7-1.6,3.1-2.2,7.6-2.2,16.7-4.1,20.7-4.9,22.3,0,.6.2,1.5.6,3.4.3,2.3.8,5.4,1.3,8.1v.2c.3,4.9-.9,7.1-2.2,9.4-.9,1.6-1.8,3.3-1.6,8,.1,2.4.9,4.1,1.4,5.5h0c1.6,4,2.9,7-1,14.1-2.1,3.8-4.7,6.1-7.1,8.1-3.8,3.2-6.8,5.7.6,18.7,2.2,3.9,9.3,13.1,16.5,22.6,10.2,13.2,20.8,27.1,21.8,31.6v.2l.8,4.1-4.1.7c-4,.7-7.9-.6-11.4-3.1l-4.2,4.7-1.9-.9c-1.6-.8-3-1.5-4.2-2.2.3.8.7,1.5.8,2.2v.2l2.2,8-7.7-3.2c-5.7-2.3-13.2-10.2-17.2-14.4l-.8-.9-1.3-1.3c-9.5-10-12.8-13.4-14.1-15.8h0c-1.1-1.9-1.1-3-1.1-4.7s.1-4.5-5.2-15.6c-1-2.2-2.3-4.5-3.4-6.8-.5-.8-.9-1.7-1.8-3.4-1.4-2.6-1.9-3.4-2.3-3.9s-.6-.8-.9-1.4c-4.2,6.5-8.6,13.5-12.4,19.8,10.1,6.3,9.7,6.8,3,17.3-.8,1.3-1.8,2.7-2.9,4.5l3.5-1.1.2,5.5c.1,4.1-.3,7.3-1.3,10.3l1-.5.5,5.7c.8,12.8-.6,34.2-4.1,50.4-.7,3.2-1.5,6.2-2.3,8.9-.9,2.7-1.8,5.3-3,7.3v.2c-.1,0-2.7,5.2-2.7,5.2l-4.1-4.2c-4.4-4.5-3.5-9.8-3-12.3-.3-1-1.1-2.1-1.9-3-.5-.6-.9-1.1-1.4-1.8h0c0-.1-.7-1.1-.7-1.1-7.6,3.3-11.2,4.9-17.4.3l-3.2-2.3,2.2-3.2c5-7.9,12.1-9.6,18.7-11.3,4.6-1.1,8.8-2.2,10.6-6.3-.7-.1-1.9-.2-4.1-.2l-3,.3-1.8.2c-1.3.1-2.3.2-2.6.2-3.5.2-7.3.3-11.1.2-1.9,0-3.8,0-5.5-.1h-.5c-1.4,8.5-4.1,22.9-7.4,33.2-.8,2.4-1.6,4.6-2.5,6.5-.9,2.1-1.9,3.8-3,5h-.1c0,.1-2.1,2.4-2.1,2.4l-2.7-1.3h-.2c0-.1-.1-.1-.1-.1-4-1.9-6.8-6.3-8.6-11-1.7-4.1-2.7-8.7-3.3-11.6-.3-2.2-.6-3.9-.6-3.9l.5-1.8.6-1.3-1.1-2.4c-3.2-6.5-2.9-8.9-1.8-14.7v-1c.1,0,.7-3.3.7-3.3l-.5-.2c-.3,3-.7,5.8-1,8.7-.7,5.5-1.6,10.6-2.5,15.1l-4.7-1c.2.8,0,2.2-.6,4-.1.5-.3.8-.6,1.1.1,2.9.3,6,.3,9,.3,10.6.6,20.7-1.9,24.4-1,1.4-2.2,2.2-3.4,2.4-1,.7-2.4.9-4,.6-3-.7-6.4-4.6-10.1-8.8-3.7-4.5-7.9-9.5-8-9.5l-2.5,1.7-2.3-1.9c-6.2-4.8-6.2-5.4-6.3-11,0-1.4,0-3.3-.3-6.2l-.3-2.6,2.3-1.4,9.3-5.5,4.2,7.1-7.1,4.2c.1,1.8.1,3.1.1,4.2s0,2.1,1.5,3.4c5.2-.2,10.8,6.3,15.7,12l2.9,3.3.3-1.4,1.8,1.3c.2-3.7,0-9.8-.1-16.1v-3.1c-.5.3-.7.8-1,1.3l-7.1-4.1c.5-.7.9-1.5,1.4-2.1l-2.5-.6-4.6-1,1.6-4.5c3.3-9.3,6.4-10.1,10.3-11,1.3-.3,2.7-.7,4.5-2.3.9-1.4,2.2-2.4,3.8-2.6l1.4,2.5h0l-.8.5Z"
          style="fill: #a49e9d; stroke-width: 0px;" />
      </g>
    </g>
    <path
      d="M751.8,837.6c6.8,1,14.1,1,18.8,3.8-5,5.3-10.5,4.1-17.6,8.4,1.8,2.5-2.2,6.9,15.5,3.2-6.5,8.6-16.3,7.4-4.4,21.9,8.6-3.8,8.1-18,12.4-36.4,5.2,1,5,4.8,17.3,6.8l-3.5,2.2c-10.6,6.4-6.6,1.4-9.3,10.2l11.8-.9c-6.4,6.8-11.4,7.2-2.2,14.9,7.3-12.7,2.6-9.8,7.9-22.6.2-.5.6-1.3.9-1.7,7.4,1.8,1.5-.3,5.4,1.4,7.6,3.4,2.4.7,5.8,3.9l-8.8,1.3,1.6,15.9c7.1-1.5,2.1,2.2,6.3-8l4.9-13.9c3.7,3.9,3.2,4.8,8.8,7.4-2.1,5.5-1.6.6-5.2,8.1,3.9,5.7,2.9,7.3,7.2,10.8,2.6-8.8,4.4-23.5,7.9-31.6.5,0,1,0,1.3.5.1.5,1,.3,1.3.5,6.5,1.6,6.4,1.3,17.7-5,5.8-3.3,16.7-8.7,21.3-12.9-14.8,3.2-41.3,13.5-55.2,19.5,7.4-9.8,27.2-14.2,37.3-21.5l2.7-2.4c-10.9,1.7-28.7,9.3-40.5,13.5-1.7.6-4.6,1.7-6.2,2.2-6.3,2.2,3.8,1-6.1,1.8,11.3-7,26.1-15.2,39.8-22.3-10.3-.2-44.9,16.4-52.9,17.4l32.5-18.9c-12.1.5-24.8,7.3-36.1,11.4-11,4-26-2.2-38.6,11.4"
      style="fill: #a49e9d; fill-rule: evenodd; stroke-width: 0px;" />
    <path
      d="M823.9,861.6h-.2c-.1.2-.3.3-.8,1.4l.6.9.5-2.3h-.1ZM814.5,842l2.9,3.1c1.1,1.3,1.8,1.9,2.3,2.6,1.3,1.5,1.9,2.3,5.3,3.9l1,.5c.5-2.1.9-4.1,1.6-6-2.4,1-4.6,1.8-6.5,2.7l-4.9-6.4h0c.5-.6,1-1.1,1.6-1.7-1,.5-2.1.9-3.2,1.3M806.7,857.1h-.6c0,.1.1,1.4.1,1.4l.5-1.4h0ZM783.7,831.7c3.3,1.6,6.8,3.4,10.3,5.5l-2.4-7.1h.2c0-.1-.1-.1-.1-.1-2.6,1-5.3,1.5-8,1.7M804.9,844c2.2.3,3.3,1,3.9,1.9l1.1.5.5.2h0c0-.1,1.5-4.2,1.5-4.2h-.8c-.5,0-1.4.1-4,.3l-.2-.9c-4.5-.9-9.3-2.6-1.9-6.2v-.6h-.1l1.8-1c-4.9,1.8-8.9,3.2-11.6,3.7,3.2,1.8,6.5,4,9.8,6.3M779.4,848.8c.8-.9,1.5-1.3,2.9-1.8M782.2,846.9l.8-.3M793.4,850.1l-1.1.7c-1.4.8-2.4,1.5-3.3,1.9l3.4-.2.2.3c.1-.8.3-1.7.8-2.7M782.9,846.5c-1.5-.7-2.6-1.4-3.7-2.1M779.2,844.5c-.5,2.3-.9,4.5-1.3,6.5M768.1,859.2c-.9.8-1.8,1.6-2.7,2.3-2.2,1.7-3.7,3-.7,7.4,1.5-2.1,2.5-5.5,3.4-9.7M770.3,847c-1.5,1-3,1.7-4.5,2.3l1.6-.3,1.9,3.1v-.3c.3-1.5.7-3.1.9-4.7M762.5,834.9h.2c3.4.5,6.8,1.4,9.6,2.9v-.2l.9-3.9,1.3.3c-.7-.6-1.3-1-1.8-1.5-3.4.2-6.9.8-10.2,2.4M759.1,842.8c-2.6-.3-5.7-.7-8-.9l-7.7-1.3,5.3-5.7c9.4-10.2,19.6-10.8,29-11.1,4.1-.2,8-.3,11.1-1.6,2.5-.9,5.4-2.1,8.4-3.3,9-3.8,18.7-7.8,28.4-8.2h.6l1.8,6.3c6.8-2.4,12.9-4.2,17.1-4.7h0c.6-.1,1.3-.1,1.7-.1l1.7,7.4c3.8-1.1,7.3-2.1,10.3-2.5h.1l3.2,7.2-.6.5c1.7-.6,3.3-1,4.8-1.5,2.4-.7,4.8-1.3,7.1-1.7h0l3.8,7.1c-3.9,3.7-11.6,7.8-17.6,11.1-1.6.8-3,1.6-4.4,2.4h0l-2.5,1.5c-9.6,5.4-10.4,5.8-17.1,4.2-1.4,4.2-2.5,9.7-3.5,15-.9,4.6-1.8,9-2.9,12.6h0c0,.1-1.7,6.1-1.7,6.1l-4.8-3.8c-3.4-2.7-4.2-4.5-5.4-7s-1.3-2.7-2.6-4.7l-1.4-1.9,1-2.2c1.3-2.5,2.2-4,2.9-4.9-.5-.3-.8-.6-1.1-.9h-.1l-2.5,7.2v.2c-1.6,3.5-1.8,4.9-1.9,5.7-.1,1.1-.2,1.7-1,2.6-1.3,1.6-2.1,1.6-3.8,1.7h0c-.5,0-1.3,0-2.7.3l-4.5.9-.5-4.6-.6-5.8c-.7,2.2-1.9,4.9-4.5,9.4l-2.5,4.2-3.8-3.1c-7.1-6-8.1-9.4-5.8-13.1h-.8l-5.2.3c-1.8,8-4.2,13.9-10.4,16.5l-2.9,1.3-1.9-2.4c-8.8-10.8-8.2-15.1-4.4-19-5.7-.3-6.3-3.2-7-6.1,0-.1.1,0,.1,0h0c0-.1-2.6-3.8-2.6-3.8l3.9-2.3c3.3-2.1,6-3,8.5-3.7"
      style="fill: #a49e9d; stroke-width: 0px;" />
    <g style="opacity: .2;">
      <g style="clip-path: url(#d);">
        <path
          d="M872.7,783.2c3.4,1.5,3.9,3.1,7.1,6.6,3.3,3.8,3.5,3.5,7.9,7.7,7.8,7.7,8.8,8.1,18.1,13.4-5.3-7.7-4.9-4.6-9.4-14.8,11.2,5.5,12.1,11.1,27.9,20.2-2.4-7.8-8.1-13.7-14.7-20.8l-25.2-27.5c-3.5-3.9-5.3-4.6-9.2-8.5-18.4-18.3-56.3-85.4-64-107.6,2.5,20.8,37.7,83.5,49.9,99.8,7.8,10.4,19.7,14.1,21.5,29.8-11.7-6.4-22.9-28.1-31.3-37.7-29.7-34.6-24.5-42.7-42.7-68.8,3.3,10.6,6.9,21.3,12.6,30.9l15,26.8c15,26.7,13.7,13.6,32.7,44.2l2.9,4.8c-.2-.7.3.8.7,1.5"
          style="fill: #a49e9d; fill-rule: evenodd; stroke-width: 0px;" />
      </g>
    </g>
    <g style="opacity: .2;">
      <g style="clip-path: url(#e);">
        <path
          d="M872.7,783.2c3.4,1.5,3.9,3.1,7.1,6.6,3.3,3.8,3.5,3.5,7.9,7.7,7.8,7.7,8.8,8.1,18.1,13.4-5.3-7.7-4.9-4.6-9.4-14.8,11.2,5.5,12.1,11.1,27.9,20.2-2.4-7.8-8.1-13.7-14.7-20.8l-25.2-27.5c-3.5-3.9-5.3-4.6-9.2-8.5-18.4-18.3-56.3-85.4-64-107.6,2.5,20.8,37.7,83.5,49.9,99.8,7.8,10.4,19.7,14.1,21.5,29.8-11.7-6.4-22.9-28.1-31.3-37.7-29.7-34.6-24.5-42.7-42.7-68.8,3.3,10.6,6.9,21.3,12.6,30.9l15,26.8c15,26.7,13.7,13.6,32.7,44.2l2.9,4.8c-.2-.7.3.8.7,1.5h.2Z"
          style="fill: none; stroke: #a7a8ab; stroke-miterlimit: 2.6; stroke-width: 7.9px;" />
      </g>
    </g>
    <path
      d="M486.3,829.4l-13.7-3.5c2.1,2.9,8.7,5.7,13.9,11.7-15.1-4.2-16.6-12.6-13.5,6.2,1.4,8.2-1.7,18.3,11.3,27,9.4-14.2,6.8-25.4,8.4-44.5,9.7-6,25.4-10,33.8-17.2-7.9,5.2-33.2,4-38,14.7l-1.4,4.1c-.2.5-.5,1.1-.7,1.6"
      style="fill: #a49e9d; fill-rule: evenodd; stroke-width: 0px;" />
    <path
      d="M487.6,837.6l-2.4,3.9h-.2c-4.9-1.4-8.5-3.2-10.9-4.4-1-.6-.6-1.1-1.1-1-2.6.3,3,1.4,3.9,7h0c.3,2.2.3,4.1.5,6.1.2,5,.5,10.4,5.5,15.3,4.1-8,4.4-15.6,4.7-25.1v-1.8h.1-.1ZM473.5,821.8l10,2.6.7-1.9v-.5c4-8.6,16-10.9,26.7-12.9,5.5-1,10.5-1.9,12.8-3.4h.1c0-.1,5,6.4,5,6.4-5.4,4.7-13.1,7.9-20.6,11-4.2,1.8-8.5,3.5-11.9,5.5-.3,4.1-.3,7.7-.5,11-.5,12.4-.7,21.9-8.4,33.4l-2.3,3.4-3.5-2.3c-12-7.9-12.4-16.7-12.7-24.7,0-1.7-.1-3.5-.3-5h0c-1.6-9.7-2.3-14.2.7-15.8l-.2-.3h.1c0-.1,4.4-6.4,4.4-6.4h0l-.1-.1Z"
      style="fill: #a49e9d; stroke-width: 0px;" />
    <path
      d="M445.3,812l13.1.2c-1.3,13.1.6,8-13.3,5.5,4.8,3.8,7.7,6.5,11.1,11.4-6.8-3.4-12-5.5-17.5-8.7-1.4,9.3.7,9.3,7.6,12.7-7.4,5.4.1,18.1,3,30l1.9-2.4c6.6-8,3.7-2.6,5.7-14.7l.8-3.8c.1-.7.3-1.1.3-1.8,5.8-38-2.7-32.4,28.1-46,.1,0,3.8-1.7,4.4-1.8,8.4-2.2-.7-1,3,.1-13.1-2.1-40.1,7.4-48.1,19.2"
      style="fill: #a49e9d; fill-rule: evenodd; stroke-width: 0px;" />
    <path
      d="M494.3,791.2h-.3c0,.1-.2,1.1-.2,1.1l1.5.3c-.3-.3-.7-.9-.9-1.5M493.9,794.1c.3.3.6.6.7.8.2-.3.7-.9,1-1.4l-.6-.6-1.5-.3v.3c-.1,0,.3,1.1.3,1.1h0l.1.1ZM493.4,793.5c.2.1.3.3.6.5l-.3-1.4-.2.9h-.1ZM493.9,791.3h.3c0-.1-.2-.7-.2-.7v.7h-.1,0ZM451.7,852.8c.1-1.4.3-3.4.9-7.3v-.2l.9-3.8c.1-.5.1-.7.2-.9,0-.1.1-.3.1-.7.5-2.9.8-5.5,1.1-7.9M459.4,856.7l-7.8-3M454.9,832l-.7.8h-.2c0-.1-5.3,3.8-5.3,3.8-3.1,2.2-.9,8.7,1.5,15.8l.7,2.3.8-.9v-.9l8.2.7c-.1,1.4-.1,2.2-.6,3.3-.6,1.3-1.3,2.1-2.6,3.8-.7.8-1.5,1.8-2.5,3l-1.9,2.4-5.4,6.4-1.9-8.1c-.7-3.1-1.7-6.2-2.7-9-2.5-7.7-4.9-14.9-2.5-20.5-5.4-3-6.8-5.5-5.4-14.8l.9-5.8,2.5,1.5,3.8-5.7c6.3-9.4,23.1-17.4,37-20.3,2.7-.6,5.4-.9,7.9-1.1,1.3-.1,2.5-.1,3.7,0,.6-.3,1.1-.6,1.6-.8h0c2.5-.7,5.4.6,6,2.9.5,1.6-.5,4.2-5.2,5.8v.6h-.2c-.3-.1-.8-.1-1.3-.1l-3.2,1.5h-.5c0,.1-4.5,2.1-4.5,2.1-10.4,4.6-14.9,6.6-16.6,9.4-1.4,2.2-1.6,5.8-2.3,12.3-.5,4.9-1,11.2-2.3,19.2,0,.3-.1.8-.2,1.3h0v.6c-.1,0-.1.1-.1.1l-.8,3.9c-.6,3.3-.7,5.2-.8,6.4M443.6,818.5l1.1-2.3h-5.6c0-.1,1.6.8,1.6.8.9.5,1.8.9,2.9,1.5M455.1,816.9c.7-.3.5-.3,0-.5-.1.3-.7.8,0,.5M455.1,808.1h3c.3-.9.8-1.9,1.4-2.7-1.5.8-3,1.7-4.4,2.7"
      style="fill: #a49e9d; stroke-width: 0px;" />
    <g style="opacity: .2;">
      <g style="clip-path: url(#f);">
        <path
          d="M456.7,1038.1l8.6,17.2c8.2.7,17.5,4,21.2,4.2,22,1.3-3,1.4,18.3-7.6-7-2.6-10.1-.5-16.6-4.4l10.5-3.5c-8.6-3.8-12.8-.8-21.5-5.4-11.6-6.3-9.6-5.2-20.5-.6"
          style="fill: #a49e9d; fill-rule: evenodd; stroke-width: 0px;" />
      </g>
    </g>
    <g style="opacity: .2;">
      <g style="clip-path: url(#g);">
        <path
          d="M461.5,1057.1l-8.6-17.1-1.9-3.9,4-1.7c1.6-.7,2.9-1.3,3.9-1.7,5.6-2.6,12.4-1.8,20.4,2.5,3.8,2.1,6.8,2.3,9.6,2.5,3.3.3,6.8.6,11.4,2.6l-.3,6.2c1.8.2,3.8.7,6.2,1.6v7.7c-4.7,1.9-6.9,1.1-7.1,1.3.2.1.3.3.5.5,4.5,4.7,5.5,6.6-3.5,6.9-.6,0-3.5-.2-9.8-.7-1.9-.1-4.7-.9-8-1.7-3.8-1-8.5-2.2-12.7-2.6h-.7c0-.1-2.3-.3-2.3-.3l-.9-1.9h0l-.2-.2ZM462.3,1040l5.7,11.2c4.2.6,8.7,1.7,12.4,2.6,2.7.7,5.2,1.4,6.4,1.5,2.3.1,4,.2,5.4.3.3-.6.8-1.1,1.4-1.8-2.2-.3-4.5-1-7.4-2.9l-7.7-4.6,4.2-1.5c-2.2-.5-4.6-1.3-7.2-2.7-5.6-2.9-10-3.6-13.2-2.2h0v.1Z"
          style="fill: #a49e9d; stroke-width: 0px;" />
      </g>
    </g>
    <path
      d="M515.1,843.3l-4.9,5.2h0c-1.1-.6-2.1-1-2.9-1.6-.6-.3-1.3-.7-1.7-1-.9-.5-1.6-.9-2.2-1.3l.3,1.6c1.7,8,4,17.2,5.5,18.7l1.1,1.3.2.2c2.6-8.2,3.5-14.8,4.5-23M515.2,842h0ZM503.5,830.8l9.4,2.1c5.3-7.4,14.2-10.8,21.5-12.1,1.5-.3,2.9-.6,4.2-.7,3.9-.5,7.1-.3,7.8-.3h.3l.9,8c-4.2,1.5-6,2.5-8.2,3.8-1.4.8-3,1.8-5,2.7-3.2,1.7-3.9,1.8-6.2,2.4h0l-1.6.3-2.6.8-.3,3.2c-1.3,12.1-2.2,19.9-7.1,32.5l-1.4,3.8-3.8-1.4-1.3-.3c-1.1-.3-1.8-.6-2.7-1.3h0c-.9-.6-1.6-1.4-3.1-2.9l-1.1-1.1c-2.6-2.7-5.7-13.5-7.7-22.7-.3-1.6-.7-3.2-.9-4.9-.3-1.6-.6-3-.8-4.1h0c0-.1-.9-6.6-.9-6.6l6.3,2.1,1.9.7,2.4-3.9h0v-.1Z"
      style="fill: #a49e9d; stroke-width: 0px;" />
    <g style="opacity: .2;">
      <g style="clip-path: url(#h);">
        <path
          d="M297.8,809c5.6-2.6,9.4-.9,14,1.5l-4.5-7.4,8.9,1.5,11.7,1.9,4.4.7-1,4.2c-.7,2.5-1.4,5.2-2.1,7.8-.7,2.5-1.6,5.7-2.6,9.6-.8,3.1-1.1,5.2-1.5,6.8-.6,3.5-.9,5.4-4,9.6l-4,5.4-3-6.1c-.7-1.3-1.1-2.4-1.6-3.2-.3-.8-.7-1.4-.9-1.7-.5,1.6-1.4,3.5-3.2,6.9l-2.3,4.4-3.9-3.1h-.1c-6.8-5.6-9.4-7.7-4.7-16.5-3.8-2.6-4.1-3.1-4.7-11.4l-.3-6,3.7,1-3.9-3.4,5.7-2.4h0l-.1-.1ZM319.6,822.9c-1-.3-2.1-.6-3-.9l.3.6-4.8,6.1-7.9-2.4c.3.3.8.6,1.3.9l1.6,1.4c6.1,1.6,8.4,2.3,10,4.2.3-1.5.7-3.4,1.5-6.1l1-3.8h0Z"
          style="fill: #a49e9d; stroke-width: 0px;" />
      </g>
    </g>
    <g style="opacity: .2;">
      <g style="clip-path: url(#i);">
        <path
          d="M741.2,1087.7c8.8,3.5,34,3.7,41.8-.7l-9.7-2.7c5.6-3.7,2.1,0,4.6-5.5-9.8-4-1-.3-9.4-6.9-13.7,1.6-23.2,3.7-27.2,15.8"
          style="fill: #a49e9d; fill-rule: evenodd; stroke-width: 0px;" />
      </g>
    </g>
    <g style="opacity: .2;">
      <g style="clip-path: url(#j);">
        <path
          d="M775.1,1073.3s.1,0,.3.1c-.5-.3-1.5-1-.3-.1M747,1085l1.7.2c1.8.3,3.9.5,6,.7,3.2.2,6.6.3,10,.2l-1.1-.3,7.4-5,.5-.3c-.6-.2-.8-.3-1.1-.6-.9-.7-1-1.4-1.6-2.3-.1-.1-.5-.6-1.5-1.4-5.7.7-10.5,1.6-14.1,3.3-2.5,1.1-4.5,2.9-6.1,5.5M741.8,1092.2c-.8-.2-1.4-.5-2.2-.7l-3.5-1.5,1.3-3.7c2.5-7.2,6.6-11.6,12.1-14.2,5.2-2.5,11.3-3.5,18.5-4.4l3,.8c3.2,2.5,4.5,4,5,5,.6.1,1.4.5,2.7,1l.7.2,4,1.6-1.7,3.9c-.5,1-.6,1.5-.7,1.7l3.3.9.9,7.7c-5.8,3.2-19.7,4.4-31,3.5-2.3-.1-4.6-.3-6.5-.7-2.4-.5-4.4-.9-6-1.4"
          style="fill: #a49e9d; stroke-width: 0px;" />
      </g>
    </g>
    <g style="opacity: .2;">
      <g style="clip-path: url(#k);">
        <path
          d="M286.4,823.5l-.6.6c-.7,1.5-1.9,2.9-3.4,3.9-1.9,1.3-4.2,2.1-6.1,1.7.7,1.5,1,2.9,1.4,4.2.5,1.7.7,2.9,5.4,3.4-.1-1.1-.1-2.7.6-5.3v-.2c.1,0,1.7-4.8,1.7-4.8.5-1.4.8-2.5,1-3.5M266.4,809.8c5.2-2.2,8.7-1.3,13.2.6l1.1-5,3.8-.3c.6-1.5,1.8-3.2,4.2-5.3l6.8,3.5c-.5,5.7-.5,9.4-.3,12.5.1,4.8.2,8-1.9,14.2l-1.6,4.8h-.1c-.2.2-.8-.2-1-.3h0c1.7,1.8,2.2,2.5-1.5,9.4l-1.3,2.4h-2.6c-12.9-.8-14-4.6-15.3-10-.5-1.6-.9-3.4-2.6-5.4l-2.7-2.9,2.9-2.9.7-.7c1.4-1.4,1.8-1.9,2.6-2.3l.5-.2c-.9-.6-1.7-1.1-2.5-1.8-.7-.5-1.4-1.1-2.1-1.7-.7-.6-1.3-1.3-1.7-2.1h-.1c0-.1-2.6-4.2-2.6-4.2l4.5-2.3h-.4Z"
          style="fill: #a49e9d; stroke-width: 0px;" />
      </g>
    </g>
    <g style="opacity: .2;">
      <g style="clip-path: url(#l);">
        <path
          d="M617.7,801h0ZM640.7,850.5l.5-2.5c-1.4.6-2.6,1.1-3.9,1.8,1.3,0,2.4.2,3.4.7M635.8,868.7c.9-1.9,1.8-4.8,2.6-7.9l-3,1.8c.1,1.7.1,3.1.1,4.2s0,1.3.2,1.8M644.1,835.7l2.5,1.8,2.2-.6c2.3-.6,4.5-1.3,6.5-1.8-3.5-.1-7.4.2-11.2.6M661.8,865.2c.1-.9.1-1.8.2-2.9-1.5,1.1-3.2,2.4-4.5,3.9.9,2.6,1.3,3.1,1.7,3.8l.7.9c1.5-1.5,1.6-3.1,1.8-5.7M663.1,854.2c.3-1.5.7-3,.9-4.6-2.5,1.9-4.7,2.5-6.6,2.9-.8.2-1.5.3-2.3,1.4h.3l6.6-1.3.9,2.2v-.6h.2ZM665.7,839.7v-.5c-.3.3-.9.7-1.4,1l1,1.9.3-2.5h0l.1.1ZM692.1,834.5c.9-.1,1.9-.3,3.2-.5l.9-1.7c-1.4.9-2.7,1.6-4.1,2.2M682.6,844.4l3-.9c-1.1,0-2.2-.2-3.3-.6.1.6.2,1,.3,1.5M690.3,873.3c2.4-5.3,4.6-14.3,6.4-22.8-2.2,1-3.9,1.5-5.6,1.9h0c-2.2.5-3.9.9-6.5,6.2l-.8,1.1s1.7-.6,1.9.8c.5,2.5,1.4,5.7,2.5,8.7.6,1.4,1.3,2.9,2.1,4M738,849.1l.2-1.8c-.2.2-.6.5-.9.6l.7,1.3h0v-.1ZM735.8,860.3c.2-.9.5-1.8.6-2.9l-1.6,1.4c.5.5.7,1,1,1.5M783.4,785.6c-1.6-2.4-3.2-4.8-4.8-7.3v1.7c.5.9,1.8,2.4,4.8,5.6M764.1,744.9v-2.1c-.1,0-.5.3-.5.3.1.8.3,1.4.5,1.7M819.2,796.4c-2.2-2.9-4.7-6.2-7.3-9.6,2.1,3,4.5,6.5,7.3,9.6M929.5,816.3v.2c0,.5,0,0,0-.2M929.3,816.5v-.2h.1v.2h-.1ZM904.4,813.4l10.4,1.7c-2.9-1.9-5-3.8-7-5.4l-3.4,3.7h0ZM977.8,936.5h-.5c0,.1.5,0,.5,0h0ZM900.7,1003c6.6,0,13.2,0,19.8.2h6.1c1.7-.1,3.2-.2,3.7-.3h.5c-6.2-1.8-13.9-1.1-21.5-.5-2.7.2-5.5.5-8.5.6M797.6,1020.3c.1.2.2.8.2.9l.3-1h-.6l.1.1ZM889.6,1026.3c8.6-.1,15.6-.5,20.3-1-.9-.3-1.9-.6-3-.7-4.2-.5-9.4.3-13.9,1.1-1.1.2-2.4.5-3.4.6M862.2,1026.3h16.9l-1.9-.2c-3.8-.3-7.9-.8-14.8.1h-.2v.1ZM824.8,1025.8h4.2c0,.1-.1.1-.1.1-1.5-.2-2.9-.2-4.1-.1M837.3,1088.2c3.1.8,5.5,1.4,7.7,0h-7.7M695.5,1058.1l-1.7,1.6c7.8.3,15,2.1,19.3,7.1l3,3.3-3.5,2.7c-1.7,1.3-3.1,2.2-4.2,2.9l2.1,1.4-2.1,3.4c-.6.9-1.1,1.8-1.8,2.6h6.5c3.8-.1,7.7-.2,11.7-.1,2.7,0,4.6-.2,6.1-.3,2.1-.2,3.3-.2,4.8.2,2.6.9,3.5,2.4,6,6.4h.1c0,.1,1.3,2.2,1.3,2.2l-1.1,1.9,48.3.7v-.2c-.1,0-2.5-3.3-2.5-3.3l3.3-2.4h.1c3.1-2.2,8.5-3,14.2-3.1l-.9-.3,1.3-6.3c-4.5,0-8.9-.2-13.1-.8l-.8-7.9c-21.2-.5-56.7-1.5-60.7-2.9l-7.1-2.5,5.7-4.5c-12.7-.5-24.6-1-34.1-1.8M641.9,1035.4c.6.6,1,1.3,1.5,1.7l3,.9h.2c0,.1.1.1.1.1,1.1.3,2.7.6,4.5.8,7.2,1,15.6,2.2,16.3,11h2.2c8.1.7,13.6,1.1,21.2,3.9l-.6-4.2c1.7-.8,3.8-1.5,6.2-1.9-9-.2-18.1-.5-27-.9l-1-8c.7-.2,1.4-.3,2.1-.6.9-.2,1.8-.5,2.9-.7-13.6-.3-25.1-1-31.4-2.1M607,1016.8c4.5.9,8.1,3.2,13.5,8.8l1.9,2.1c6.5.7,12.5,2.1,16.7,5.4.7.6,1.4,1,1.8,1.6v-7.4c-.1,0,0,0,0,0,22.6-4.7,91.7-3.2,155.5-1.9h7c-5.5-1.9-5.6-2.6-6-4.8h.7c0-.1,1.8-4.7,1.8-4.7-30.8.5-57.4.8-67.2-.1h-.2c-5.3-.5-13.2-.1-21.2.1-8,.3-16.1.7-22.2.2h-.5c-14.2-1-29.3-.3-44.4.2-12.6.3-25.2.9-37.3.6M671.7,936.8h0c-2.2.6-4.1.9-6.2,1.4,9.2-1.4,18.8-2.7,28.3-4.1h-1.8c-4.8.6-9,1-12.5,1.5-3.4.3-6.1.8-7.8,1.3h0v-.1ZM478,982.7l4.4,2.7-.3-.3,4.5-2.5c4.2-2.5,7-2.9,9.6-3.1,1.8-.2,3.7-.5,6.4-2.4l.6-.3,14.9-7.2.8-.3c4.7-1.1,6.8-3.1,8.6-4.9,4.1-4,7.7-7.3,22.8-5.6,12.6,1.5,13.6,1,16.7-.5,2.3-1,5.4-2.5,11.7-4.1,5.7-1.6,10.1-1.8,14.3-2.1,5.5-.3,11-.8,19.8-4.6,3-1.3,16.3-3.7,33.7-6.4-6.5.7-12.4,1-18,1.3-7.7.5-14.8.9-22,2.2l-60.1,10.5h-.1c-18.7,2.4-22.1,4.9-25.2,7.1-2.3,1.6-4.4,3.1-9.5,4.5-6,1.5-13.9,1.3-22.4.9-8.1-.2-16.7-.6-23.9.7h-.1c-7.3,1.3-12.9,4-18.3,6.6-2.6,1.3-5.3,2.6-8,3.8,5.2,4,5.5,3.9,7,3.5.9-.2,1.9-.5,3.2-.7,1.4-.2,2.5-.3,3.8-.6,8.6-1.4,18.2-2.9,25.4,1.8h-.3ZM585.3,1147.8l-3.3,1.9c.5.1,1,.3,1.5.6,1.4.6,2.4,1,3.2,1.6-.6-1.4-1-2.7-1.4-4.1M572.2,1130.2c-.3.9-.7,1.5-.9,2.1,1.1,1.1,2.2,2.5,3.4,4.2l.9,1.3,6.8,5.2,1.5,1c-.9-1.9-1.9-3.8-3.1-5.4-2.5-3.1-5.2-5.7-8.6-8.4M501.9,1131.3c-1.4,0-2.9-.1-4.4-.1h-2.7c0-.1,4.9.6,4.9.6.6,0,1.4-.2,2.2-.5M535.8,1131.2c-1,.1-2.1.2-3.2.2s-1.9.1-3,.1l-.2,1.1-1.5,6.8c1.9-1.3,3.7-3.4,5.5-5.5l2.4-2.7h0ZM545.6,1123.4l-2.4.2-.2,1.4c.8-.7,1.7-1.1,2.6-1.6M558,1119.7l-1.6,1.1c1,0,1.9.1,3.1.2-.5-.5-.9-.9-1.5-1.4M539,1098.1l-1.5,5.8c2.2.8,4,1.8,5.6,3.1l-1.6,4.2c3.4.3,6.5.8,9.3,1.4-5-5-8.1-9.2-11.8-14.5M535,1092l-1.7.9-.3.2h0c-.6.2-1,.5-1.7.7h1c2.7.7,4.1,1.1,5,1.6l-2.3-3.4h0ZM525,1080.1h0c0,.9-.5,1.7-2.2,2.9,2.4.2,4.5.6,6.2,1-1.4-1.4-2.7-2.6-4-3.9M515.6,1071.7v.9h.1-.1c-.3.3-.7.6-1.1.7,1,.1,2.2.2,3.2.3-.8-.6-1.5-1.3-2.1-1.9M378.3,1053c-2.9-.1-5.5-.1-8.1,0,.5,0,.9,0,1.4.1,2.3.1,4.6,0,6.8-.1M416.9,1048.3h0M373.5,1043.5c-6.8-.6-12.6-.8-16.1-.7,4.8.7,10.3.8,16.1.7M420.8,1021.1l-1.1,1c-1.9,1.7-5,2.5-8.6,2.7-1.5.1-3.1.2-4.6.2-3,0-6-.1-8.4-.1-3.7,0-7.2-.1-10.9-.2-4.6-.1-8.8-.3-13.2-.3-9-.3-18.2-.7-27-.7l3.1.7-3.9,5.2c-.3.5-.7.8-1,1.3,16.3,2.3,48.9,2.7,69.4,3.1,5.4.1,9.8.2,13.1.2l1.9,6.4s.1,0,0,.2l.2.9c-.5.3-.9.6-1.4.7-.7.8-1.6,1.3-2.5,1.6l4.5.8-5.8,5.5c-.1.9-.6,1.4-2.1,2.2-.6.3-.9.3-1.6.6h-.6c5.4.3,10.9.5,16.3.7,4.5.2,8.9.5,12.8.7,4.2.2,8.1.5,11.6.7,9.6.8,16.9,1.7,19.3,3l-1,5.6c12.4,0,23.1.2,30.2.8v-.3h-.1c-.7-3.5.7-4,2.7-5,.3-.1-.9.5-1.9-3.2h0c-.1-.3-.2-.7-.5-1.1s-.5-.9-.8-1.6h0c-1.8-3-4.6-5.8-5.8-7.2-9.6-8.9-18.2-9-28.5-9.2-13.4.1-29.5-.1-53.8-15.7M331.8,991.9h-.8c-6.3-.9-12.8-1.7-18.7-1,5.3.9,12.1,1.1,19.5,1M442.2,967.9c-7.7,2.6-19.7,3.8-33.7,4.1,1,.3,2.2.7,3.3,1.1h0l.8.3h.1c.3.2.8.5,1.3.6l-2.1,7.7h-53.4c0-.1,28.6,1.3,28.6,1.3l1.4,8h-.5c-2.7,1.1-5.7,1.9-9,2.4l5.2,1.4-5.2,5h-.1c-1.3,1.3-2.9,2.2-4.8,2.9h0c6.1,0,10.9.7,16.5,4.7l-2.2,6.5c8.7,0,16.7.1,22.8.3h-.1c0-.1.7-2.9.7-2.9l3.9-14.4.7-2.4,2.4-.6h.1c6.8-1.5,14.2-1.5,21.5-.9v-.2c.1,0,.1-.1.1-.1.1-.1-.3.7-.9-.6l-1.4-2.9.5-.5c-1.5-.9-3.2-2.2-5.5-4h-.2c0-.1-3.9-3.7-3.9-3.7h-.1c0-.1-.2-.2-.2-.2-.2-.2-.7-.6-1.1-1.1l-4.9-5,6.8-1.8c4.6-1.1,8.7-3.1,12.7-5M329.6,959.2c-2.1-.1-3.8-.3-5.2-.5-6.1-.7-9.2-.1-12.3.6,5.5,0,11.3,0,17.4-.1M464.4,959.9c-4.1.3-8.8.5-13.9.7-2.4.1-4.8.1-7.3.2v6.5c5.8-2.9,11.9-5.8,20.3-7.3h.9v-.1ZM304,946.7c-8.5-.1-16.1-.2-22.1.1h22.1v-.1ZM531.4,949.1c-12.1,1.5-30.7,1.5-49.8,1.1l1.1,6.4h-.1c0,.1-.1.1-.1.1-1.6.9-4.9,1.7-9.4,2.3,5.4-.2,10.8,0,16,.1,8,.2,15.5.5,20.3-.7,3.5-.9,5-1.9,6.6-3.1,2.7-1.9,5.7-4.1,15.3-6.3M322.5,936.5c-11.2-.5-22.8-.9-33.5-.7,9.7.5,21.4.6,33.5.7M596.3,937.9l-3.4.2c-7.3.3-16,.7-25.6,1-8.1.2-16.8.5-25.8.7l1.3,7h-.3c0,.1-.1.1-.1.1-.6.1-1.1.3-1.8.6,1.4-.2,2.9-.5,4.4-.6l51.5-9h-.2ZM252.9,923.2h0M252.9,923.2h0M241.4,875h.1-.1ZM240.9,870.6h0c0-.9-.1-1.1,0,0M241,870.6h0l.3,4.5h.1l-.5-4.5h.1ZM233.3,872.9l-.5-.5c.1.5.3,3.1.3,3,0-.9,0-1.7.1-2.5M238.8,792.6h0M247.7,831.1c.1-1.1.5-2.9,1-4.9h-.1c-.8,1-1.5,1.7-2.3,2.5l.7,1.1c.3.5.5.9.7,1.3M272.3,792.7h0M295.4,788.8h-.1c0-.1.1,0,.1,0ZM337.9,800.2l8.4,3.5c.1-1.4.3-2.5,2.3-4.4v-.3c-.5.3-.9.6-1.4.8-1.6.7-3.4.1-4.7-.7-.3-.1-.7-.5-.9-.7-1,.6-2.3,1.1-3.7,1.7M349.8,828.9h0l.7-5.7c-.3.1-.9.2-1.4.2l-2.3,3.8c-.6,1.1-1.3,2.3-1.6,3.3-.7,2.2-1.1,4.2-.8,6.1.2,1.5,1,2.9,2.6,3.8l.3-.2c1-.8,1.5-.8,1.5-1h0c.1-.1.1-.8.2-2.2,0-1.6.1-4,.7-8M353.9,794.7c0-.6,0-1,.2-1.5l-1.4.9,1.1.6h.1ZM402.7,799.6c0,.7.3-.6,1.1-1.6l-.9.6c0,.3-.1.7-.2,1M413,793.6l2.9-2.5c-1.6.8-3.2,1.7-4.7,2.5-1.4.8-3,1.7-4.5,2.6h.3c1.4,0,2.5-.2,3.2-.7h0c.9-.3,1.8-1.1,2.7-1.9M418.5,801h0ZM418.5,801h0ZM418.5,800.9h0s0-.2,0,0M401.6,804.3l2.3,1.1,4.5,2.3,1.6-3.4c-.9.1-1.9.2-3.1.1-2.1.1-3.9,0-5.3-.1M361.1,803.4l5,1.4c1.6.5,2.9.9,3.8,1.4l-1.4-1.3,7.6-2.1h.1c.1,0,.1-.1.3-.2.2-.1.6-.2.9-.5l4.5-1.9c-1.9-.6-2.3-1.7-2.7-2.6h0c-.5-1.4.9,2.3-.7,2.2h-1.1c-.9,0-2.9.2-4.8.3-2.6.2-5.5.5-7.4.5h-3.5l-.5,2.9h0l-.1-.1ZM381,820.5v-.3l-.6-.2.6.6v-.1ZM376.8,839.7c1.1-2.7,2.2-7.7,3.1-12.5l-1.9,2.2c-2.9-1.5-4.1-2.2-4.9-2.7.6,1,1,2.4,1.8,4.7h0l.7,2.6h0c.3,1.3.3,2.4.3,3.5.2.9.2,1.7.9,2.2M402.1,846.8c.5.3.6.5,0,0h0ZM422,830.7c.8-2.1,1.3-3.9,1.6-5.8l-2.3-1.1-10-5.2-1.7,1.4c-5.6,4.2-6.9,3.7-10.6,1.8l-.9-.5c-.1,1-.1,1.9-.2,2.9-.1,2.3,0,4.6.2,7.7h0v2.3h.1c.2,3.5.3,5.5,1.6,8,.2-1.8,1.9-4.2,6.9-7.7l4.2-3.1,2.1,4.8c1.1,2.6,1.7,4.5,2.2,5.8.6,1.7.8,2.5,3.1,5.3.7,0,.6.9.8.2.1-.3-.2.1-.2-.2,0-.8,0-1.7.1-3.1.3-3.1.2-4.2.2-4.8h0c0-.8-.1-1.1.1-1.9h0c.1-.7.5-1.4,1-2.9.3-.7.8-1.7,1.7-3.9M446,800.6c2.2-1.6,5-3.4,8.7-5.7-6.1,2.3-11.3,5-14.5,9,1.5-.2,3.1-1.4,5.8-3.3M529.1,797.1h0M533,799.2h0M560.8,813.2l-10.3-.9c2.1,1.5,4.9,2.2,10.3.9M560.6,794.6c2.4.7,4.6,2.2,7.4,5l4.8,5-3.9,1,10.4.9,1.5,7.8-3,1.5h-.2c-26.1,11.6-31,5.3-36.4-1.6-1.3-1.6-2.5-3.2-4.4-4.2-2.1-1.3-2.9-1.5-3.8-1.8-.9-.2-1.9-.7-3.8-1.6h-.2c0-.1-4-2.3-4-2.3h-.1c0-.1-.6-.5-.6-.5h0l-.3-.2-17.1-7.1h-.2c-2.4-1-5.4-2.9-8.1-4.5-2.4-1.5-4.8-2.9-5.7-3.2h0c-7.9-2.3-18.4,3.9-26.3,8.5l-2.5,1.5h0c-6.1,3.5-10.2,6.4-13.2,8.5-8.4,5.8-10.3,7.1-18.7,2.7-.1,2.1,0,4,0,6,.1,5.6.3,10.9-2.5,17.7-.6,1.5-1.3,3.1-1.6,4.1l-.6,1.4h0c0,.2,0-.1,0,0,0,.9.1,2.4-.2,6-.1,1-.1,1.9-.1,2.5,0,1.6-.1,2.6-.7,3.9-1.1,2.2-2.5,2.7-6.1,3.8l-2.3.8-2.6.8-1.7-2.1c-3.2-3.7-4.6-5.5-5.4-7.1-1.4,1.4-3.8,2.9-7.2,4.8l-3.2,1.8-2.2-3.1c-5-7.1-5.3-9.5-5.7-16.5v-2.3c-.3-3.3-.5-6-.3-8.6.1-2.7.3-5.4,1-8.7l.7-4h0l-.2.6h0c-.3,1.3-.6,2.5-.7,3.9l-.2,1.3h0v.5c-1,6.5-3.9,25.3-8.2,29.8l-1.3,1.3h-1.8c-10.5-.2-10.6-6-10.8-10.8h0c0-.6,0-1-.1-1.4l-.8-2.5c-.6-1.8-1-2.9-1.5-3.8-.9-2.2-1.6-3.5-2.3-9.5l-.7-6c-.6-1.4-1-3-1.5-4.9l-.3-1.8-2.6,22.1h0c-.5,3.5-.6,6-.7,7.7-.1,2.2-.2,3.4-.8,4.7-.9,2.1-1.9,2.9-4.4,4.6-.8.7-1.9,1.4-2.3,1.7l-1.8,1.4-2.2-.7c-1.3-.5-2.3-1-3.2-1.5-3.9-2.4-6.1-5.7-6.8-9.5-.6-3.2-.1-6.5,1-9.7-1.4-.2-2.6-.5-3.5-.9l-2.5-1.5.5-2.9c.2-1.3.3-1.9.3-2.5.3-3,.5-3.7,3.2-7.7l.3-.6c-1.9-1.7-3.5-4.2-5.2-7.8l3.1-3h-.6c0,.1-7.2,2.1-7.2,2.1l2.2-7.1c.3-1.3.9-2.5,1.5-3.8-9,6.3-18,11.8-25.1,12.8l-9.8,1.4,6-7.9c2.3-3.1,8.5-8.2,15-13.2l-1.9,1c-3.5,1.9-6.8,3.8-9.4,5.2-1.8,1.5-2.5,2.1-2.7,2.4-.5.5-.7.7-1.4,1-2.2,1.1-3.2.7-4.7-.5-.1-.1.6.3.7.3v-1.1c-.1,0-.8.6-.8.6h0c0-.1.7-.8.7-.8l-.5-5.4h-.1c0-.1.1-.2.1-.2v-1.3c.2-.1,1.6-.9,3.9-2.1l.2-.2h0c2.2-1.6,5.4-3.9,9-6.5,3.3-2.3,7-4.8,10.5-7.6-3.9,2.4-8,4.8-12,7.3-12.4,7.6-24.5,15-33.1,18.9l-4.4-7h.1c2.5-1.9,6.5-5,11.7-8.6l-12.8,7.6c-3.7,2.3-5.2,3.5-5.7,5-1.8,5,.5,12.1-6.3,34-1.1,3.7-1,4.6-.9,4.9h0c.2,1,.3,1.6-.3,3-.6,1.3-1.1,1.7-3,3.2l-1.8,1.6-2.6,2.3-2.6-2.3c-3-2.5-4.1-4.1-5.3-5.8-6.4,5.6-5.6.9-3.5-4.7v-.5l-.8-1,1.6-2.5.9-1.4c1-1.6,1.6-2.4,1.9-3,1.8-3.5,4.5-6.1,6.9-7.3,1.6-2.6,2.7-5.3,3.3-8,.9-4.2.9-8.9-.1-14.9l-.5-3,2.7-1.4h0c5.8-2.9,15-9.6,23.5-16,2.9-2.2,5.7-4.2,8.4-6.2-16.6,10.2-34.5,20.6-43.3,23.9,0,1.8-.1,2.7-2.5,3.7-1.7.8-2.5.6-3.5,0l-1.5,5.4c-5.5,19.7-6.6,23.8-.8,49.5,5,.5,9.7,1,12.8,4.1l3.3,3.3-3.8,2.9-2.1,1.6h0c0,.2.2.7.9,2.1l1.8,3.5-3.7,1.9-2.2,1.1.3.2h0c.6.5.9.8,1.3,1.6,1.6,3,1,4.2-.7,5.2l.3,3.4c.1.9.1,2.1.3,3.2h0c.2,1.5.6,3,1.1,4.7.9,3.2,1.5,5.7,1.9,7.8h0c1,4.8,1.4,6.5,8.7,8.9l5.7,1.8-3.7,4.7-.3.3c-.3,1.3-.7,2.1-1.1,2.6l.9.2c.8-.7,1.7-.7,2.6.7l11.9,2.9-.5,8.1h-.9c27.9,2.1,105.1,2.1,179.8,2.1s140.8,0,163,1.8v6.9c5.4-.7,10.6-.9,16.4-1.3,11.6-.7,24.6-1.4,42-5.5h.1c1.8-.5,4.8-.9,8.5-1.4s8-.9,12.7-1.4c24.8-2.4,62.2-4,69-.3l-1.4,7.8-7.1,1c-31.6,4.2-127.9,17.5-135.9,21-10.1,4.4-16.3,4.7-22.4,5.2-3.9.2-7.8.5-12.7,1.8-5.6,1.5-8.4,2.7-10.3,3.7-4.8,2.3-6.2,2.9-21.2,1.1-11.2-1.3-13.4.8-16,3.3-2.5,2.4-5.4,5.2-11.9,6.9l-14.3,6.9c-1.7,1.1-3.2,1.9-4.6,2.5h.1c4.1.1,8.2.3,12.6,2.4l-.3,6.8c10.1-1.1,23-1.3,40.4,5.3l-.7,4c3.9,0,7.7.1,11.2.6,4.4.5,7.2,1,10.1,1.8,3.7.9,7.3,1.7,14.2,1.9h2.1l1.3,1.8c1.3,2.1,2.1,3.7,2.3,4.9h1c2.5,0,4.6,0,6.5.1l-1.3-7.7.6-.2h.1c2.5-.8,7.2-1.5,13.5-2.1,6-.6,13.6-1,22.4-1.4,44-1.7,114.3-1.3,132-.8,26,.7,52,.1,77.9-.3,15-.3,29.9-.6,44.8-.7-1.4,0-2.6-.2-3.9-.3l-.3-8.1h.1c9.3-2.2,20.4-1.9,30.8-1.7,6.1.1,11.9.2,16.8-.1-.5-.2-1-.6-1.6-.8l-6.8-3.9,6.9-3.4c3.4-1.7,6.1-2.7,8.4-3.2,2.3-13.9,4.5-15.7,6-12.4,1.9-2.5,3.2-.3,2.1,12.3,1.3,0,2.9-1.8,11.6-15.1,3.1-4.8,5.2-10,7.1-15.2,1.3-3.2,2.5-6.4,4.1-9.7l.3-.7,2.5-3.4h-.1c-.1-.2,0-.2.1-.3h.1c-1.1.2-1.9.2-3.5-1.4s-.9-1.1-1.1-2.1c0-.3-.2-.8-.6-1.8l-1.8-5,5.4-.6c11.1-1,11.2-1.5,14.1-8.4l1.5-3.5h0c1.5-3.4,3.3-7.2,5.4-11.3,7.7-15.2,17.9-35.7,15.1-49.5v.9c-.1,0-.2.5-.2.5l-12.1,37.2-1.9,6.1-4.8-4.4c-.5-.3-.6-.5-.8-.6-1.7-.9-2.3-1.1-4-5.3-2.3-5.5-2.2-8.4-.1-11.2h-.3c-.5-.2-1-.5-1.5-.8l-3.4-1.7,1.6-3.5c1.6-3.5,5-5.3,8.5-7.1l1.1-.6c-1.1-.3-2.6-1-5-2.5l-7.1-4.4.7-.2c-1.5-.2-2.9-.5-4.2-.7-6.9-1.4-13.2-3.5-19.5-7.2l1.4-4.5c-7.4-.9-14.3-1.8-19.5-3-12.5-2.7-24-5.7-35.4-8.7-6.6-1.7-13.4-3.4-20-5.2l.6-5.5h-.8c-10.2-2.5-19.5-4.8-23.8-5.7l-3.4-.6h-.1l.2-8.2h1.1c8.4,1.4,16,2.5,23.7,3.7l18.3,3c-7.3-4.2-8.9-5.4-16.4-12.6h0c-1.7-1.6-2.6-2.5-3.4-3.2-1.4-1.4-2.4-2.2-4.6-4.6-.7-.8-1.5-1.7-2.2-2.6h0c-.9-1.3-1.6-1.9-2.7-2.6-5.5,0-6.3-1.3-9.6-6.2-1.4-2.2-3.7-5.5-8-10.5h0l-2.2-2.4h0c-1.4-1.6-3-3.7-4.7-6-1.8-2.4-3.5-4.8-5.3-7.1-9.3-13.1-20.2-30.2-25.8-40.1l-11.7-18.7-.5.7c-.9,1.6-1.8,3.2-1.6,8,.2,2.4.8,4,1.4,5.5h0c1.6,4,2.9,7-1,14.1-2.1,3.8-4.8,6.1-7.1,8.1-3.8,3.2-6.8,5.7.6,18.7v.2c2.5,4,9.4,13.1,16.5,22.3,10.3,13.5,21.3,27.7,21.9,32.1l.6,3.9-4,.7c-4,.7-7.9-.7-11.4-3l-4.2,4.6-1.9-.9c-1.6-.8-3-1.6-4.2-2.2.5.9.8,1.7.9,2.4l2.1,8.1-7.7-3.3h0c-5.7-2.4-13.2-10.2-17.1-14.4l-.8-.9-1.3-1.3c-9.5-10-12.7-13.4-14.1-15.8h0c-1.1-1.9-1-3.1-1-4.7s.1-4.5-5.2-15.5c-1-2.3-2.3-4.5-3.5-6.8-.3-.8-.9-1.7-1.8-3.4-1.4-2.7-1.9-3.5-2.3-3.9-.3-.6-.6-.9-.9-1.4-4.2,6.6-8.6,13.5-12.4,19.8,10.1,6.3,9.7,6.8,2.9,17.3-.8,1.3-1.7,2.7-2.9,4.5l3.5-1.1.2,5.5c.1,4.1-.3,7.3-1.3,10.2l1.1-.5.5,5.7v.3c.1,2.5.2,5.4.2,8.5s-.1,6.4-.3,9.7c-.9,17.5-4.2,38.4-9.4,48.3l-2.6,5.2-4-4.2c-.5-.6-.9-1-1.3-1.5h0c-3-4.2-2.3-8.8-1.9-10.9-.3-1-1.1-2.1-1.9-3-.5-.6-.9-1.1-1.4-1.8l-.7-.9c-7.6,3.3-11.2,4.9-17.4.3l-3.2-2.3,2.1-3.2c5-7.8,12.1-9.6,18.7-11.3,4.6-1.1,8.8-2.3,10.6-6.3-.7-.1-1.9-.1-4.1-.2h-.1c-.1,0-.5.1-1.3.2h-1.6c-1.9.3-4,.5-4.5.6h-1.4c0,.1-.1.1-.1.1h-2.7c0,.1-.1.1-.1.1h-2.9c-3.3.1-6.6.1-9.8,0l-.3,1.8c-.3,2.3-.8,4.7-1.3,7-2.5,13.3-6.9,30.8-11.6,36.2l-2.1,2.3-2.9-1.3h-.1c0-.1-.1-.1-.1-.1-3.9-1.9-6.8-6.4-8.7-11.1-1.4-3.5-2.3-7.2-3-10.1-.6-2.6-.2-5.5,0-7l-.5-.2.7-1.3-1.1-2.4c-3.3-6.4-2.9-8.9-1.8-14.5v-1c.1,0,.7-3.3.7-3.3l-.5-.2c-.3,3-.7,5.8-1,8.7-.7,5.5-1.6,10.6-2.5,15.2-.9,4.1-1.1,7.2-1.3,9.7-.5,7.6-.7,10.8-10.2,14.5l-3.7,1.5-1.6-3.4c-1-2.2-1.6-3-2.1-3.5-1-1.5-1.6-2.4-3.4-7.9l-.6-1.7.9-1.6c.3-.8.9-1.5,1.4-2.2l-2.5-.6-1.4-.3c-1.9,7.7-4.7,15.1-8.5,17.7l-2.5,1.7-2.4-1.9c-6.2-4.9-6.2-5.4-6.2-11.1s0-3.3-.3-6.2l-.3-2.6,2.1-1.3c-.8-.2-1.6-.6-2.4-1l-3.7-2.2,2.4-3.5c4.2-6.4,11.1-9.4,18.1-11.6l.7-2.9h-.6c-2.4.2-4.8.5-6.9.6h-1.8c0,.1-1.3-1.1-1.3-1.1h0c-4.2-4.2-12.3-17.3-17.6-26-.3.2-.9.5-1.6.8l-4.8,2.9-1.3-5.4h0c-1.7-6.9-17.9-29.7-25.4-40.6l-3-4.1h0l-37.4-53.2c-.3,2.3-1.6,4.7-3.9,7.3,5.5,7,6.5,10.3-.2,17.7l-.7.8c1.3,1.7,2.5,3.5,4.2,6,.9,1.5,1.6,2.3,2.2,3.2,2.9,3.9,4.8,6.6,6.3,12.7l1.4,5.8-6.1-.8c-.5,0-.8-.1-1.3-.1,8.9,12,15.3,20,16.9,20.8l3.3,1.8-1.4,3.4c-.3.8-.5.9-.5,1,.5,1.4.7,2.3-.5,4.1.7.1.2.6-.2.9M544.2,794.6l8.7-5.7.8-.3.5-.2v-.5c-12.4-13.6-57-76.4-83.8-116.6-5.6-8.6-10.5-16.1-14.2-22-3.8-6.1-6.3-10.5-6.9-12.6h0c0-.1,6.3-4.7,6.3-4.7,5.7,3.9,12.9,13.5,18.5,21.9l.3.5c-.5-1-.7-1.9-.9-2.6v-.2l6.8-3.9,6.9,6v.2c.1,0,5.8-4.4,5.8-4.4,1.7,1.1,5.5,5.6,10.2,11.9-6.6-10.6-14.2-23.5-16.4-31.3h0c0-.1,6.3-4.6,6.3-4.6,6.2,4,7.8,7,10.3,11.4.7,1.3,1.4,2.5,2.4,4.2,1.1,1.8,2.2,3.3,3.2,4.8h0l1.1,1.7c3,4.5,5.5,8.4,7.9,12.4,2.2,3.5,4.4,7.1,6.6,10.4l61.7,87.6h0l2.9,4.2c6.4,9.2,18.8,26.7,24.2,37.2l5.4-.9,2.2,3.7c4.6,7.4,12.6,20.6,16.9,25.9,1.5-.1,3-.2,4.7-.3,8.2-.8,17.7-1.6,24.5,1,.1-1.7.3-3.4.6-5.2l.5-5.3,5,1.7c3.9,1.4,5.2,3,6.1,4.6h.1c4.6-5.6,8.8-10.8,15.2-14.1l5.6,5.6-2.9,5.3c4.2-4,8.5-9.3,11.9-13.7h0c1.6-2.1,3.1-4,4.4-5.4h.1c0-.1,6.8,4.6,6.8,4.6l-12.8,22.7c3.2.1,6.5.1,9.7.1h2.7c0-.1,2.6-.2,2.6-.2h1.4c.8-.1,2.5-.3,4.2-.5h1.6c1-.2,1.9-.2,2.3-.2h0c4.5.1,6.3.3,7.7.9v-1.1c.2-3.3.3-6.5.3-9.4v-.7c-1,1-2.2,2.2-2.9,3.2l-.6.7c-.3.7-.7,1.4-1,2.2l-7.8-2.9v-.2c.2-.8.7-1.6,1.1-2.5.1-.2.3-.6.5-.8h0c1.4-2.5,2.9-4.6,4.2-6.5,1.4-2.1,2.7-4,3.8-6.3-.9,1.3-1.8,2.6-2.9,4-2.9,4.1-6,8.6-9.4,11.6h0l-6.3-5.2c2.3-4,4.8-7.8,7.2-11.6,2.6-4,5.2-8.1,7.7-12.5,2.5-4.5,4.6-7.7,6.2-10.2l.9-1.4c-1,1.3-1.9,2.5-2.9,3.7-2.2,2.9-4.4,5.5-6.8,8l-7-4c1.8-6.1,18.7-34,31.6-53.4,2.5-3.7,4.9-7.2,7-10.1s3.9-5.4,5.4-7h.1c0-.1.1-.2.1-.2l3.5-3.7,7,4c-1.6,5.5-7.2,15.3-12.3,21.9l-.9,1.3,3.5,1.4c6.2,2.4,9.4,8.5,11.9,15.3h5.2c1,.1,2.1.2,3,.3-.3-.5-.6-.9-.8-1.3h0v-.2c-10.8-18.9-5.6-23.4,1.1-29.1,1.9-1.6,3.9-3.3,5.3-5.8,2.1-3.7,1.5-5.2.7-7.1-.8-2.1-1.8-4.4-1.9-8-.5-7.2,1.1-10.1,2.6-12.6.7-1.1,1.3-2.3,1-4.7l-.6-7.4,6.6,3.4.9.5c.7.1,1.5.3,2.2.7l.6.2c6.2,1.7,8.2,3.9,7.9,5.6,1.4,1.8.9,3.2-2.4,3.3l10.2,16.1h.1c5.5,9.7,16.1,26.7,25.3,39.5,1.9,2.7,3.5,5.2,5,7,1.6,1.9,3,3.8,4.4,5.4h0l2.2,2.4c4.7,5.4,7.1,9,8.7,11.4,1.4,2.1,1.6,2.5,3.5,2.5l1.7.3c3.4,1.6,4.6,3,6.5,5.4h0c.5.6,1,1.3,1.9,2.3,1.8,2.2,2.7,2.9,3.9,3.9,1,.8,2.2,1.9,3.8,3.4h0l2.6,2.5,4.9-4.7c6,2.9,9,5.7,12.8,9,3.5,3.1,7.6,6.8,15.3,11.2l.3.2.3.2c.9.6,1.9,1.4,2.5,3.4v-.2c.1,0,.2-.1.2-.1l.3.2h.1c.6.6,1,1,1.4,1.6h.6c0,.1-.1.8-.1.8v.3c.2-.6.3-.9.3-.9l-.2,1c.3,1.3.1,2.3-.6,3.3,3.7.6,7.1,1.1,10.6,1.6,5.8.7,11.9,1.4,18.3,2.1,3.9.5,7.8.7,11.8.9,7,.3,13.9.8,20.6,2.1h.7c.6.2,1,.5,1.6.6h.5c0,.1.1.1.1.1h.3c0,.1,3.5,1.6,3.5,1.6l-1.5,7.9h-3.9c3.5.7,6.5,1.4,8.8,2.2h.1l-1.5,8h-1.7l1.3,7.3-.7.2c.3.3.6.7.9,1l1.9-6c.3-1.7.6-3,.7-4.2.3-2.9.7-5.2,1.7-8.1l2.2-5.7,4.5,4c.9.8,1,.9,1.1,1h0c3,.9,2.7,1.4,3,3.5,0,.1.1.5,1.3,2.9,7.9,16.9-4.7,42.4-14,60.7-2.1,4.1-4,8-5.3,10.9h0l-1.5,3.4c-3.4,8-4.5,10.6-11,12l2.9,2.1-2.5,3.3-5,6.9c-1.4,3-2.5,6-3.7,8.9-2.2,5.6-4.2,11.1-8,16.7-12.3,18.5-14.4,19.6-19.2,18.9-.1.7-.2,1.4-.3,1.9v.2c0,.3.1,1,.3,2.3l.6,3.4-3.2,1.3c-1.6.6-3.4,1.1-5.3,1.5l-.8,2.1c1.7-1.9-6.2-1,8.9,8.9-7.4.6-8.9,1.8-14.5-1.4-.6.1-1.6.3-4,1-.3.1-.8.1-1.3.2h.1c0,.1.1.1.1.1l4.6,3.4-4.7,3.2c-1.9,1.4-6.9,2.3-13.1,3,1.4,1.4,2.5,3.2,3.3,5.4l1.3,3.5-3.4,1.6c-1.7.8-4.9,1.4-9.4,1.8l.2.2h0l3.3,3.3-3.7,2.9c-.6.5-1.3.9-1.8,1.1h-.2c0,.1-.1.2-.1.2h-.1c0,.1-.1.2-.1.2h-.3c-.5.3-.9.6-1.5.9h0l-1.5.2h-7c.5.5.7.7,1.1,1.1h0c.1.1.2.3.7.7l4.6,3.7-5,3.1c-2.2,1.3-5.8,2.3-10.8,2.9.5.7,1,1.5,1.6,2.4l2.3,3.9-4.1,1.9c-1.9.9-5.3,1.5-9.6,1.9l5,2.9-5.7,3.7-.6.5c-1.6,1-2.2,1.4-6.2,2.3h-.8c0,.1-6.4.3-6.4.3.5.2.9.5,1.3.7h.1c0,.1,6.9,3.5,6.9,3.5l-6.6,3.9c-1.4.8-4,1.5-7.4,1.9l-1.1,2.5c-4.6,10.4-9.2,12.1-15,11.3l2.2,5.3h-6.2c0-.1-115.6-1.6-115.6-1.6-5.4.3-10.9,0-15.9-.1h-2.5c0-.1-6.9-.2-6.9-.2v-8.2c1.9-.1,4.5,0,7.3.1l18.8.2c4.5-.2,8.2-.9,10.3-2.4h-.1c0-.1-.6,0-1.5,0-1.5.1-3.7.3-6.8.3h-11.6c-11.7.1-23.1.2-34.8-1.1l-.7-8c5.2-1.5,9.4-1.5,13.1-1.5s4.7,0,6.6-.8l-5.2-2.7,1.8-7.8h3.7c1.6,0,2.7,0,3.8-.2-5.8-1.6-14.4-1.3-22.2-.9-4,.2-7.9.3-11.3.2h.2l-1-8.1c2.4-.8,5-1.1,7.4-1.5-1.5-.1-3.1-.2-4.9-.3l-4.5-.3c-.6.2-1.3.3-2.1.3s-1.5-.3-2.2-.7h-.2v-.2c-1.1-.7-1.8-1.8-2.3-2.9-.8-1.8-.7-3.9.2-5.3-1.7-1.3-5-1.8-8-2.2-2.1-.2-4-.6-5.7-1h-.3c0-.1-.1-.1-.1-.1l-3.5-1.1c-1.6-.5-2.4-.7-3-1.1h0c-2.9-1.9-3.4-3.1-2.9-4.2-.2.1-.3.1-.3.1-5.7-4.4-18-4.2-29.1-4.1-5.2,0-10.1,0-14.2-.3h-.2v-8.2l15.8-1.5c-2.7-.9-5.6-.9-9.6-.9h-6.9l-1.3-1.7c-1.5-2.2-2.2-3.8-2.5-5.2-5.5-.3-8.8-1.1-12.3-1.9-2.6-.7-5.3-1.3-8.9-1.7-6.5-.7-14.4-.5-21.8-.3-2.7,0-5.4.1-8,.1l-2.6-7.3c.9-.8,1.8-1.6,2.6-2.1-10.8-1.6-19.1-.5-25.9.6-10.1,1.5-17.2,2.5-23.8-5l-3.5-4.1,4.8-2.3,2.5-1.3c-1-.3-1.5-.6-1.9-1-1.1-.8-1.3-1.3-1.6-2.1,0,0,0,.1-.1-.2l-2.7-3.1-4.2,3.5c-1.5,1.3-2.6,2.2-3.8,3,.8.3,1.6.8,2.4,1.3l5.4,3.2-5.2,3.7c-5.7,4.1-15.7,3.1-27.2,1.9-8.9-.9-18.8-1.9-27-.6l-2.5,9.3c25.1,17.3,41,17.6,54,17.7,12.1.2,22.1.3,34.1,11.4,1.6,1.6,5,5.3,7.3,8.8.3.7.8,1.5,1.3,2.3s.7,1.7.9,2.5h0c1.3,4.8,1.3,7.7.6,9.5.2.2.6.5.9.8l.2.2c2.2,2.2,4.5,4.1,6.8,6.2,4.9,4.2,10,8.7,14.4,15.5l.8,1.3c6.1,9.3,9.2,14.2,16.9,21.4,1,1,2.1,1.9,2.9,2.9,2.3,2.4,4.4,4.5,8.4,6.9,7.6,4.9,13.1,9.4,17.3,15.2,4.1,5.8,6.9,12.8,8.7,22.7l.9,5h-5.2c0-.1-3.8-.2-3.8-.2-2.3,0-3.3,0-4-.3h-.1c-4.5-1.5-3.8-3.1-2.6-5.7h0c.3-.9-1.1,2.7-1.3,2.7-1.7-.7-3.3-1.3-4.9-1.8-1.6-.6-3.3-1.1-4.7-1.7l-8-3.1,7.4-4.2,2.2-1.3-2.3-1.7-.9-.9-1.3-1.8h0c-1.8-2.6-2.6-3.7-7.1-4.7l-1-6.9c-10.6-1.3-15.6,4.6-20,9.7-4.8,5.7-9.3,10.8-17.7,9.8l-4.5-.6.9-4.5,1.8-8.2c-5.8.2-10,1.5-13.2,2.5-2.7.8-5,1.6-7.6,1.6h-.7l-25.3-3.9-8.4-1.4,6.2-5.7.6-.6c-7-.1-13.2-.7-17.7-2.3h-.1l.2-7.2c-5.7-.2-11-.5-15.6-1.1h-.1l-1.8-7.4.3-.2c-1.8-.1-3.4-.1-5-.2-2.9-.2-5.5-.3-7.8-.5h-1.3c0-.1-9.5-.8-9.5-.8l7-6.4c.3-.3.7-.8,1.1-1-5.2-.5-10.2-1.3-14.9-2.2l-8-1.6,6.1-5.5c.9-.8,1.5-1.3,1.8-1.7-7.4-.8-13.2-1.9-16-3.9h-.1l-5-3.5,3-1.8c-3.3-.8-6.1-2.2-8.2-3.8h0c-.6-.5-1.1-.9-1.7-1.4s-1-.9-1.4-1.4h-.2c0-.1-4.8-5.2-4.8-5.2h.3c-2.9-.8-5-1.6-6.3-2.6h-.1l-4.7-3.7,3.5-2.1c-3.7-.9-7-2.7-9.6-5.7l-3.2-3.8.9-.6c-2.7-.6-5.3-1.3-7.8-2.2h-.1l-4.5-1.7,2.4-4.1c.6-1.1.9-.6.9-.8l-.2-.7h0c-.1-.7-.3-1.3-.3-1.8-3-.5-5.4-1-7.1-1.6l-4-1.4,1.5-4c.3-.9.7-1.7.9-2.3l-7.7-1.6-7.3-1.6,5.2-5.4c.7-.7,1.3-1.3,1.9-1.8-4.2-.8-7.6-1.9-9.7-3.2h-.1c0-.1-5.5-3.4-5.5-3.4l5-3.4c-2.9-.3-5.4-.9-7.4-1.4l-5-1.4,2.5-4.6c.8-1.4,1.4-2.5,2.1-3.5-4.2-1-7.7-2.6-10-4.9h0l-3.4-3.7,3-1.7c-.9-.1-1.6-.2-2.2-.5h0c-3.5-1-3.9-2.6-4.5-5.4-.1-.7-.2-1.6-.9-2.6l-2.2-4.2c-2.5-1.1-4.6-2.6-6.1-4.6l-4.4-5.5,2.3-.3c-1.3-.3-2.3-.8-3.1-1.4h0l-3-1.8,1.4-3.2c.6-1.3,1-2.3,1.6-3.3-1-.1-1.8-.2-2.5-.3-3.9-.9-5.2-2.5-6.5-6-.3-.9-.6-1.6-1-2.6l-1.5-3.9,1.7-.7c-2.9-.7-5-1.5-6.4-2.3l-4.6-3.1,4.2-3.5.6-.5c-2.4-.3-4.1-.7-5.2-1h0l-3.3-1.3.8-3.4c.3-1.5.5-2.1.5-2.2-.1-.3-.2-.6-.2-.9-.2-.9-.3-1.7-.5-2.5l-3.2-.8-2.3-.6-.7-2.3c-1.4-4.7-1.3-6.8-.3-8-6.9-3-7.6-6.2-8.9-13.2-.5-1.9-.9-4.4-1.8-7.2-.6-1.9-1-3.9-1.4-5.6h0c-.3-1.5-.5-2.7-.6-3.9-.5-4.8-.6-6.6-.6-7-.7-.7-1.5-1.5-2.4-2.4l-3.8-3.9,4.8-2.5,2.2-1.1-3.8-3.1,4.2-3.2h.2c0-.1-2.3-.3-2.3-.3-.9-.1-1.8-.2-3-.3l-2.9-.3-.7-2.9c-7-30.2-6-34.1.1-56.3.7-2.2,1.4-4.6,2.5-8.9l.7-2.6,2.9-.3c.6,0,1,0,1.6-.1v-1.4c.1,0,3.1-.7,3.1-.7,7.8-1.6,37.9-19.9,58.7-33.2,3.9-2.4,7.7-4.9,11-7.1,2.9-1.8,5.5-3.5,7.4-4.8h.1c7.8-5.3,41.7-27.6,63-40.9,4.1-2.6,7.8-4.8,10.9-6.5,3.1-1.8,5.5-3,6.8-3.5h.1l5,5.8c-1.8,3.4-11.4,11.3-24.2,20.7,3.4-2.1,6.2-3.5,8-4.2h.1l8.5-2.7-3.4,8.2c-2.1,4.9-22.1,19.7-45,35.5.5-.1.9-.3,1.4-.5h.1l8.7-2.3-3.8,8.1c-.9,1.9-3,4.5-5.7,7.1,2.4-1.1,4.7-2.2,6.5-2.9h.3c0-.1,4.1,7,4.1,7l-4.5,3.4c2.7-1.4,5.4-2.5,7.8-3.1h.2l9.6-2.4-5,8.5c-.3.6-.7,1.3-1.1,1.8l2.1-.7c1.8-.6,3.8-1.3,6.2-2.5,2.9-1.5,4-2.6,5.3-3.7,1.9-1.7,3.9-3.5,9.8-6.2l8.1-3.7-2.4,8.5-1,3.5-.5,1.7-1.6.9c-5.4,2.6-10.3,5.6-15.1,8.7-3.1,1.9-6.1,4-9,6.1,5,.7,7,1,8.1,2.7.7,1,1.1,1.9,1.3,2.6,1.4,0,2.6-.1,3.9-.2h1.8c3,.1,4.8.3,6,.8,2.7.6,3.5,1.1,4.1,1.6.3.3-.7-.5,2.3-.6,5.5-.2,8.7-3,13.6-7.1,5.3-4.5,12.3-10.3,25-16.4,1.6-.8,3.1-1.6,4.5-2.3,7.1-4,13.3-7.4,22.9-2.2l5.4,3-4.8,3.9c-.1.1-.3.3-.6.3v.5c-.1,0-1.9.7-1.9.7l-12.5,4.8h0c-7.7,2.9-17.1,7.3-25.8,11.9l2.4,4.1c1.8,3,.6,4.7-.7,6.4h0c.2.2,1.9-.9,6.4.2.2-.8.5-1.6.7-2.5l1.7-2.4c.1-.1,48.2-31.3,63.1-19.6l5,4-.3.2h.2c1.9.6,4.7,2.2,7.7,4,2.5,1.5,5.2,3.1,7.1,3.9h0l17.3,7.1.6.2.7.5h0l.5.3,3.9,2.2c1.3.7,2.1.9,2.7,1.1,1.5.5,2.6.9,5.4,2.5,1.7,1.1,3.1,2.3,4.2,3.5l-.2-2.7,5.8-1.6c-1.4,0-2.9,0-4.6-.1l-2.7-8.1h0l.8.6Z"
          style="fill: #a49e9d; stroke-width: 0px;" />
      </g>
    </g>
    <polygon
      points="535.5 760.7 486.5 746.1 444.8 827.5 492 914.2 606 988.3 658.6 988.3 723.8 955.8 778.2 921.4 814.4 867.3 819.9 814.8 796.3 773.3 758.3 769.7 733 769.7 665.9 789.5 649.5 813 627.8 832.9 580.7 789.5 535.5 760.7"
      style="fill: #fff; fill-rule: evenodd; stroke-width: 0px;" />
    <path
      d="M651.7,787.2c48.2-20,113.9-48.9,169-11,52.6,36.1,44.9,103.4,5,148.7-25.8,29.2-83.5,66.2-132.4,85.5-37.3,14.8-44.3,19.1-84.7,7.2-26.4-7.8-58-20-79.3-32.4-121.6-70.5-146-168.6-64-280.7,30.9-42.4,71.4-73.4,106.5-111.5,25.4-27.7,80-84.8,79.5-141.3-23.7,39.5-18.1,38.2-59.1,74-22.9,20-50,39.7-75,58.2-47.5,35-103.8,81.5-134.6,134.6-83.6,144,2.4,274.3,153.2,324,20.6,6.8,85.2,27,107,26.7,24.2-.2,86.4-19.8,108.2-28.6,66.7-26.9,123.9-63.4,154.7-114.8,41.2-68.6,32.1-155.4-39.6-179.4-64.8-21.8-180.7,4.5-214.3,40.9"
      style="fill: #cc3634; fill-rule: evenodd; stroke-width: 0px;" />
    <path
      d="M712.9,774.4c123.3,7.6,94.2,103.5,23.9,155.7-16.9,12.6-77.4,49.3-102,46.5-32.5-3.9-83.9-30.8-104.2-47.1-74-59.4-55.2-137-6.2-208.3,33.1-48.2,110.9-112.5,117.4-183.9-80.5,127.3-251.9,193-202.6,335.1,21.3,61.4,95.5,104.8,152.2,126.6,29,11.2,41.3,19.2,71.8,8.5,274.8-96.9,188.3-285.4,49.8-233.2"
      style="fill: #eb6526; fill-rule: evenodd; stroke-width: 0px;" />
    <path
      d="M492.7,825.9c41-65.3,139.1-71.1,162.3-180,5.6-25.9,6.1-82.2-2.6-105.3-8.9,74.4-26.4,113.8-66.2,157.7-24.2,26.4-97,81.1-93.5,127.7"
      style="fill: #eb6526; fill-rule: evenodd; stroke-width: 0px;" />
    <polygon points="575.2 1108.6 703.4 1108.9 703.7 1083 575.3 1082.6 575.2 1108.6"
      style="fill: #cc3634; fill-rule: evenodd; stroke-width: 0px;" />
    <polygon points="593.9 1144.3 684.6 1144.7 684.4 1118.2 595.3 1118 593.9 1144.3"
      style="fill: #cc3634; fill-rule: evenodd; stroke-width: 0px;" />
    <path
      d="M1078.6,646.3l19-4.7,22.1-23.1,2.6,10.8-15.2,15,20.5,6,2.6,10.5-30.5-10-19,4.7-2.2-9.2h.1ZM1067.8,606.6l36.6-12.6-4.5-13.1,7.4-2.5,12,34.9-7.4,2.5-4.6-13.1-36.5,12.6-3.1-8.8h0l.1.1ZM1057.5,579.4l43.2-17.4,3.5,8.7-43.2,17.4-3.5-8.7h0ZM1041.5,543.5l41.9-19.5,3.9,8.5-34.8,16.1,9.8,21.2-7.1,3.3-13.7-29.7h0v.1ZM1047.3,514.3l11.8-14.2-18.2,3.2,6.4,11h0ZM1039.9,538.4l-5.2-8.8,7.1-8.8-9.4-16-11.1,1.9-5-8.6,49.5-7.6,5,8.6-30.9,39.3h0ZM993.5,466.9l37.7-27.4,20.3,27.8-6.3,4.6-14.8-20.3-8.4,6.1,13.7,18.9-6.3,4.6-13.9-18.9-10.2,7.4,15.3,21-6.4,4.7-20.8-28.5h.1ZM989.6,421.1l4.6,5.3c3,3.4,4.9,5.4,6,6.1,1,.6,2.2.8,3.2.7s2.2-.6,3.2-1.6c1.3-1,1.8-2.2,2.1-3.4.1-1.3-.1-2.5-.9-3.9-.5-.6-1.9-2.3-4.5-5.3l-4.8-5.5-8.8,7.7h0l-.1-.1ZM963,431.5l35.3-30.5,12.9,14.9c3.2,3.8,5.4,6.8,6.2,9s.9,4.6.1,7c-.7,2.4-2.2,4.5-4.2,6.3-2.6,2.3-5.5,3.4-8.6,3.3-3,0-6.2-1.5-9.3-4.1.5,2.3.6,4.4.3,6.3s-.9,4.9-2.2,8.9l-3.1,10.3-7.4-8.5,3.2-11.8c1.1-4.2,1.7-7,1.9-8.2.1-1.3,0-2.4-.3-3.4-.3-.9-1.3-2.2-2.7-3.9l-1.3-1.4-14.7,12.7-6.2-7h0l.1.1ZM933.3,372.8c-3.3,4-5,7.9-4.9,11.4.1,3.7,1.6,6.6,4.5,9s6.1,3.3,9.7,2.9c3.5-.5,7.1-2.9,10.5-7s5.2-7.9,5-11.4-1.6-6.5-4.6-8.9c-3-2.5-6.2-3.5-9.7-3s-7.1,2.9-10.5,7M925.8,366.8c3.1-3.7,6.2-6.3,9.3-7.8,2.4-1.1,4.8-1.8,7.4-2.1,2.6-.2,5,0,7.3.7,3,.9,6,2.6,8.9,5,5.3,4.5,8,9.6,8.5,15.5s-1.8,11.7-6.6,17.5c-4.8,5.7-10.2,8.9-16,9.6-5.8.6-11.4-1.3-16.6-5.7-5.4-4.5-8.2-9.6-8.6-15.5-.6-6,1.6-11.7,6.4-17.3M889.2,369.1l22.2-31.6-11.3-7.9,4.6-6.4,30.3,21.2-4.6,6.5-11.2-7.9-22.2,31.7-7.8-5.6h0ZM840.4,339.3l22.6-40.6,8,4.5,1.6,36.4,15.1-27.1,7.7,4.2-22.6,40.6-8.2-4.6-1.7-35.6-14.8,26.6-7.7-4.4h0ZM824,331.3l21.2-41.4,8.4,4.2-21.2,41.4-8.4-4.2h0ZM769.4,294.2l8.9,1.9c-.5,3.1,0,5.6,1,7.4,1.1,1.9,3.1,3.3,5.8,4.2,2.9.9,5.3,1,7.1.2,1.8-.7,3-1.9,3.5-3.5.3-1,.3-1.9,0-3-.3-.9-1.3-1.9-2.6-3-.9-.7-3.1-2.2-6.5-4.2-4.5-2.7-7.3-5.3-8.7-7.7-1.9-3.3-2.3-6.8-1.3-10.2.8-2.3,2.1-4.1,4-5.6,1.9-1.6,4.2-2.4,7-2.7,2.7-.2,5.8.2,9.3,1.3,5.5,1.7,9.4,4.4,11.4,7.7,1.9,3.3,2.4,7.1,1.3,11.1l-9-2.5c.3-2.4,0-4.2-.9-5.7-.9-1.4-2.7-2.5-5.2-3.3-2.6-.9-4.8-1-6.6-.3-1.1.3-1.9,1.1-2.3,2.3-.3,1-.1,2.1.5,3.1.8,1.3,3.2,3.2,7.3,5.6,4,2.5,6.9,4.6,8.7,6.3,1.7,1.8,2.9,3.8,3.4,6.1s.3,4.8-.6,7.7c-.8,2.5-2.3,4.7-4.5,6.4-2.1,1.7-4.7,2.7-7.6,3-3,.2-6.4-.2-10.2-1.5-5.6-1.8-9.5-4.5-11.7-8-2.2-3.4-2.7-7.8-1.7-12.9M714,295.3l10.5-45.2,13.7,3.2,1,32.7,15.3-29,13.7,3.2-10.5,45.2-8.5-1.9,8.2-35.6-17.2,33.5-8.8-2.1-.8-37.8-8.2,35.7-8.6-2.1h0l.2.2ZM694.6,273.7l-4.4-18-8.4,16.4,12.7,1.6h.1ZM709.6,294l-10.2-1.3-2.7-11-18.5-2.3-5.2,10-9.8-1.3,23.6-44,9.8,1.3,13.1,48.5h0l-.1.1ZM624.4,287.1l.8-46.4,34.6.6v7.9c-.1,0-25.3-.5-25.3-.5v10.3c-.1,0,23.4.3,23.4.3v7.8c-.1,0-23.5-.3-23.5-.3l-.2,12.6,26,.5v7.9c-.1,0-35.7-.7-35.7-.7h-.1ZM584.9,262.6l7-.6c4.6-.3,7.3-.7,8.4-1.1,1.1-.5,1.9-1.3,2.5-2.2.6-1,.8-2.2.7-3.5-.1-1.6-.7-2.9-1.6-3.7-.9-.9-2.1-1.4-3.7-1.6-.7,0-3,.1-6.9.3l-7.3.5.9,11.9h0ZM577.5,290l-3.2-46.4,19.7-1.4c4.9-.3,8.6-.1,10.9.6s4.2,2.1,5.7,4c1.5,2.1,2.3,4.5,2.5,7.2.2,3.5-.5,6.4-2.4,8.8s-4.9,4-8.9,4.9c2.1,1,3.8,2.2,5.3,3.5,1.4,1.3,3.4,3.7,5.8,7.1l6.3,8.6-11.2.8-7.4-9.6c-2.6-3.4-4.5-5.6-5.5-6.4-.9-.9-1.9-1.5-3-1.7-1-.2-2.6-.3-4.8-.1h-1.8c0,.1,1.4,19.5,1.4,19.5l-9.3.6h-.1ZM533.5,257.6l5.4,30.3,7-1.3c2.5-.5,4.5-.9,5.5-1.4,1.5-.7,2.6-1.5,3.4-2.5.8-1,1.4-2.7,1.6-4.9s.1-5-.6-8.6c-.6-3.5-1.4-6.2-2.4-8-.9-1.8-2.2-3.1-3.4-3.9-1.3-.9-2.9-1.4-4.6-1.4-1.4-.1-3.9.2-7.7.9l-4.2.7h0v.1ZM522.9,251.5l16.9-3.1c3.8-.6,6.8-.9,8.9-.6,2.9.3,5.4,1.3,7.7,3,2.3,1.6,4.1,3.9,5.7,6.6,1.5,2.7,2.6,6.3,3.4,10.5.7,3.8.8,7.1.3,10-.5,3.5-1.7,6.5-3.5,8.9-1.3,1.8-3.2,3.4-5.8,4.8-1.9,1-4.6,1.8-8,2.4l-17.4,3.1-8.2-45.7h0v.1ZM480.1,292.5l-2.5-7.4,19.3-6.2,5.7,17.6c-1.3,2.4-3.4,4.9-6.6,7.4-3.1,2.5-6.4,4.4-10.1,5.6-4.7,1.5-8.9,1.8-13.1,1-4.1-.8-7.6-2.7-10.4-5.8-3-3-5-6.6-6.5-11-1.5-4.6-1.8-9-1-13.2s2.6-7.9,5.8-11c2.3-2.4,5.7-4.2,9.8-5.6,5.5-1.8,10.2-2.1,14-.7,3.9,1.4,7,3.9,9,7.7l-8.4,4.6c-1.4-1.9-3.1-3.3-5.2-4-2.2-.7-4.5-.7-7.1.2-4,1.3-6.6,3.5-8.1,6.8s-1.5,7.2.1,12.1c1.7,5.3,4.1,8.8,7.3,10.6,3.2,1.9,6.8,2.2,10.4,1s3.7-1.6,5.3-3c1.7-1.4,3-2.7,4-4.2l-1.8-5.6-10.1,3h0l.2.1ZM421.6,334.4l-18.9-42.5,8.4-3.8,30.1,20.6-12.7-28.3,8-3.5,19,42.5-8.7,3.8-29.5-20,12.4,27.7-8,3.5h-.1ZM405.5,342.8l-21.1-41.3,8.4-4.2,21.2,41.4-8.5,4.1h0ZM359.1,371.1l-24.6-39.5,11.9-7.4,24,22.3-9.8-31.3,12-7.4,24.7,39.4-7.4,4.6-19.5-31,11.6,36-7.7,4.8-27.2-26.1,19.5,31-7.4,4.7h0l-.1-.1ZM313.1,372.9l5.5-4.2c3.5-2.7,5.7-4.7,6.3-5.7.7-.9.9-2.1.9-3.2-.1-1-.5-2.2-1.4-3.3-.9-1.3-2.1-1.9-3.3-2.3-1.3-.2-2.6,0-3.9.8-.6.3-2.5,1.7-5.5,4.1l-5.8,4.5,7.2,9.4h0v-.1ZM322.3,399.7l-28.6-36.6,15.7-12.1c3.9-3.1,7-5,9.3-5.6,2.3-.8,4.7-.7,7.1.1,2.3.8,4.4,2.3,6.1,4.5,2.2,2.7,3.1,5.6,3,8.7-.2,3.1-1.7,6.1-4.6,9,2.3-.2,4.5-.3,6.4,0s4.8,1.3,8.9,2.6l10.1,3.7-8.9,6.9-11.6-3.8c-4.1-1.4-6.9-2.1-8.1-2.3s-2.4-.1-3.4.2c-1,.3-2.4,1.3-4.1,2.5l-1.5,1.1,11.9,15.2-7.6,5.8h0l-.1.1ZM275.5,412.2c3.5,3.9,7.2,6,10.9,6.3s6.9-.7,9.6-3.3c2.7-2.5,4.1-5.6,4-9.3-.1-3.5-1.9-7.3-5.7-11.2-3.7-3.9-7.2-6-10.6-6.4-3.5-.3-6.6.9-9.5,3.4-2.9,2.6-4.2,5.7-4.1,9.3,0,3.5,1.9,7.3,5.5,11.2M268.7,419c-3.2-3.4-5.5-6.9-6.5-10.2-.9-2.4-1.3-5-1.3-7.7s.6-4.9,1.6-7.1c1.3-2.9,3.3-5.6,6.1-8.2,5-4.7,10.5-6.9,16.4-6.5,6,.3,11.4,3.2,16.7,8.7,5.2,5.5,7.7,11.2,7.6,17.1s-2.6,11.2-7.7,15.8c-5,4.7-10.5,6.9-16.4,6.5-6.1-.1-11.6-3-16.5-8.4M260,465.2l-35.3-30.5,21-24,6,5.2-14.8,16.9,8.4,7.2,12.7-14.7,6,5.2-12.7,14.7,14.9,12.9-6.1,7.1h-.1ZM221.4,493.1l4.7-7.9c2.7,1.4,5.3,1.7,7.4,1.3,2.2-.6,4-1.9,5.7-4.2,1.8-2.4,2.6-4.6,2.5-6.6-.1-1.9-.9-3.4-2.3-4.5-.9-.7-1.8-.9-2.9-.8-1,.1-2.2.6-3.5,1.6-1,.6-3,2.3-6.1,4.8-4,3.3-7.3,5.3-10,5.8-3.8.8-7.1.1-10.2-2.1-1.9-1.4-3.3-3.2-4.1-5.5-.9-2.3-1-4.8-.5-7.4.7-2.6,1.9-5.5,4.1-8.4,3.4-4.8,7.1-7.6,10.9-8.5s7.4-.1,11.1,2.3l-5.3,7.8c-2.1-1-4-1.4-5.6-.9-1.7.5-3.2,1.7-4.8,3.9-1.6,2.2-2.4,4.2-2.4,6.2s.5,2.2,1.4,2.9c.9.7,1.9.8,3.1.5,1.5-.3,4-2.1,7.6-5.2s6.4-5.2,8.7-6.2c2.2-1,4.5-1.6,6.9-1.4s4.7,1.1,7.1,2.9c2.2,1.6,3.8,3.7,4.8,6.2,1,2.6,1.1,5.3.5,8.1s-2.2,6-4.6,9.2c-3.4,4.8-7.2,7.7-11.3,8.6-4.1,1-8.4.2-12.9-2.4M211.8,541.3l-40.4-23.2,4.6-7.9,36.5-1-26.9-15.5,4.4-7.6,40.3,23.2-4.7,8.1-35.7,1,26.3,15.1-4.4,7.7h0v.1ZM186.1,553.9l-18.3-1.5,12.9,12.9,5.4-11.4h0ZM210.1,546.1l-4.4,9.3-11.3-.8-7.9,16.8,8,7.9-4.2,9-34.5-36.1,4.1-9,50.1,2.9h.1ZM155,611l2.3-6.5c1.4-4.2,2.2-7,2.2-8.1s-.3-2.2-1-3.1-1.6-1.6-3-2.1c-1.5-.6-2.9-.6-4,0-1.1.5-2.2,1.4-2.9,2.7s-1.1,2.9-2.4,6.4l-2.4,6.9,11.2,3.8h0ZM177.5,628.7l-44.1-15.1,6.4-18.7c1.6-4.7,3.2-8,4.7-9.8s3.5-3.1,6.1-3.7c2.4-.6,5-.5,7.6.6,3.3,1,5.7,3,7.2,5.7,1.5,2.6,1.8,6.1,1,10.1,1.8-1.5,3.5-2.6,5.3-3.4,1.8-.8,4.7-1.6,8.9-2.6l10.4-2.4-3.7,10.5-11.8,3.1c-4.2,1.1-6.9,1.9-8.1,2.5-1.1.6-2.2,1.3-2.7,2.1-.7.8-1.4,2.3-2.1,4.2l-.6,1.8,18.4,6.4-3,8.7h.1ZM171.4,657.3l-37.8-8.7-3.1,13.4-7.7-1.7,8.4-36,7.7,1.8-3.1,13.4,37.8,8.7-2.2,9h0v.1Z"
      style="fill: #bd2729; stroke-width: 0px;" />
    <path
      d="M626.3,346.3h0c-111.9,0-213.1,45.2-286.5,118.3-73.3,73.2-118.6,174.1-118.6,285.5h0c0,111.5,45.3,212.5,118.6,285.5,73.3,73.2,174.6,118.4,286.3,118.4h.1c111.7,0,213-45.2,286.3-118.3,73.3-73.2,118.7-174.1,118.7-285.5h0c0-111.5-45.3-212.5-118.7-285.7-73.2-73-174.5-118.3-286.3-118.3M626.3,335.1h0c114.9,0,219,46.5,294.2,121.6,75.3,75.1,121.9,178.8,121.9,293.4h0c0,114.7-46.6,218.4-121.9,293.6-75.3,75.1-179.4,121.6-294.2,121.6h-.1c-114.9,0-219-46.4-294.4-121.6-75.1-75.1-121.7-178.8-121.7-293.4h0c0-114.6,46.6-218.3,121.8-293.4,75.3-75.2,179.4-121.6,294.4-121.7h0v-.1Z"
      style="fill: #020202; stroke-width: 0px;" />
    <path
      d="M1102,855l2.4-19.2,20.4-8.9-17.6-13.7,2.3-19.1,30.1,25.9,23.6,2.9-2.2,17.4-23.6-2.9-35.4,17.7h0v-.1ZM1085.6,908l13.7-51.3,13.5,3.5-4.6,17.3,41.3,11-4.6,16.9-41.2-11-4.6,17.2-13.6-3.7h0l.1.1ZM1075.1,933.7l6.3-16.4,53,20.3-6.3,16.4-53-20.3h0ZM1081.5,1007.5l6.6-15.3c2.5.9,4.7,1.1,6.5.8,2.9-.5,5-2.3,6.5-5.3,1.1-2.2,1.5-4.1,1.1-6-.5-1.7-1.4-3-2.7-3.7-1.3-.7-2.7-.7-4.4,0-1.6.6-4,2.7-7,6.4-5,6.1-9.6,10-13.6,11.6-4.1,1.6-8,1.5-12-.6-2.6-1.3-4.7-3.3-6.2-6.1-1.5-2.6-2.2-5.8-1.9-9.5.2-3.7,1.7-8.1,4.4-13.4,3.3-6.4,7-10.8,11.2-12.9,4.1-2.2,8.9-2.2,14.5-.2l-6.6,15.1c-2.5-.8-4.6-.8-6.2,0-1.6.7-3.1,2.2-4.2,4.4-.9,1.8-1.3,3.4-.9,4.7.2,1.3,1,2.3,2.1,2.7.8.5,1.7.3,2.7,0s2.5-1.8,4.5-4.4c4.9-6.1,8.9-10.2,12-12.4,3-2.2,6-3.4,8.9-3.5,2.9-.2,5.7.3,8.5,1.7s5.7,4,7.7,7.3c1.8,3.2,2.6,6.8,2.4,10.6-.2,3.9-1.6,8.4-4.1,13.2-4.5,8.6-9,13.7-14.1,15.2-5.2,1.8-10.3,1.6-15.7-.6M1043.8,1039.1l3.9-6.3c.5-.7,1-2.1,1.8-4.4.5-1.1.5-2.2,0-3.3s-1.1-2.1-2.2-2.6c-1.6-.9-3-1.3-4.5-.8s-3,2.1-4.7,4.8l-4.1,6.5,9.7,6.1h.1ZM1063.1,1071.9l-48.1-30,15.5-24.7c2.9-4.6,5.4-7.9,7.8-9.8,2.3-1.9,5-3,8-3.1,3.1-.1,6.1.7,9.2,2.6,2.6,1.7,4.6,3.7,5.8,6,1.3,2.4,1.8,4.9,1.8,7.7s-.5,3.9-1.4,6.4c1.7-1.4,3.1-2.3,4.2-2.9s2.1-.6,4-.7c1.9-.2,3.4-.3,4.2-.2l18.4,1.5-10.4,16.8-19.7-1.3c-2.5-.1-4.4,0-5.4.3-1.4.6-2.5,1.6-3.4,3l-.8,1.4,19.5,12.1-9.3,14.9h.1ZM976.4,1085.2l30.2-36,9.3,7.8-18.9,22.4,6.9,5.8,17.6-20.8,8.8,7.4-17.5,20.8,8.6,7.1,19.5-23.1,9.8,8.2-30.8,36.5-43.5-36.3h0v.2ZM927.6,1129.8l13.9-12,36.5,22.3-17.3-38.9,13.5-11.7,21.3,56.6-14.3,12.5-53.6-28.7h0v-.1ZM905.1,1145.9l14.2-10.4,33.3,45.8-14.2,10.3-33.3-45.7h0ZM846.2,1181.5l14.2-8.2,34.2,16.5-15.7-27.1,14.3-8.2,28.4,49-14.3,8.2-34-16.4,15.6,26.9-14.3,8.2-28.4-48.9h0ZM820.2,1193.4l16.3-6.5,12.6,31.3c1.3,3.1,1.9,6.2,2.2,9.4.1,3.1-.3,6.2-1.6,9-1.3,3-2.9,5.2-4.8,7-2.6,2.5-6.2,4.6-10.6,6.4-2.5,1-5.4,1.9-8.6,2.9s-6.1,1.3-8.5.9c-2.5-.2-5-1-7.4-2.3-2.5-1.3-4.5-2.7-6-4.7-2.4-3-4-5.6-5.2-8.2l-12.6-31.3,16.3-6.6,12.9,32.1c1.1,2.9,2.9,4.8,5.2,5.7,2.3,1,4.7.9,7.6-.2,2.7-1.1,4.7-2.9,5.6-5,.9-2.3.8-4.8-.3-7.7l-12.9-32.1h0l-.2-.1ZM709.9,1226.9l17.1-3.9,9.6,41.6,26.7-6.2,3.1,13.6-43.9,10.1-12.6-55.2h0ZM654.9,1234.3l17.4-2.5,6,42.2,27-3.8,1.9,13.7-44.5,6.2-7.8-55.9h0v.1ZM621.9,1233.6l17.5-.7,1.9,56.6-17.5.6-1.9-56.4h0v-.1ZM555.1,1229l17.5,1.5-1.7,19.8,19.1,1.6,1.7-19.7,17.5,1.5-4.9,56.4-17.6-1.6,2.1-22.8-19.1-1.6-1.9,22.8-17.4-1.6,4.8-56.3h-.1ZM492.2,1251.4l-.3-21.3-11.7,17.9,12,3.4h0ZM492.3,1264.1l-19.2-5.5-5.3,8.2-17.2-4.9,36.2-48.5,18.3,5.3,4.8,60.3-17.6-5v-9.8h0v-.1ZM422.3,1214.5l6.8,3.1c.7.3,2.2.7,4.5,1.3,1.1.2,2.3.1,3.3-.5s1.8-1.4,2.4-2.5c.8-1.7.9-3.2.2-4.6s-2.4-2.7-5.3-4.1l-7-3.2-4.9,10.5h0ZM392,1237.6l24-51.3,26.4,12.4c4.9,2.3,8.5,4.5,10.6,6.5,2.2,2.1,3.5,4.6,4.1,7.7.6,3,0,6.1-1.5,9.4-1.4,2.9-3.1,5-5.3,6.5-2.2,1.5-4.7,2.4-7.3,2.6-1.7.2-3.9,0-6.5-.6,1.6,1.5,2.6,2.7,3.2,3.9s.8,1.9,1.3,3.8.8,3.3.8,4.2l.7,18.4-18-8.4-1.1-19.6c-.1-2.4-.5-4.2-1-5.3-.7-1.3-1.8-2.3-3.3-3l-1.4-.7-9.7,20.8-16-7.6h0v.3ZM363.5,1157.3l40.8,23.4-6.1,10.5-25.4-14.7-4.5,7.8,23.6,13.6-5.7,10-23.6-13.5-5.6,9.6,26.1,15.1-6.4,11.1-41.4-23.8,28.3-49.1h-.1ZM302.8,1154.4l8.6,13.5c-3.5,2.5-7.2,4.2-10.8,4.9-3.5.7-7.1.6-10.5-.5s-7.1-3.2-11-6.5c-4.7-4-7.9-8-9.6-11.9s-2.3-8.5-1.4-13.7c.8-5.3,3.5-10.5,8.1-15.8,6.2-7.1,12.8-10.9,19.9-11.4,7.1-.6,14.1,2.2,21,8.1,5.4,4.7,8.7,9.5,9.8,14.3,1.3,4.9.6,10.2-1.8,16l-14-7.6c.8-1.6,1.1-3,1.3-4,.1-1.6-.1-3.2-.7-4.6-.6-1.5-1.6-2.9-3-3.9-3-2.6-6.3-3.3-10-2.4-2.7.7-5.8,3-9.2,6.9-4.1,4.8-6.2,8.6-6.3,11.6s1.1,5.7,3.8,7.9c2.5,2.2,5.2,3.2,7.7,2.9,2.3-.3,5-1.6,8-3.8M273.8,1081.9l11.9,12.8-41.4,38.6-11.9-12.8,41.4-38.6h0ZM229.1,1028.6l10.8,13.7-15.7,12.1,11.8,15.1,15.7-12.1,10.9,13.9-44.7,34.8-10.9-13.9,18.1-14.1-11.8-15-18.1,14.1-10.8-13.7,44.7-34.9h0ZM187.1,1007.3l2.1,3.7c1.6,3,3.3,4.8,5,5.4,1.7.7,3.3.6,4.9-.3s2.6-2.1,3.1-3.8c.5-1.6,0-3.9-1.6-6.8l-2.4-4.4-11.1,6.2h0ZM199.7,980.3l14.2,25.4c3.1,5.5,4,10.4,3,14.7-1,4.3-4.1,7.7-8.9,10.4-5,2.7-9.7,3.4-14.2,1.9s-8.5-5.3-11.9-11.4l-4.7-8.4-18.3,10.2-8.6-15.3,49.5-27.5h-.1ZM153,965.1l16.1-14-21.2,2.5,5,11.4h0l.1.1ZM143.2,973.5l-8.1-18.2-9.7,1.4-7.3-16.4,60.5-3.5,7.8,17.4-43.2,42.4-7.4-16.7,7.6-6.3h0l-.2-.1ZM137.3,887.1l1.9,7.1c.2.8.9,2.2,1.9,4.4.6,1,1.4,1.8,2.4,2.3s2.3.6,3.4.2c1.8-.5,3-1.4,3.7-2.7s.6-3.5-.3-6.6l-1.9-7.4-11.1,2.9h0v-.2ZM100.1,878.8l54.8-14.7,7.6,28.1c1.5,5.3,2.1,9.4,1.8,12.4-.1,3.1-1.3,5.7-3.2,8s-4.7,4-8.1,4.9c-3.1.8-5.8.9-8.5.2-2.5-.7-4.8-2.1-6.8-3.9-1.3-1.3-2.5-3-3.8-5.4-.2,2.2-.5,3.9-.8,4.9-.3.8-1,1.9-2.2,3.5-1.1,1.6-2.1,2.6-2.9,3.3l-13.6,12.4-5.2-19.1,14.3-13.5c1.8-1.7,3-3.1,3.4-4.2.6-1.4.6-3,.1-4.5l-.3-1.5-22.2,5.8-4.6-16.8h0l.2.1ZM111,831.3l11.7-2.1,4.7,26.6-23.8,4.2c-4.4-4.5-7.6-8.6-9.5-12.3s-3.4-8.2-4.4-13.6c-1.3-6.5-1-12.1.6-16.7,1.5-4.6,4.2-8.5,8.4-11.4,4.1-3.1,8.9-5.2,14.8-6.2,6.1-1,11.6-.7,16.6,1s9,4.8,12.3,9.3c2.5,3.4,4.2,8.4,5.4,14.8,1,6.2,1.4,10.9.7,14.1-.6,3.2-1.8,6.1-3.9,8.5-1.9,2.5-4.7,4.5-8.1,6.2l-5.8-16c1.9-1.1,3.3-2.5,4.2-4.4.8-1.8,1-4,.6-6.5-.7-3.8-2.5-6.6-5.5-8.4-3.1-1.8-7.3-2.2-13.1-1.1-6.1,1-10.2,3-12.4,5.7-2.2,2.6-3,6.1-2.2,10.2.3,1.9.9,3.8,1.8,5.4.8,1.6,2.2,3.5,3.9,5.5l5.3-.9-2.2-11.8h0l-.1-.1Z"
      style="fill: #fff; stroke-width: 0px;" />
  </g>
  <g>
    <path
      d="M1746.6,426.2v7.3c-14.4,3.5-24,8.2-29.1,14s-7.6,15-7.6,27.7v60.9c0,5.4.2,11,.6,16.8.3,5.8.7,11.8,1,17.9-20.5,16.7-44,29.2-70.4,37.6-26.4,8.4-56.2,12.5-89.3,12.5-65.7,0-118.4-17.4-158-52.3-39.6-34.8-59.4-81.1-59.4-138.8s20.3-101.7,60.8-136.2,94-51.9,160.4-51.9,57,3.8,84.5,11.2c27.4,7.4,52.8,18.3,76.1,32.5l-32.6,89.4-7.8-1.8c-6-38.1-18.2-66.4-36.9-85-18.7-18.5-44-27.9-76-27.9s-72.5,14.2-93,42.6-30.7,71.1-30.7,128.2,8.8,102.1,26.4,130.2,44.8,42,81.6,42,45.1-6.5,55.5-19.7,15.6-37.7,15.6-73.5-4.2-51.1-12.8-60-25.8-14.4-51.6-16.6v-7.3c15.5.7,31.1,1.3,47.1,1.6s32.1.6,48.3.6,29.7-.2,45.9-.6c16.1-.1,33.3-.7,51.3-1.4h.1Z"
      style="fill: #ec1e24; stroke-width: 0px;" />
    <path
      d="M1785,396.8c0-23.1-1.7-38-5.2-44.4-3.4-6.4-10-10.2-19.7-11.3v-6.4c17.3-2.5,34.5-5.4,51.6-8.6s34.1-6.9,51.1-10.8v60.3c8.5-20.2,18.1-35.1,29.1-45.2s23.1-15.1,36.6-15.1,6.2.1,8.2.2c2.1.2,4.1.5,6.1.8l-24.3,104.5c-2.9-8.9-6.4-15.8-10.5-20.4s-8.9-6.9-14.3-6.9c-10.8,0-18.5,9.5-23.4,28.5-4.8,19-7.1,50.6-7.1,94.6s1.9,51.7,6,64.7c3.9,12.9,10.8,21.1,20.5,24.3v6c-10.6-.6-21.3-.9-31.9-1.3-10.6-.2-21.5-.5-32.5-.5s-22.1.1-33.5.5c-11.4.2-23,.7-34.9,1.3v-6c10.6-4.5,17.9-13.2,22-26,4-12.8,6.1-40.4,6.1-82.9v-100h.1l-.1.1Z"
      style="fill: #ec1e24; stroke-width: 0px;" />
    <path
      d="M2109.2,402.5c0-22.7-3.5-40.2-10.8-52.6s-17.3-18.5-30.2-18.5-26.6,8-38.1,23.9c-11.6,16-22.2,40.2-31.9,72.5h-8.9l-18.1-85.4c17.3-9.2,34.9-16,53.1-20.5,18.1-4.5,36.9-6.8,56-6.8,38.2,0,65.6,9.8,81.9,29.5,16.4,19.7,24.5,52.9,24.5,99.8v107.5c0,13.5,1.4,23.7,4,30.7,2.7,7,7.3,13.5,13.7,19.3l-.2,7.8c-9.4-.3-17.1-.6-23-.8-6.1-.2-11.7-.2-17.1-.2s-9.8,0-15.5.1-14.4.5-26.2.9l-7.3-34.8c-8.5,15.8-18.5,27.2-30.2,34.5-11.7,7.2-25.9,10.8-42.6,10.8-26.9,0-48.9-8.6-65.7-25.6-16.8-17.1-25.3-39-25.3-66.1s11.9-55.1,35.7-71.4c23.8-16.4,58.3-24.5,103.3-24.5s8.8,0,11.4.1,5,.1,7.4.1v-30.3h.1ZM2109.2,449.9c-25.2,0-44,7.1-56.4,21.3-12.5,14.2-18.8,35.6-18.8,64.3s3.1,31.6,9.3,42.1c6.2,10.5,14.3,15.8,24.4,15.8s22.9-8.6,30.3-25.8,11.2-41,11.2-71.6v-46.3h0v.2Z"
      style="fill: #ec1e24; stroke-width: 0px;" />
    <path
      d="M2322.6,591.7v12.9c0,44,2.6,72.1,7.8,84.5,5.2,12.3,14.8,20.4,28.9,24.2v6c-12-.6-23.9-.9-35.8-1.3-11.9-.2-23.7-.5-35.6-.5s-23.5.1-35.3.5c-11.9.2-23.8.7-35.8,1.3v-6c10.6-4.4,18-12.9,22.1-25.9,4.1-12.9,6.2-40.5,6.2-82.7v-200c0-23.4-1.8-38.4-5.4-45-3.5-6.6-10.1-10.4-19.3-11.3v-6c17.6-2.7,34.8-5.7,51.7-9,16.8-3.3,33.4-7,49.6-10.9v43.2c7.9-16.7,18.2-29.3,30.8-37.7,12.7-8.5,27.8-12.7,45.5-12.7,33.1,0,60.2,13.7,81.6,41.3,21.4,27.6,32.1,63.3,32.1,107s-11,79.8-32.9,109.1-48.9,44-80.8,44-30.2-4-42.8-11.9-23.4-19.7-32.3-35.3v22.1h-.1l-.2.1ZM2375.7,587.3c16.5,0,29.7-10.3,39.5-30.8,9.7-20.6,14.7-48.8,14.7-84.5s-4.6-75.1-13.6-97.1-22.4-33-40-33-31,10.5-40.3,31.6-13.9,51.6-13.9,91.7,4.6,70,13.9,90.8c9.2,20.8,22.4,31.3,39.7,31.3h0Z"
      style="fill: #ec1e24; stroke-width: 0px;" />
    <path
      d="M2556.7,289.9c0-23.4-1.8-38.4-5.4-45-3.5-6.6-10.1-10.4-19.3-11.3v-6c17.3-2.7,34.3-5.6,51.3-8.9,16.9-3.2,34.2-6.9,51.9-11v157.3c7.3-17.1,16.6-29.7,27.9-37.7,11.2-8.1,25.1-12.1,41.7-12.1,29.7,0,51.4,11,65.5,32.9,14,21.9,21.1,56,21.1,102.4v31c0,49.3,1.9,81.6,6,96.7,3.9,15.1,11,24.3,21.1,27.5v6c-10.4-.6-21-.9-31.6-1.3-10.6-.2-21.3-.5-31.6-.5s-20.8.1-31.4.5c-10.5.2-21,.7-31.4,1.3l-.2-6c8.1-4.4,13.7-12.4,16.8-24.3s4.7-34.7,4.7-68.5v-57.4c0-38.6-2.7-66.3-8.2-82.9-5.5-16.6-14.5-25-27-25s-23.9,9.5-31.5,28.4c-7.6,19-11.3,45.5-11.3,79.3v25.9c0,51.5,1.6,84.2,4.8,97.9s9,22.4,17.5,26.2v6c-9.7-.6-19.6-.9-29.8-1.3-10.2-.2-20.6-.5-31.4-.5s-21.5.1-32.9.5c-11.3.2-22.9.7-34.8,1.3l-.2-6c10.6-4.5,18-13.2,22.1-26s6.2-40.4,6.2-82.9l-.5-206.7h0l-.1.2Z"
      style="fill: #ec1e24; stroke-width: 0px;" />
    <path
      d="M2850.4,396.8c0-23.1-1.7-38-5.3-44.4-3.5-6.4-10-10.2-19.6-11v-6.8c16.5-2.5,33.3-5.4,50.4-8.6s34.7-6.9,52.8-10.8v182.6c0,42.6,1.8,70.4,5.6,83.3,3.8,13.1,10.5,21.2,20.2,24.4l-.2,6c-10.4-.6-21.1-.9-31.8-1.3-10.8-.2-21.6-.5-32.6-.5s-21.5.1-32.9.5c-11.3.2-22.9.7-34.8,1.3l-.2-6c10.6-4.5,18-13.2,22.1-26s6.2-40.4,6.2-82.9l.2-100h0l-.1.2ZM2850.4,250.8c0-12.3,3.7-22.4,11-30.7,7.3-8.2,16.5-12.4,27.5-12.4s20.4,4.1,28.2,12.5,11.7,18.5,11.7,30.6-3.9,22.7-11.7,31.3-17.2,12.9-28.2,12.9-20.2-4.2-27.5-12.7-11-18.9-11-31.5h0Z"
      style="fill: #ec1e24; stroke-width: 0px;" />
    <path
      d="M3172.6,435.1c-6.3-36.4-14-62.4-22.9-77.9s-20.6-23.1-35-23.1-33,12.3-45,36.8-18.1,56.2-18.1,95,5.7,72.1,17.1,93c11.4,20.8,28.3,31.3,50.8,31.3s26.3-5.3,37.6-15.9c11.2-10.6,20.8-26,28.7-46.4l14.3,6.4c-10.1,27.8-24,49.1-41.9,64-17.9,14.8-38.7,22.2-62.4,22.2-35.7,0-65.6-14.8-89.8-44.4-24-29.7-36.1-66.9-36.1-111.9s12.4-79.8,37.2-107.5c24.7-27.7,57.1-41.4,97-41.4s35,2.9,51.1,8.6,31,14.3,44.9,25.6l-18.9,86.8-8.6-1.1h0v-.1Z"
      style="fill: #ec1e24; stroke-width: 0px;" />
    <path
      d="M3366.3,611.6v-7c15.1-3.2,25.4-11.7,30.8-25.2,5.5-13.5,8.2-45,8.2-94.1v-183.2c0-12.6-2.5-22.1-7.4-28.7-4.9-6.5-13.3-11.3-25.2-14.4v-7.6h3.2c38.2.7,66.9,1,85.6,1h228.5l30.7,92.2-8.1,2.2c-22.8-25.6-48.9-44.7-78.3-57-29.3-12.3-63.4-18.4-102.2-18.4s-15.6,0-19.9.1c-4.4.1-8.4.5-12.1.9v138c6.1.3,12,.7,17.7.8,5.7.2,11.6.2,17.5.2,32.3,0,59-5.3,80-15.8,21.1-10.5,34.5-25.1,40.4-43.7h7.6v137.2h-7.6c-6.3-19.6-19.8-34.5-40.4-44.8-20.6-10.2-47.7-15.3-81.1-15.3s-16.1.1-20.8.2c-4.8.2-9.2.5-13.3.8v49.8c0,50.1,4.1,81.1,12.3,93,8.1,11.9,25.4,17.7,51.9,17.7s63.5-8.2,91.8-24.8c28.4-16.5,55.3-41.7,80.8-75.4l9.4,3.2-35.3,116.4h-227.3c-4,0-10.1-.1-18.3-.2-8.2-.2-14.4-.2-18.5-.2-14.5,0-28.5.2-41.8.6-13.3.5-26.2,1-38.8,1.7h0v-.2Z"
      style="fill: #ec1e24; stroke-width: 0px;" />
    <path
      d="M3780.7,396.8c0-23.1-1.7-38-5.2-44.4-3.4-6.4-10-10.2-19.7-11.3v-6.4c17.3-2.5,34.5-5.4,51.6-8.6s34.1-6.9,51.1-10.8v60.3c8.5-20.2,18.1-35.1,29.1-45.2s23.1-15.1,36.6-15.1,6.2.1,8.2.2c2.1.2,4.1.5,6.1.8l-24.3,104.5c-2.9-8.9-6.4-15.8-10.5-20.4s-8.9-6.9-14.3-6.9c-10.8,0-18.5,9.5-23.4,28.5s-7.1,50.6-7.1,94.6,1.9,51.7,6,64.7c3.9,12.9,10.8,21.1,20.5,24.3v6c-10.6-.6-21.3-.9-31.9-1.3-10.6-.2-21.5-.5-32.5-.5s-22.1.1-33.5.5c-11.4.2-23,.7-34.9,1.3v-6c10.6-4.5,17.9-13.2,22-26,4-12.8,6.1-40.4,6.1-82.9v-100h.1l-.1.1Z"
      style="fill: #ec1e24; stroke-width: 0px;" />
    <path
      d="M4104.9,402.5c0-22.7-3.5-40.2-10.8-52.6-7.2-12.4-17.3-18.5-30.2-18.5s-26.6,8-38.1,23.9c-11.6,16-22.2,40.2-31.9,72.5h-8.9l-18.1-85.4c17.3-9.2,34.9-16,53.1-20.5,18.1-4.5,36.9-6.8,56-6.8,38.2,0,65.6,9.8,81.9,29.5,16.4,19.7,24.5,52.9,24.5,99.8v107.5c0,13.5,1.4,23.7,4,30.7,2.7,7,7.3,13.5,13.7,19.3l-.2,7.8c-9.4-.3-17.1-.6-23-.8-6.1-.2-11.7-.2-17.1-.2s-9.8,0-15.5.1-14.4.5-26.2.9l-7.3-34.8c-8.5,15.8-18.5,27.2-30.2,34.5-11.7,7.2-25.9,10.8-42.6,10.8-26.9,0-48.9-8.6-65.7-25.6s-25.3-39-25.3-66.1,11.9-55.1,35.7-71.4c23.8-16.4,58.3-24.5,103.3-24.5s8.8,0,11.4.1,5,.1,7.4.1v-30.3h.1ZM4104.9,449.9c-25.2,0-44,7.1-56.4,21.3-12.5,14.2-18.8,35.6-18.8,64.3s3.1,31.6,9.3,42.1,14.3,15.8,24.4,15.8,22.9-8.6,30.3-25.8,11.2-41,11.2-71.6v-46.3h0v.2Z"
      style="fill: #ec1e24; stroke-width: 0px;" />
  </g>
  <g>
    <path
      d="M1449.2,900.6c3.3.3,7.6.6,12.5.8,4.9.1,13.9.2,26.8.2h30.9c6.1,0,12.4-.1,18.8-.2,6.4-.1,13.3-.3,20.5-.6v-75.2c0-8.7-1.8-15.3-5.4-20.2-3.5-4.7-9.3-7.9-17.2-9.7v-5.3c8.8.5,17.7.9,26.7,1.1,9,.2,18.2.3,27.5.3s18.4-.1,27.5-.3c9-.2,18.2-.6,27.5-1.1v5.3c-7.9,1.4-13.7,4.5-17.4,9.2s-5.5,11.6-5.5,20.7v127.4c0,32.6,1.9,53.9,5.7,64,3.9,10,11.1,16.1,21.6,18.5v4.8c-8.1-.3-16.5-.7-25.2-.8-8.7-.2-20.2-.2-34.2-.2s-25.5.1-34,.2c-8.5.2-16.7.5-24.7.8l-.2-4.8c10.4-2.1,17.5-7.9,21.4-17.2,3.9-9.4,5.7-31.1,5.7-65.3v-37.4c-4.1-.2-8.7-.5-14-.6s-13.6-.2-25.3-.2h-30.9c-11.7,0-20.2.1-25.3.2-5.3.1-9.8.3-14,.6v37.4c0,33.4,1.9,54.8,5.7,64.3,3.9,9.5,11.1,15.6,21.6,18.2v4.8c-8.2-.3-16.7-.7-25.6-.8-8.9-.2-20.6-.2-35.3-.2s-25.2.1-33.4.2c-8.2.2-16.1.5-23.7.8v-4.8c10.4-2.3,17.5-8,21.3-17.4s5.7-31,5.7-65.1v-127.7c0-8.7-1.7-15.3-5.2-19.8-3.4-4.6-9.3-7.9-17.4-10v-5.3c8.6.5,17.2.9,25.9,1.1,8.7.2,17.6.3,26.8.3s19.3-.1,28.7-.3c9.3-.2,18.5-.6,27.7-1.1v5.3c-8.1,1.5-13.9,4.6-17.5,9.3-3.5,4.7-5.4,11.6-5.4,20.5l.2,75.1h0l.1.2Z"
      style="fill: #000; stroke-width: 0px;" />
    <path
      d="M1741.1,840.4c-.3,7.8-.7,16.5-.8,26.1-.2,9.6-.2,24.2-.2,43.7v52.6c0,29,1.7,47.6,5.3,56.2,3.4,8.6,9.8,14.2,19.2,16.7l-.2,4.5c-6.1-.3-12.8-.7-20.3-.8-7.4-.2-18.2-.2-32.3-.2s-22.7.1-30,.2c-7.3.2-14.3.5-21.1.8v-4.5c9.2-3.1,15.6-8.8,19.1-17.2s5.3-25.9,5.3-52.7v-68.7c0-16.3-1.5-26.7-4.4-31.1s-8.6-7.1-17.1-7.8v-4.5c16.4-2.1,30.9-4.2,43.5-6.4,12.5-2.2,23.8-4.5,33.9-7h0l.1.1ZM1682.1,791.6c0-8.7,2.9-15.9,8.5-21.8s12.7-8.7,21.2-8.7,15.6,2.9,21.2,8.7c5.7,5.8,8.6,13.1,8.6,21.8s-2.9,15.9-8.6,21.8-12.8,8.7-21.2,8.7-15.8-2.9-21.3-8.6c-5.6-5.6-8.4-12.9-8.4-21.9h0Z"
      style="fill: #000; stroke-width: 0px;" />
    <path
      d="M1799.8,817.8c0-16.3-1.5-26.7-4.4-31.1s-8.6-7.1-17.1-7.8v-4.1c15-1.8,29-3.9,41.9-6.2s24.7-4.7,35.6-7.3c-.3,7.6-.7,17.2-.8,28.9-.2,11.7-.2,25.3-.2,40.8v131.9c0,29,1.7,47.6,5.3,56.2,3.4,8.6,9.8,14.2,19.2,16.7l-.2,4.5c-6.1-.3-12.8-.7-20.3-.8-7.4-.2-18.2-.2-32.3-.2s-22.7.1-30,.2c-7.3.2-14.3.5-21.1.8v-4.5c9.3-3.1,15.7-8.8,19.2-17.1,3.4-8.2,5.3-25.9,5.3-52.8l-.2-148h0l.1-.1Z"
      style="fill: #000; stroke-width: 0px;" />
    <path
      d="M1914.5,817.8c0-16.3-1.5-26.7-4.4-31.1s-8.6-7.1-17.1-7.8v-4.1c15-1.8,29-3.9,41.9-6.2s24.7-4.7,35.6-7.3c-.3,7.6-.7,17.2-.8,28.9-.2,11.7-.2,25.3-.2,40.8v131.9c0,29,1.7,47.6,5.3,56.2,3.4,8.6,9.8,14.2,19.2,16.7l-.2,4.5c-6.1-.3-12.8-.7-20.3-.8-7.4-.2-18.2-.2-32.3-.2s-22.7.1-30,.2c-7.3.2-14.3.5-21.1.8v-4.5c9.3-3.1,15.7-8.8,19.2-17.1,3.4-8.2,5.3-25.9,5.3-52.8l-.2-148h0l.1-.1Z"
      style="fill: #000; stroke-width: 0px;" />
    <path
      d="M2219.5,908.4c0,22,.6,39.8,1.7,53.6,1.1,13.7,3,23.6,5.5,29.5,4.9,12.7,12.7,22.2,23.4,28.6,10.6,6.4,23.9,9.6,40,9.6,25.4,0,44.9-7.6,58.2-22.7,13.4-15.1,20-37,20-65.8v-36.6c0-41.2-3-68.4-8.9-81.3-6-12.9-16.9-22.1-32.7-27.5l.2-4.8c9.8.3,18.4.7,26,.8,7.6.2,14.1.2,19.7.2s15.2-.1,23.9-.2c8.7-.2,18.1-.5,27.8-.8l.2,4.5c-16,5.4-27,14.5-33.1,27.5-6.1,12.9-9,40.2-9,81.6v34.7c0,36.6-9.2,63.7-27.4,81.1s-46.5,26.2-84.7,26.2-38.9-2.2-53.9-6.5-27.4-10.9-37.2-19.7c-8.9-8.2-15.3-18.2-19.1-30.2-3.8-11.9-5.7-29.2-5.7-52s.2-19.8.6-32.3.6-20.5.6-24.2v-56.1c0-8.6-1.7-15.1-5.3-19.7s-9.4-7.9-17.6-10.1v-5.4c8.4.5,16.8.9,25.6,1.1,8.8.2,18,.3,27.4.3s19.6-.1,28.9-.3c9.3-.2,18.7-.6,27.9-1.1v5.3c-8.1,1.5-13.9,4.6-17.5,9.3-3.5,4.7-5.4,11.6-5.4,20.5v82.9h.1-.2Z"
      style="fill: #000; stroke-width: 0px;" />
    <path
      d="M2486.1,869.8c5.7-11.9,12.6-20.6,20.5-26.2,7.9-5.5,17.5-8.2,28.9-8.2,20.5,0,35.6,7.6,45.2,22.7,9.7,15.1,14.5,38.7,14.5,70.8v21.4c0,34.1,1.4,56.4,4.1,66.9,2.7,10.4,7.6,16.7,14.5,19v4.1c-7.2-.3-14.5-.7-21.9-.8-7.4-.2-14.7-.2-21.9-.2s-14.4.1-21.8.2c-7.2.2-14.5.5-21.8.8l-.2-4.1c5.6-3,9.5-8.6,11.7-16.7,2.2-8.2,3.2-23.9,3.2-47.3v-39.6c0-26.7-1.9-45.8-5.7-57.2s-10.1-17.2-18.7-17.2-16.6,6.5-21.8,19.7c-5.3,13.1-7.8,31.4-7.8,54.8v17.9c0,35.6,1.1,58.2,3.3,67.7,2.2,9.5,6.3,15.6,12.1,18.2v4.1c-6.8-.3-13.6-.7-20.6-.8-7-.2-14.2-.2-21.8-.2s-14.9.1-22.7.2c-7.8.2-15.8.5-24,.8l-.2-4.1c7.3-3.1,12.4-9,15.2-18s4.2-27.9,4.2-57.2v-63.7c0-16.1-1.3-26.6-3.8-31.1s-7-7.2-13.4-7.8v-4.1c12.4-1.8,24.5-3.9,36.2-6.2s23-4.8,33.9-7.6l.2,29.2h0l.4-.2Z"
      style="fill: #000; stroke-width: 0px;" />
    <path
      d="M2636.2,891.8c0-16-1.3-26.2-3.7-30.7s-6.9-7-13.5-7.7v-4.7c11.4-1.7,23-3.8,34.8-6,11.8-2.3,23.9-4.7,36.5-7.4v126.3c0,29.4,1.3,48.7,3.9,57.6,2.6,9,7.2,14.7,14,16.8l-.2,4.1c-7.2-.3-14.5-.7-22-.8-7.4-.2-15-.2-22.6-.2s-14.9.1-22.7.2c-7.8.2-15.8.5-24,.8l-.2-4.1c7.3-3.1,12.4-9,15.2-18,2.9-8.9,4.2-27.9,4.2-57.2l.2-69h.1ZM2636.2,790.9c0-8.5,2.5-15.6,7.7-21.2,5-5.7,11.4-8.6,19-8.6s14.1,2.9,19.5,8.7,8.1,12.8,8.1,21.2-2.7,15.7-8.1,21.6c-5.4,6-11.9,8.9-19.5,8.9s-13.9-2.9-19-8.7c-5-6.1-7.7-13.4-7.7-22h0v.1Z"
      style="fill: #000; stroke-width: 0px;" />
    <path
      d="M2834.2,889.9c1.7-4.6,3-8.7,3.8-12.3.8-3.5,1.1-7.1,1.1-10.6,0-6.8-1.6-11.9-4.7-15.7-3.1-3.8-8-6.4-14.8-8v-4.1c6,.3,11.9.7,17.9.8s11.9.2,17.9.2,11.9-.1,18-.2c6.1-.2,12-.5,18.2-.8l.2,4.1c-7.2,3.4-14.2,9.7-21.2,18.9-6.9,9.2-13.3,20.6-19.2,34.6l-61.5,149.5h-3l-60.7-154.4c-.2-.6-.6-1.4-.9-2.4-12-29.8-22-45.2-30-46.1l.2-4.1c7.3.3,14.9.7,22.7.8,7.8.2,15.6.2,23.4.2s16.1-.1,24.5-.2c8.4-.1,16.7-.5,25.1-.8v4.1c-5.6,2.7-9.6,6-12.3,9.6-2.5,3.7-3.8,8.2-3.8,13.7s.5,6.8,1.3,10.2,2.2,7.8,4.2,13.1l28.5,71.7,25.1-71.7h0v-.1Z"
      style="fill: #000; stroke-width: 0px;" />
    <path
      d="M2937.7,919.4v10.2c0,31.9,4.4,55.8,13.3,71.4,8.8,15.7,22.1,23.6,39.8,23.6s23.2-6.1,32.7-18.2c9.6-12.1,16.5-29,20.7-50.3l9.5,7.1c-4.4,26-14.1,46.4-29.2,61.1-15.1,14.8-33.7,22.2-55.6,22.2s-46.1-10.2-62.7-30.6c-16.6-20.4-25-46.1-25-77.5s8.6-54.3,25.6-73.7,38.6-29.2,64.5-29.2,44.8,7.6,59.8,22.8,22.6,35.6,22.7,61.1h-116.1v-.1.1ZM2938.9,903h56.4c0-18-2.3-31.8-6.8-41.6-4.5-9.7-10.9-14.5-19.2-14.5s-15.8,5-21.3,15.1-8.6,23.7-9.2,41h.1Z"
      style="fill: #000; stroke-width: 0px;" />
    <path
      d="M3089.9,891.8c0-16-1.1-26.2-3.5-30.7s-6.9-7.1-13.6-7.8v-4.5c11.9-1.7,23.8-3.8,35.7-6,11.9-2.3,23.6-4.7,35.3-7.4v41.7c5.8-13.9,12.6-24.4,20.2-31.3,7.6-7,16-10.4,25.3-10.4s4.2.1,5.7.2c1.4.1,2.9.3,4.2.6l-16.7,72.2c-1.9-6.2-4.5-10.9-7.2-14.1-2.9-3.2-6.2-4.7-9.8-4.7-7.4,0-12.8,6.6-16.1,19.7-3.3,13.2-4.9,34.9-4.9,65.4s1.4,35.7,4.1,44.7c2.7,8.9,7.4,14.5,14.2,16.7v4.1c-7.3-.3-14.7-.7-22.1-.8-7.4-.2-14.9-.2-22.4-.2s-15.3.1-23.2.2c-7.9.2-15.9.5-24.2.8v-4.1c7.3-3.1,12.4-9,15.2-18,2.7-8.9,4.2-27.9,4.2-57.2l-.2-69.2h0l-.2.1Z"
      style="fill: #000; stroke-width: 0px;" />
    <path
      d="M3201.3,1023.4l15.7-64.5,5.7,2.3c3,22.1,8.8,39.5,17.4,52.1,8.6,12.6,19,18.9,31,18.9s17.4-3.4,23.6-10.2c6.2-6.9,9.3-15.6,9.3-26.2s-2.1-16.5-6.1-21.4-14.1-10.3-30.1-16c-23.8-8.4-39-16.5-45.6-24.6-6.5-8-9.7-19.6-9.7-34.7s6.9-34.3,20.5-46.1c13.6-11.7,31.7-17.6,54.2-17.6s20.4,1.5,30.9,4.4c10.5,3,21.2,7.2,32.1,12.9l-13.7,52.1-5.6-1.1c-1.7-18.3-6.1-32.5-12.8-42.4-6.9-9.8-15.8-14.8-26.8-14.8s-14.3,2.9-19.5,8.7c-5.2,5.7-7.8,13.1-7.8,21.9s2.1,18.5,6.3,23.7c4.2,5,13.9,9.7,28.9,14,22.7,6.6,37.8,14.2,45.2,22.8s11.2,21.2,11.2,37.6-7.6,38.6-22.7,51.6c-15.1,13.1-35.1,19.7-60.2,19.7s-24-1.9-36.2-6c-12.3-3.9-23.9-9.6-35.1-16.9h0l-.1-.2Z"
      style="fill: #000; stroke-width: 0px;" />
    <path
      d="M3388.3,891.8c0-16-1.3-26.2-3.7-30.7s-6.9-7-13.5-7.7v-4.7c11.4-1.7,23-3.8,34.8-6,11.8-2.3,23.9-4.7,36.5-7.4v126.3c0,29.4,1.3,48.7,3.9,57.6,2.6,9,7.2,14.7,14,16.8l-.2,4.1c-7.2-.3-14.5-.7-22-.8-7.4-.2-15-.2-22.6-.2s-14.9.1-22.7.2c-7.8.2-15.8.5-24,.8l-.2-4.1c7.3-3.1,12.4-9,15.2-18,2.9-8.9,4.2-27.9,4.2-57.2l.2-69h.1ZM3388.3,790.9c0-8.5,2.5-15.6,7.7-21.2,5-5.7,11.4-8.6,19-8.6s14.1,2.9,19.5,8.7c5.4,5.7,8.1,12.8,8.1,21.2s-2.7,15.7-8.1,21.6c-5.4,6-11.9,8.9-19.5,8.9s-13.9-2.9-19-8.7c-5.2-6.1-7.7-13.4-7.7-22h0v.1Z"
      style="fill: #000; stroke-width: 0px;" />
    <path
      d="M3541.2,946.4c0,33.8,1.8,56.2,5.5,67.4,3.7,11.2,10.3,18.4,20,21.6v4.5h.3c-14.5-.2-36.5-.5-65.9-.8-5.4-3.1-9-7.8-11.2-14-2.2-6.2-3.2-17.5-3.2-34.1s.1-11,.3-18.8.3-13.2.3-16.3v-96.3h-21.8l2.1-11c16-8.5,29.7-18.1,41-29s20.7-23.5,28.3-37.7h5.7c-.5,4.9-.9,11-1.1,18.1s-.3,15.7-.3,25.6v17.9h27.7l-4.1,16h-23.7v86.7h.1v.2Z"
      style="fill: #000; stroke-width: 0px;" />
    <path
      d="M3695.8,889.9c1.6-5.6,2.9-10.3,3.7-14.1s1.3-7,1.3-9.6c0-6.3-1.5-11.3-4.5-14.9-3-3.5-7.9-6.3-14.9-8v-4.1c6,.3,11.9.7,17.9.8,6,.2,11.9.2,17.9.2s11.9-.1,18-.2c6.1-.2,12-.5,18.2-.8l.2,4.1c-8.6,5.4-16.3,12.6-23.1,21.6-6.9,9-12.5,19.7-16.9,31.8l-41.6,112.9c-15.2,41.3-28.6,69.2-40.2,83.2-11.4,14.2-24.8,21.2-40.2,21.2s-3.7-.1-5.3-.5c-1.7-.3-3.3-.8-4.9-1.4l19.2-67.4,4.8,1.5c1.5,8,3.4,13.6,5.7,16.7,2.4,3.1,5.7,4.7,10.2,4.7s9.8-2.3,13.6-7,5.6-10.3,5.6-17.1-.3-6.8-1-10.1c-.7-3.3-2.2-8-4.4-14l-53.8-145.4c-3.8-10.2-7.4-17.7-11.2-22.7s-7.9-7.7-12.4-8.2l.2-4.1c7.4.3,15,.7,22.7.8s15.3.2,23,.2,16-.1,24.2-.2c8.2-.2,16.5-.5,25-.8v4.1c-5.7,3-9.8,6.3-12.3,9.7-2.5,3.5-3.8,8-3.8,13.5s.5,6.8,1.3,10.2,2.2,7.8,4.2,13.1l30.2,75.6,23.4-75.4h0v.1Z"
      style="fill: #000; stroke-width: 0px;" />
  </g>
  <g>
    <path d="M1374.6,1296.6v-94.5h22.1v35.4h40.5v-35.4h22.1v94.5h-22.1v-39.8h-40.5v39.8h-22.1Z"
      style="fill: #ec1e24; stroke-width: 0px;" />
    <path
      d="M1558,1296.6l-6.5-18.9h-35.8l-6.5,18.9h-22.2l35.7-94.5h23l35.7,94.5h-23.4,0ZM1522.2,1258.8h22.7l-11.2-32.7-11.4,32.7h-.1Z"
      style="fill: #ec1e24; stroke-width: 0px;" />
    <path d="M1677,1277.5v19.1h-68.1v-94.5h22.1v75.3h46v.1Z" style="fill: #ec1e24; stroke-width: 0px;" />
    <path
      d="M1707.6,1296.6v-94.5h36.8c9.7,0,18.3,1.9,25.5,5.8s12.7,9.4,16.7,16.4,5.8,15.3,5.8,25-1.9,17.9-5.8,25-9.5,12.5-16.7,16.4-15.7,5.8-25.5,5.8h-36.8v.1h0ZM1729.7,1277.5h13.3c8.2,0,14.8-2.4,19.7-7.3,4.9-4.9,7.3-11.8,7.3-20.7s-2.4-15.9-7.3-20.7c-4.9-4.9-11.4-7.3-19.7-7.3h-13.3v56.1-.1Z"
      style="fill: #ec1e24; stroke-width: 0px;" />
    <path
      d="M1843.8,1296.6l-27.2-94.5h22.9l16,60.7,16.1-60.3h19.9l17.2,60.9,15.5-61.1h22.7l-27.4,94.5h-20.3l-17.6-63-17.6,63h-20.2v-.2Z"
      style="fill: #ec1e24; stroke-width: 0px;" />
    <path
      d="M2038.4,1296.6l-6.5-18.9h-35.8l-6.5,18.9h-22.2l35.7-94.5h23l35.7,94.5h-23.4ZM2002.6,1258.8h22.7l-11.2-32.7-11.4,32.7h-.1Z"
      style="fill: #ec1e24; stroke-width: 0px;" />
    <path d="M2089.2,1296.6v-94.5h21.3l42.2,60.8v-60.8h21.2v94.5h-21.2l-42.4-60.9v60.9h-21.2.1Z"
      style="fill: #ec1e24; stroke-width: 0px;" />
    <path d="M2231.8,1296.6h-22.1v-94.5h22.1v94.5Z" style="fill: #ec1e24; stroke-width: 0px;" />
    <path
      d="M2314.7,1223.7c3.9-7.4,9.4-13.3,16.3-17.5,6.9-4.2,14.9-6.3,24-6.3s15.6,1.5,21.4,4.5c5.8,3.1,10.5,7.2,14.1,12.4,3.4,5.3,5.7,11.1,6.9,17.6h-22.8c-.9-4.5-3-8-6.4-10.9-3.4-2.7-7.8-4.1-13.3-4.1s-12.9,2.7-17.2,8c-4.4,5.4-6.5,12.7-6.5,21.9s2.2,16.3,6.5,21.8c4.4,5.4,10.1,8.1,17.2,8.1s10.1-1.4,13.4-3.9c3.4-2.6,5.6-6.1,6.5-10.3h22.6c-1,6.4-3.4,12.3-6.9,17.2-3.5,5.2-8.2,9.3-14.1,12-5.8,3-13.1,4.5-21.4,4.5s-17.1-2.2-24-6.4c-6.9-4.2-12.4-10.1-16.3-17.5-3.9-7.4-5.8-15.9-5.8-25.5s1.8-17.9,5.8-25.4h0v-.2Z"
      style="fill: #ec1e24; stroke-width: 0px;" />
    <path
      d="M2490.8,1296.6l-6.5-18.9h-35.8l-6.5,18.9h-22.2l35.7-94.5h23l35.7,94.5h-23.4ZM2454.9,1258.8h22.7l-11.2-32.7-11.4,32.7h-.1Z"
      style="fill: #ec1e24; stroke-width: 0px;" />
    <path d="M2562.7,1296.6h-21.1v-94.5h24.8l26.9,44.2,26.1-44.2h24.7v94.5h-21.1v-64.2l-30.2,50.1-30.1-49.9v64h-.1.1Z"
      style="fill: #ec1e24; stroke-width: 0px;" />
    <path
      d="M2679.7,1296.6v-94.5h39c7.8,0,14.5,1.4,20,4.1s10,6.5,12.9,11.4,4.5,10.5,4.5,17.1-1.5,12.3-4.5,17.1c-3,5-7.3,8.8-12.9,11.6-5.6,2.7-12.4,4.1-20,4.1h-16.9v29.2h-22.1v-.1ZM2701.9,1248.7h13.7c6.4,0,11.1-1.3,14-3.7,2.9-2.3,4.4-5.8,4.4-10.3s-1.5-7.9-4.4-10.3c-2.9-2.3-7.6-3.5-14-3.5h-13.7v27.8h0Z"
      style="fill: #ec1e24; stroke-width: 0px;" />
    <path
      d="M2804,1293.5c-6.3-3.5-11-8.6-14.1-15.1-3.2-6.4-4.9-14-4.9-22.8v-53.5h22v50.7c0,8,1.5,14.4,4.6,19.1s8.1,7.2,15.3,7.2,12.5-2.4,15.6-7.2c3-4.7,4.5-11.1,4.5-19.1v-50.7h22.1v53.5c0,8.8-1.6,16.4-4.7,22.8-3.2,6.5-8,11.6-14.2,15.1-6.3,3.5-14,5.3-23.2,5.3s-16.7-1.8-22.9-5.3h-.1Z"
      style="fill: #ec1e24; stroke-width: 0px;" />
    <path
      d="M2910.4,1290.8c-6.9-5.3-11.6-12.5-13.5-21.9h21.9c.9,3.2,3.2,6,6.6,8s7.4,3.1,12.5,3.1,8.6-.8,11.4-2.6c2.9-1.7,4.4-4.1,4.4-7.2s-.5-3.5-1.3-4.9c-.9-1.4-2.6-2.6-5-3.7-2.6-.9-6.3-1.9-11.2-2.7l-10.1-1.7c-8.7-1.5-15.2-4.5-19.6-8.7-4.5-4.2-6.6-10.3-6.6-18.3s1.6-11.7,4.9-16.1c3.2-4.5,7.8-8,13.3-10.4,5.6-2.4,11.8-3.7,18.8-3.7,10.4,0,19,2.4,25.8,7.3s10.9,11.9,12.4,21.1h-21.9c-.8-3.1-2.6-5.4-5.2-7.2-2.7-1.6-6.4-2.4-10.9-2.4s-8.4.8-11,2.6c-2.7,1.7-4.1,4.1-4.1,6.9s1,4.7,3.2,6.3c2.2,1.5,6.5,2.9,13.1,4.1l10,1.6c18.4,3.1,27.7,12.5,27.7,27.8s-1.6,12.3-4.7,16.8c-3.2,4.6-7.8,8.1-13.3,10.4-5.7,2.3-12.3,3.5-19.7,3.5-11.7,0-21-2.7-27.8-8h-.1Z"
      style="fill: #ec1e24; stroke-width: 0px;" />
  </g>
</svg>