<?xml version="1.0" encoding="UTF-8"?>
<svg id="a" data-name="Layer 2" xmlns="http://www.w3.org/2000/svg" viewBox="0 0 68.94 841.89">
  <g id="b" data-name="Layer 2-2">
    <g>
      <rect y="0" width="68.93" height="841.89" style="fill: #1c75bc; stroke-width: 0px;" />
      <path d="M68.93,173.17c-15.76-.57-27.01-4.29-40.14-9.89-9.84-4.2-22.34-12.13-28.79-19.53v-71.68h68.93v101.11h0Z"
        style="fill: #ef4136; stroke-width: 0px;" />
      <path
        d="M0,177.32c71.81,23.62,68.93,93.7,68.93,93.7-8.31-.02-22.89,1.02-39.12,8.3-14.51,6.5-24.28,15.27-29.81,21.06v-123.06Z"
        style="fill: #fbb040; stroke-width: 0px;" />
      <rect x=".19" y="370.6" width="68.74" height="96.51" style="fill: #fbb040; stroke-width: 0px;" />
      <path d="M.19,467.11l-.19-92.68c8.19,2.65,31.38,11.31,49.21,35.23,17.91,24.03,19.54,48.85,19.72,57.45H.19Z"
        style="fill: #ef4136; stroke-width: 0px;" />
      <rect y="762.19" width="68.93" height="79.7" style="fill: #ef4136; stroke-width: 0px;" />
      <path d="M.19,467.11l-.19,70.28c5.79,5.66,15,13.31,27.96,19.34,16.77,7.8,31.98,9.23,40.97,9.38v-99H.19Z"
        style="fill: #fbb040; stroke-width: 0px;" />
      <path d="M0,691.15c5.58-5.79,16.74-15.82,33.89-22.02,14.57-5.27,27.37-5.58,35.03-5.17v-97.85H0v125.04Z"
        style="fill: #fbb040; stroke-width: 0px;" />
      <path
        d="M0,598.66c5.83-6.43,16.69-16.74,33.32-24.13,14.41-6.4,27.37-8.03,35.61-8.43-1.15,10.21-4.89,30.84-19.52,51.7-17.26,24.61-39.71,35.35-49.21,39.26-.06-19.47-.13-38.94-.19-58.4h-.01Z"
        style="fill: #ef4136; stroke-width: 0px;" />
    </g>
  </g>
</svg>